SplineFontDB: 3.0
FontName: Bristol-Regular-Italic
FullName: Bristol Regular Italic
FamilyName: Bristol
Weight: Regular
Copyright: Copyright (c) 2011 by Pablo Impallari. www.impallari.com Igino Marini. www.ikern.com. All rights reserved.
Version: 1.005
DefaultBaseFilename: Bristol-400-Italic
ItalicAngle: 0
UnderlinePosition: -100
UnderlineWidth: 50
Ascent: 800
Descent: 200
InvalidEm: 0
sfntRevision: 0x00010148
LayerCount: 2
Layer: 0 1 "Back" 1
Layer: 1 1 "Fore" 0
XUID: [1021 805 -1179658985 1774390]
FSType: 0
OS2Version: 3
OS2_WeightWidthSlopeOnly: 0
OS2_UseTypoMetrics: 1
CreationTime: 1321447630
ModificationTime: 1431276700
PfmFamily: 17
TTFWeight: 400
TTFWidth: 5
LineGap: 0
VLineGap: 0
Panose: 2 11 8 3 5 2 2 2 0 4
OS2TypoAscent: 965
OS2TypoAOffset: 0
OS2TypoDescent: -250
OS2TypoDOffset: 0
OS2TypoLinegap: 0
OS2WinAscent: 965
OS2WinAOffset: 0
OS2WinDescent: 250
OS2WinDOffset: 0
HheadAscent: 965
HheadAOffset: 0
HheadDescent: -250
HheadDOffset: 0
OS2SubXSize: 700
OS2SubYSize: 650
OS2SubXOff: 0
OS2SubYOff: 140
OS2SupXSize: 700
OS2SupYSize: 650
OS2SupXOff: 0
OS2SupYOff: 477
OS2StrikeYSize: 50
OS2StrikeYPos: 250
OS2CapHeight: 700
OS2XHeight: 490
OS2FamilyClass: 2050
OS2Vendor: 'PYRS'
OS2CodePages: 00000001.00000000
OS2UnicodeRanges: 8000002f.1000000b.00000000.00000000
Lookup: 1 0 0 "'aalt' Access All Alternates in Latin lookup 0" { "'aalt' Access All Alternates in Latin lookup 0 subtable"  } ['aalt' ('latn' <'dflt' > ) ]
Lookup: 1 0 0 "'smcp' Lowercase to Small Capitals in Latin lookup 1" { "'smcp' Lowercase to Small Capitals in Latin lookup 1 subtable"  } ['smcp' ('latn' <'dflt' > ) ]

StartChar: .notdef
Encoding: 65536 -1 0
Width: 225
Flags: W
LayerCount: 2
Back
Fore
SplineSet
104 250 m 1,0,-1
 123 360 l 1,1,-1
 214 360 l 1,2,-1
 195 250 l 1,3,-1
 104 250 l 1,0,-1
EndSplineSet
EndChar

StartChar: exclam
Encoding: 33 33 2
Width: 239
Flags: W
LayerCount: 2
Back
Fore
SplineSet
135 200 m 1,0,-1
 71 200 l 1,1,-1
 144 750 l 1,2,-1
 256 750 l 1,3,-1
 135 200 l 1,0,-1
24 0 m 1,4,-1
 39 86 l 1,5,-1
 126 86 l 1,6,-1
 111 0 l 1,7,-1
 24 0 l 1,4,-1
EndSplineSet
EndChar

StartChar: quotedbl
Encoding: 34 34 3
Width: 374
Flags: W
LayerCount: 2
Back
Fore
SplineSet
340 450 m 1,0,-1
 284 450 l 1,1,-1
 319 750 l 1,2,-1
 411 750 l 1,3,-1
 340 450 l 1,0,-1
143 450 m 1,4,-1
 86 450 l 1,5,-1
 121 750 l 1,6,-1
 214 750 l 1,7,-1
 143 450 l 1,4,-1
EndSplineSet
EndChar

StartChar: numbersign
Encoding: 35 35 4
Width: 645
Flags: W
LayerCount: 2
Back
Fore
SplineSet
607 423 m 1,0,-1
 503 423 l 1,1,-1
 440 300 l 1,2,-1
 554 300 l 1,3,-1
 504 216 l 1,4,-1
 395 216 l 1,5,-1
 278 -11 l 1,6,-1
 202 -11 l 1,7,-1
 318 216 l 1,8,-1
 204 216 l 1,9,-1
 87 -11 l 1,10,-1
 11 -11 l 1,11,-1
 128 216 l 1,12,-1
 20 216 l 1,13,-1
 70 300 l 1,14,-1
 173 300 l 1,15,-1
 235 423 l 1,16,-1
 123 423 l 1,17,-1
 165 507 l 1,18,-1
 281 507 l 1,19,-1
 381 700 l 1,20,-1
 457 700 l 1,21,-1
 357 507 l 1,22,-1
 471 507 l 1,23,-1
 571 700 l 1,24,-1
 648 700 l 1,25,-1
 548 507 l 1,26,-1
 649 507 l 1,27,-1
 607 423 l 1,0,-1
312 423 m 1,28,-1
 249 300 l 1,29,-1
 363 300 l 1,30,-1
 426 423 l 1,31,-1
 312 423 l 1,28,-1
EndSplineSet
EndChar

StartChar: dollar
Encoding: 36 36 5
Width: 479
Flags: W
LayerCount: 2
Back
Fore
SplineSet
224 -32 m 1,0,-1
 138 -32 l 1,1,-1
 173 81 l 1,2,3
 119 84 119 84 80 95 c 128,-1,4
 41 106 41 106 22 119 c 1,5,-1
 53 228 l 1,6,7
 74 205 74 205 113.5 187.5 c 128,-1,8
 153 170 153 170 211 170 c 0,9,10
 260 170 260 170 290 185.5 c 128,-1,11
 320 201 320 201 320 242 c 0,12,13
 320 267 320 267 302 283 c 128,-1,14
 284 299 284 299 256.5 311.5 c 128,-1,15
 229 324 229 324 197 335 c 128,-1,16
 165 346 165 346 137.5 361.5 c 128,-1,17
 110 377 110 377 92 399.5 c 128,-1,18
 74 422 74 422 74 457 c 0,19,20
 74 481 74 481 84 509.5 c 128,-1,21
 94 538 94 538 116.5 563 c 128,-1,22
 139 588 139 588 176.5 606.5 c 128,-1,23
 214 625 214 625 270 631 c 1,24,-1
 276 748 l 1,25,-1
 362 748 l 1,26,-1
 327 631 l 1,27,28
 373 628 373 628 410.5 617 c 128,-1,29
 448 606 448 606 465 594 c 1,30,-1
 439 498 l 1,31,32
 405 518 405 518 367 532 c 128,-1,33
 329 546 329 546 296 546 c 0,34,35
 275 546 275 546 254 543 c 128,-1,36
 233 540 233 540 216 532.5 c 128,-1,37
 199 525 199 525 188.5 512 c 128,-1,38
 178 499 178 499 178 480 c 0,39,40
 178 457 178 457 197 443 c 128,-1,41
 216 429 216 429 244 418 c 128,-1,42
 272 407 272 407 305.5 396 c 128,-1,43
 339 385 339 385 367 368.5 c 128,-1,44
 395 352 395 352 414 326 c 128,-1,45
 433 300 433 300 433 259 c 0,46,47
 433 242 433 242 428 215 c 128,-1,48
 423 188 423 188 402.5 160.5 c 128,-1,49
 382 133 382 133 341.5 110.5 c 128,-1,50
 301 88 301 88 230 82 c 1,51,-1
 224 -32 l 1,0,-1
EndSplineSet
EndChar

StartChar: percent
Encoding: 37 37 6
Width: 772
Flags: W
LayerCount: 2
Back
Fore
SplineSet
170 -12 m 1,0,-1
 94 -12 l 1,1,-1
 599 700 l 1,2,-1
 674 700 l 1,3,-1
 170 -12 l 1,0,-1
178 333 m 0,4,5
 129 333 129 333 100.5 368.5 c 128,-1,6
 72 404 72 404 72 470 c 0,7,8
 72 525 72 525 87 568.5 c 128,-1,9
 102 612 102 612 126.5 642.5 c 128,-1,10
 151 673 151 673 183 689 c 128,-1,11
 215 705 215 705 248 705 c 0,12,13
 296 705 296 705 324.5 669 c 128,-1,14
 353 633 353 633 353 567 c 0,15,16
 353 514 353 514 339.5 470.5 c 128,-1,17
 326 427 326 427 302 396.5 c 128,-1,18
 278 366 278 366 246 349.5 c 128,-1,19
 214 333 214 333 178 333 c 0,4,5
238 653 m 0,20,21
 219 653 219 653 200 640.5 c 128,-1,22
 181 628 181 628 165.5 604.5 c 128,-1,23
 150 581 150 581 140.5 549.5 c 128,-1,24
 131 518 131 518 131 481 c 0,25,26
 131 437 131 437 146.5 411 c 128,-1,27
 162 385 162 385 188 385 c 0,28,29
 209 385 209 385 228 398 c 128,-1,30
 247 411 247 411 262 434.5 c 128,-1,31
 277 458 277 458 285.5 489 c 128,-1,32
 294 520 294 520 294 556 c 0,33,34
 294 601 294 601 278.5 627 c 128,-1,35
 263 653 263 653 238 653 c 0,20,21
541 -14 m 0,36,37
 492 -14 492 -14 464 21.5 c 128,-1,38
 436 57 436 57 436 123 c 0,39,40
 436 178 436 178 451 221.5 c 128,-1,41
 466 265 466 265 490.5 295.5 c 128,-1,42
 515 326 515 326 546.5 342 c 128,-1,43
 578 358 578 358 611 358 c 0,44,45
 659 358 659 358 688 322 c 128,-1,46
 717 286 717 286 717 220 c 0,47,48
 717 167 717 167 703 123.5 c 128,-1,49
 689 80 689 80 665 49.5 c 128,-1,50
 641 19 641 19 609 2.5 c 128,-1,51
 577 -14 577 -14 541 -14 c 0,36,37
601 306 m 0,52,53
 582 306 582 306 563 293.5 c 128,-1,54
 544 281 544 281 528.5 257.5 c 128,-1,55
 513 234 513 234 503.5 202.5 c 128,-1,56
 494 171 494 171 494 134 c 0,57,58
 494 90 494 90 510 64 c 128,-1,59
 526 38 526 38 551 38 c 0,60,61
 572 38 572 38 591.5 51 c 128,-1,62
 611 64 611 64 626 87.5 c 128,-1,63
 641 111 641 111 649.5 142 c 128,-1,64
 658 173 658 173 658 209 c 0,65,66
 658 254 658 254 642 280 c 128,-1,67
 626 306 626 306 601 306 c 0,52,53
EndSplineSet
EndChar

StartChar: ampersand
Encoding: 38 38 7
Width: 560
Flags: W
LayerCount: 2
Back
Fore
SplineSet
401 0 m 1,0,-1
 373 46 l 1,1,2
 328 7 328 7 287 -8 c 128,-1,3
 246 -23 246 -23 193 -23 c 0,4,5
 145 -23 145 -23 110.5 -11 c 128,-1,6
 76 1 76 1 54 21.5 c 128,-1,7
 32 42 32 42 22 69.5 c 128,-1,8
 12 97 12 97 12 129 c 0,9,10
 12 198 12 198 50.5 253.5 c 128,-1,11
 89 309 89 309 164 366 c 1,12,13
 144 408 144 408 134 445.5 c 128,-1,14
 124 483 124 483 124 512 c 0,15,16
 124 556 124 556 142 591.5 c 128,-1,17
 160 627 160 627 189 651.5 c 128,-1,18
 218 676 218 676 256 689.5 c 128,-1,19
 294 703 294 703 334 703 c 0,20,21
 393 703 393 703 420 673.5 c 128,-1,22
 447 644 447 644 447 600 c 0,23,24
 447 560 447 560 431 525 c 128,-1,25
 415 490 415 490 388.5 459.5 c 128,-1,26
 362 429 362 429 329.5 403 c 128,-1,27
 297 377 297 377 264 356 c 1,28,-1
 387 161 l 1,29,30
 397 174 397 174 406 199.5 c 128,-1,31
 415 225 415 225 423 253.5 c 128,-1,32
 431 282 431 282 437.5 308.5 c 128,-1,33
 444 335 444 335 447 351 c 1,34,-1
 531 351 l 1,35,36
 526 329 526 329 518.5 299 c 128,-1,37
 511 269 511 269 499.5 235 c 128,-1,38
 488 201 488 201 471.5 166 c 128,-1,39
 455 131 455 131 433 100 c 1,40,-1
 498 0 l 1,41,-1
 401 0 l 1,0,-1
312 634 m 0,42,43
 292 634 292 634 273.5 626 c 128,-1,44
 255 618 255 618 241 603 c 128,-1,45
 227 588 227 588 218 565.5 c 128,-1,46
 209 543 209 543 209 513 c 0,47,48
 209 493 209 493 214.5 465 c 128,-1,49
 220 437 220 437 235 406 c 1,50,51
 266 432 266 432 290 452 c 128,-1,52
 314 472 314 472 331 490.5 c 128,-1,53
 348 509 348 509 357 529 c 128,-1,54
 366 549 366 549 366 576 c 0,55,56
 366 604 366 604 352 619 c 128,-1,57
 338 634 338 634 312 634 c 0,42,43
197 313 m 1,58,59
 158 284 158 284 131 239.5 c 128,-1,60
 104 195 104 195 104 144 c 0,61,62
 104 103 104 103 128.5 74 c 128,-1,63
 153 45 153 45 211 45 c 0,64,65
 252 45 252 45 282.5 61.5 c 128,-1,66
 313 78 313 78 338 105 c 1,67,-1
 197 313 l 1,58,59
EndSplineSet
EndChar

StartChar: quotesingle
Encoding: 39 39 8
Width: 183
Flags: W
LayerCount: 2
Back
Fore
SplineSet
149 450 m 1,0,-1
 86 450 l 1,1,-1
 122 750 l 1,2,-1
 219 750 l 1,3,-1
 149 450 l 1,0,-1
EndSplineSet
EndChar

StartChar: parenleft
Encoding: 40 40 9
Width: 258
Flags: W
LayerCount: 2
Back
Fore
SplineSet
75 -136 m 1,0,1
 55 -85 55 -85 43.5 -16 c 128,-1,2
 32 53 32 53 32 136 c 0,3,4
 32 224 32 224 43.5 304 c 128,-1,5
 55 384 55 384 79 459.5 c 128,-1,6
 103 535 103 535 140.5 607 c 128,-1,7
 178 679 178 679 231 750 c 1,8,-1
 312 750 l 1,9,10
 271 692 271 692 234 628.5 c 128,-1,11
 197 565 197 565 169 493 c 128,-1,12
 141 421 141 421 125 339 c 128,-1,13
 109 257 109 257 109 163 c 0,14,15
 109 75 109 75 122 -2.5 c 128,-1,16
 135 -80 135 -80 155 -136 c 1,17,-1
 75 -136 l 1,0,1
EndSplineSet
EndChar

StartChar: parenright
Encoding: 41 41 10
Width: 258
Flags: W
LayerCount: 2
Back
Fore
SplineSet
-49 -136 m 1,0,1
 -8 -78 -8 -78 29 -14.5 c 128,-1,2
 66 49 66 49 93.5 121 c 128,-1,3
 121 193 121 193 137 274.5 c 128,-1,4
 153 356 153 356 153 451 c 0,5,6
 153 539 153 539 140 616.5 c 128,-1,7
 127 694 127 694 107 750 c 1,8,-1
 188 750 l 1,9,10
 208 699 208 699 219.5 630 c 128,-1,11
 231 561 231 561 231 478 c 0,12,13
 231 390 231 390 219.5 310 c 128,-1,14
 208 230 208 230 184 154.5 c 128,-1,15
 160 79 160 79 122 7 c 128,-1,16
 84 -65 84 -65 32 -136 c 1,17,-1
 -49 -136 l 1,0,1
EndSplineSet
EndChar

StartChar: asterisk
Encoding: 42 42 11
Width: 402
Flags: W
LayerCount: 2
Back
Fore
SplineSet
246 560 m 1,0,-1
 136 424 l 1,1,-1
 103 456 l 1,2,-1
 225 573 l 1,3,-1
 94 638 l 1,4,-1
 129 679 l 1,5,-1
 243 593 l 1,6,-1
 252 749 l 1,7,-1
 307 749 l 1,8,-1
 260 593 l 1,9,-1
 405 679 l 1,10,-1
 425 637 l 1,11,-1
 271 574 l 1,12,-1
 355 459 l 1,13,-1
 309 427 l 1,14,-1
 246 560 l 1,0,-1
EndSplineSet
EndChar

StartChar: plus
Encoding: 43 43 12
Width: 425
Flags: W
LayerCount: 2
Back
Fore
SplineSet
241 238 m 1,0,-1
 217 102 l 1,1,-1
 141 102 l 1,2,-1
 164 238 l 1,3,-1
 36 238 l 1,4,-1
 51 324 l 1,5,-1
 180 324 l 1,6,-1
 202 452 l 1,7,-1
 278 452 l 1,8,-1
 256 324 l 1,9,-1
 384 324 l 1,10,-1
 369 238 l 1,11,-1
 241 238 l 1,0,-1
EndSplineSet
EndChar

StartChar: comma
Encoding: 44 44 13
Width: 215
Flags: W
LayerCount: 2
Back
Fore
SplineSet
9 -109 m 1,0,-1
 -10 -96 l 1,1,-1
 36 -9 l 1,2,-1
 8 0 l 1,3,-1
 23 86 l 1,4,-1
 120 86 l 1,5,-1
 104 0 l 1,6,-1
 9 -109 l 1,0,-1
EndSplineSet
EndChar

StartChar: hyphen
Encoding: 45 45 14
Width: 396
Flags: W
LayerCount: 2
Back
Fore
SplineSet
48 238 m 1,0,-1
 63 324 l 1,1,-1
 342 324 l 1,2,-1
 327 238 l 1,3,-1
 48 238 l 1,0,-1
EndSplineSet
EndChar

StartChar: period
Encoding: 46 46 15
Width: 208
Flags: W
LayerCount: 2
Back
Fore
SplineSet
7 0 m 1,0,-1
 22 86 l 1,1,-1
 113 86 l 1,2,-1
 98 0 l 1,3,-1
 7 0 l 1,0,-1
EndSplineSet
EndChar

StartChar: slash
Encoding: 47 47 16
Width: 495
Flags: W
LayerCount: 2
Back
Fore
SplineSet
56 -85 m 1,0,-1
 -44 -85 l 1,1,-1
 431 700 l 1,2,-1
 531 700 l 1,3,-1
 56 -85 l 1,0,-1
EndSplineSet
EndChar

StartChar: zero
Encoding: 48 48 17
Width: 667
Flags: W
LayerCount: 2
Back
Fore
SplineSet
273 -14 m 0,0,1
 225 -14 225 -14 186.5 5 c 128,-1,2
 148 24 148 24 121.5 59 c 128,-1,3
 95 94 95 94 81 144 c 128,-1,4
 67 194 67 194 67 256 c 0,5,6
 67 356 67 356 96 440 c 128,-1,7
 125 524 125 524 173 585 c 128,-1,8
 221 646 221 646 283.5 680 c 128,-1,9
 346 714 346 714 413 714 c 0,10,11
 459 714 459 714 497 694 c 128,-1,12
 535 674 535 674 562 637.5 c 128,-1,13
 589 601 589 601 603.5 550 c 128,-1,14
 618 499 618 499 618 436 c 0,15,16
 618 339 618 339 591.5 256.5 c 128,-1,17
 565 174 565 174 518.5 114 c 128,-1,18
 472 54 472 54 409 20 c 128,-1,19
 346 -14 346 -14 273 -14 c 0,0,1
396 628 m 0,20,21
 355 628 355 628 314 603.5 c 128,-1,22
 273 579 273 579 240 531.5 c 128,-1,23
 207 484 207 484 186.5 415.5 c 128,-1,24
 166 347 166 347 166 259 c 0,25,26
 166 165 166 165 199.5 118.5 c 128,-1,27
 233 72 233 72 290 72 c 0,28,29
 338 72 338 72 380.5 96.5 c 128,-1,30
 423 121 423 121 454 167.5 c 128,-1,31
 485 214 485 214 503 280.5 c 128,-1,32
 521 347 521 347 521 431 c 0,33,34
 521 528 521 528 485.5 578 c 128,-1,35
 450 628 450 628 396 628 c 0,20,21
EndSplineSet
EndChar

StartChar: one
Encoding: 49 49 18
Width: 343
Flags: W
LayerCount: 2
Back
Fore
SplineSet
92 0 m 1,0,-1
 192 563 l 1,1,2
 159 534 159 534 136 521.5 c 128,-1,3
 113 509 113 509 92 502 c 1,4,-1
 95 591 l 1,5,6
 113 598 113 598 133.5 609 c 128,-1,7
 154 620 154 620 174 634.5 c 128,-1,8
 194 649 194 649 211.5 665.5 c 128,-1,9
 229 682 229 682 241 700 c 1,10,-1
 314 700 l 1,11,-1
 191 0 l 1,12,-1
 92 0 l 1,0,-1
EndSplineSet
EndChar

StartChar: two
Encoding: 50 50 19
Width: 489
Flags: W
LayerCount: 2
Back
Fore
SplineSet
3 0 m 1,0,1
 78 94 78 94 133.5 165 c 128,-1,2
 189 236 189 236 228.5 289 c 128,-1,3
 268 342 268 342 292.5 380 c 128,-1,4
 317 418 317 418 331 446 c 128,-1,5
 345 474 345 474 350 495 c 128,-1,6
 355 516 355 516 355 536 c 0,7,8
 355 579 355 579 332.5 602 c 128,-1,9
 310 625 310 625 270 625 c 0,10,11
 241 625 241 625 216.5 616 c 128,-1,12
 192 607 192 607 171.5 593 c 128,-1,13
 151 579 151 579 135 562.5 c 128,-1,14
 119 546 119 546 107 532 c 1,15,-1
 110 617 l 1,16,17
 116 625 116 625 132.5 641 c 128,-1,18
 149 657 149 657 174.5 673.5 c 128,-1,19
 200 690 200 690 233.5 702 c 128,-1,20
 267 714 267 714 308 714 c 256,21,22
 349 714 349 714 376.5 700.5 c 128,-1,23
 404 687 404 687 421 665 c 128,-1,24
 438 643 438 643 445 615.5 c 128,-1,25
 452 588 452 588 452 560 c 0,26,27
 452 521 452 521 438.5 478.5 c 128,-1,28
 425 436 425 436 394.5 381 c 128,-1,29
 364 326 364 326 313 254.5 c 128,-1,30
 262 183 262 183 187 86 c 1,31,-1
 395 86 l 1,32,-1
 380 0 l 1,33,-1
 3 0 l 1,0,1
EndSplineSet
EndChar

StartChar: three
Encoding: 51 51 20
Width: 510
Flags: W
LayerCount: 2
Back
Fore
SplineSet
159 -14 m 0,0,1
 128 -14 128 -14 100.5 -8 c 128,-1,2
 73 -2 73 -2 51.5 6.5 c 128,-1,3
 30 15 30 15 16 24 c 128,-1,4
 2 33 2 33 -2 39 c 1,5,-1
 37 127 l 1,6,7
 66 102 66 102 98.5 87 c 128,-1,8
 131 72 131 72 173 72 c 0,9,10
 200 72 200 72 228 80 c 128,-1,11
 256 88 256 88 279.5 107.5 c 128,-1,12
 303 127 303 127 317.5 160 c 128,-1,13
 332 193 332 193 332 243 c 0,14,15
 332 262 332 262 326.5 280.5 c 128,-1,16
 321 299 321 299 307.5 312.5 c 128,-1,17
 294 326 294 326 271 334.5 c 128,-1,18
 248 343 248 343 213 343 c 2,19,-1
 142 343 l 1,20,-1
 165 419 l 1,21,-1
 201 419 l 2,22,23
 252 419 252 419 283.5 430 c 128,-1,24
 315 441 315 441 333 459.5 c 128,-1,25
 351 478 351 478 357.5 503 c 128,-1,26
 364 528 364 528 364 555 c 0,27,28
 364 593 364 593 342 610.5 c 128,-1,29
 320 628 320 628 276 628 c 0,30,31
 234 628 234 628 202 615 c 128,-1,32
 170 602 170 602 150 587 c 1,33,-1
 147 668 l 1,34,35
 154 674 154 674 167.5 682 c 128,-1,36
 181 690 181 690 201 697 c 128,-1,37
 221 704 221 704 246 709 c 128,-1,38
 271 714 271 714 301 714 c 0,39,40
 350 714 350 714 382 700.5 c 128,-1,41
 414 687 414 687 433 666 c 128,-1,42
 452 645 452 645 459 619 c 128,-1,43
 466 593 466 593 466 568 c 0,44,45
 466 544 466 544 462 522 c 128,-1,46
 458 500 458 500 446.5 478.5 c 128,-1,47
 435 457 435 457 414.5 435 c 128,-1,48
 394 413 394 413 362 388 c 1,49,50
 401 370 401 370 417 331 c 128,-1,51
 433 292 433 292 433 252 c 0,52,53
 433 186 433 186 408.5 136 c 128,-1,54
 384 86 384 86 345 52.5 c 128,-1,55
 306 19 306 19 257 2.5 c 128,-1,56
 208 -14 208 -14 159 -14 c 0,0,1
EndSplineSet
EndChar

StartChar: four
Encoding: 52 52 21
Width: 525
Flags: W
LayerCount: 2
Back
Fore
SplineSet
369 190 m 1,0,-1
 335 0 l 1,1,-1
 237 0 l 1,2,-1
 271 190 l 1,3,-1
 0 190 l 1,4,-1
 380 700 l 1,5,-1
 459 700 l 1,6,-1
 384 276 l 1,7,-1
 461 276 l 1,8,-1
 445 190 l 1,9,-1
 369 190 l 1,0,-1
331 530 m 1,10,-1
 156 276 l 1,11,-1
 286 276 l 1,12,-1
 331 530 l 1,10,-1
EndSplineSet
EndChar

StartChar: five
Encoding: 53 53 22
Width: 508
Flags: W
LayerCount: 2
Back
Fore
SplineSet
158 -14 m 0,0,1
 133 -14 133 -14 108 -10 c 128,-1,2
 83 -6 83 -6 62 -0.5 c 128,-1,3
 41 5 41 5 26.5 12 c 128,-1,4
 12 19 12 19 9 25 c 1,5,-1
 47 114 l 1,6,7
 71 95 71 95 104.5 83.5 c 128,-1,8
 138 72 138 72 172 72 c 0,9,10
 204 72 204 72 234.5 86 c 128,-1,11
 265 100 265 100 289 125 c 128,-1,12
 313 150 313 150 328 184 c 128,-1,13
 343 218 343 218 343 257 c 0,14,15
 343 306 343 306 307 330.5 c 128,-1,16
 271 355 271 355 184 355 c 2,17,-1
 101 355 l 1,18,-1
 200 700 l 1,19,-1
 487 700 l 1,20,-1
 463 614 l 1,21,-1
 259 614 l 1,22,-1
 211 440 l 1,23,24
 334 438 334 438 389.5 398.5 c 128,-1,25
 445 359 445 359 445 278 c 0,26,27
 445 212 445 212 419.5 158 c 128,-1,28
 394 104 394 104 353 66 c 128,-1,29
 312 28 312 28 260.5 7 c 128,-1,30
 209 -14 209 -14 158 -14 c 0,0,1
EndSplineSet
EndChar

StartChar: six
Encoding: 54 54 23
Width: 532
Flags: W
LayerCount: 2
Back
Fore
SplineSet
209 -14 m 0,0,1
 133 -14 133 -14 91.5 36 c 128,-1,2
 50 86 50 86 50 176 c 0,3,4
 50 235 50 235 67.5 297 c 128,-1,5
 85 359 85 359 114 417 c 128,-1,6
 143 475 143 475 180.5 526 c 128,-1,7
 218 577 218 577 258 615.5 c 128,-1,8
 298 654 298 654 337 676.5 c 128,-1,9
 376 699 376 699 409 700 c 1,10,-1
 466 662 l 1,11,12
 421 636 421 636 378.5 606 c 128,-1,13
 336 576 336 576 299 539 c 128,-1,14
 262 502 262 502 232.5 457 c 128,-1,15
 203 412 203 412 184 357 c 1,16,17
 210 389 210 389 243.5 404.5 c 128,-1,18
 277 420 277 420 315 420 c 0,19,20
 389 420 389 420 431.5 375.5 c 128,-1,21
 474 331 474 331 474 256 c 0,22,23
 474 199 474 199 453.5 149.5 c 128,-1,24
 433 100 433 100 397.5 64 c 128,-1,25
 362 28 362 28 313.5 7 c 128,-1,26
 265 -14 265 -14 209 -14 c 0,0,1
293 339 m 0,27,28
 263 339 263 339 236.5 326.5 c 128,-1,29
 210 314 210 314 189.5 292 c 128,-1,30
 169 270 169 270 157 240 c 128,-1,31
 145 210 145 210 145 175 c 0,32,33
 145 127 145 127 170 98 c 128,-1,34
 195 69 195 69 234 69 c 0,35,36
 264 69 264 69 290.5 82.5 c 128,-1,37
 317 96 317 96 336.5 119 c 128,-1,38
 356 142 356 142 367.5 174 c 128,-1,39
 379 206 379 206 379 242 c 0,40,41
 379 287 379 287 357 313 c 128,-1,42
 335 339 335 339 293 339 c 0,27,28
EndSplineSet
EndChar

StartChar: seven
Encoding: 55 55 24
Width: 470
Flags: W
LayerCount: 2
Back
Fore
SplineSet
129 0 m 1,0,-1
 29 0 l 1,1,-1
 369 614 l 1,2,-1
 97 614 l 1,3,-1
 112 700 l 1,4,-1
 522 700 l 1,5,-1
 129 0 l 1,0,-1
EndSplineSet
EndChar

StartChar: eight
Encoding: 56 56 25
Width: 567
Flags: W
LayerCount: 2
Back
Fore
SplineSet
221 -14 m 0,0,1
 172 -14 172 -14 138 1 c 128,-1,2
 104 16 104 16 82.5 40 c 128,-1,3
 61 64 61 64 51 94.5 c 128,-1,4
 41 125 41 125 41 157 c 0,5,6
 41 180 41 180 46.5 207 c 128,-1,7
 52 234 52 234 68.5 262.5 c 128,-1,8
 85 291 85 291 114 320 c 128,-1,9
 143 349 143 349 191 376 c 1,10,11
 162 408 162 408 150.5 442.5 c 128,-1,12
 139 477 139 477 139 509 c 0,13,14
 139 542 139 542 149.5 578 c 128,-1,15
 160 614 160 614 185.5 644 c 128,-1,16
 211 674 211 674 254 693.5 c 128,-1,17
 297 713 297 713 361 713 c 0,18,19
 406 713 406 713 436 701.5 c 128,-1,20
 466 690 466 690 484 671.5 c 128,-1,21
 502 653 502 653 510 629.5 c 128,-1,22
 518 606 518 606 518 581 c 0,23,24
 518 550 518 550 513.5 527.5 c 128,-1,25
 509 505 509 505 495 484.5 c 128,-1,26
 481 464 481 464 455.5 441 c 128,-1,27
 430 418 430 418 389 387 c 1,28,29
 440 364 440 364 465.5 326.5 c 128,-1,30
 491 289 491 289 491 234 c 0,31,32
 491 193 491 193 474 149 c 128,-1,33
 457 105 457 105 423 69 c 128,-1,34
 389 33 389 33 338.5 9.5 c 128,-1,35
 288 -14 288 -14 221 -14 c 0,0,1
341 628 m 0,36,37
 284 628 284 628 255 598 c 128,-1,38
 226 568 226 568 226 520 c 0,39,40
 226 490 226 490 244.5 464 c 128,-1,41
 263 438 263 438 300 421 c 1,42,43
 365 442 365 442 394 481.5 c 128,-1,44
 423 521 423 521 423 561 c 0,45,46
 423 593 423 593 403 610.5 c 128,-1,47
 383 628 383 628 341 628 c 0,36,37
293 338 m 1,48,49
 262 331 262 331 234.5 317 c 128,-1,50
 207 303 207 303 186 281.5 c 128,-1,51
 165 260 165 260 152.5 230.5 c 128,-1,52
 140 201 140 201 140 164 c 0,53,54
 140 118 140 118 166 95 c 128,-1,55
 192 72 192 72 240 72 c 0,56,57
 271 72 271 72 299 83 c 128,-1,58
 327 94 327 94 347 113.5 c 128,-1,59
 367 133 367 133 379 160 c 128,-1,60
 391 187 391 187 391 218 c 0,61,62
 391 264 391 264 363 294.5 c 128,-1,63
 335 325 335 325 293 338 c 1,48,49
EndSplineSet
EndChar

StartChar: nine
Encoding: 57 57 26
Width: 536
Flags: W
LayerCount: 2
Back
Fore
SplineSet
341 714 m 0,0,1
 374 714 374 714 403.5 705 c 128,-1,2
 433 696 433 696 454.5 674 c 128,-1,3
 476 652 476 652 489 616.5 c 128,-1,4
 502 581 502 581 502 529 c 0,5,6
 502 449 502 449 483.5 378.5 c 128,-1,7
 465 308 465 308 435.5 249 c 128,-1,8
 406 190 406 190 368 144 c 128,-1,9
 330 98 330 98 290.5 66 c 128,-1,10
 251 34 251 34 213.5 17 c 128,-1,11
 176 0 176 0 148 0 c 1,12,-1
 86 38 l 1,13,14
 118 54 118 54 159 78 c 128,-1,15
 200 102 200 102 239.5 137 c 128,-1,16
 279 172 279 172 313.5 220.5 c 128,-1,17
 348 269 348 269 366 336 c 1,18,19
 354 322 354 322 338 311.5 c 128,-1,20
 322 301 322 301 304 293.5 c 128,-1,21
 286 286 286 286 268.5 282.5 c 128,-1,22
 251 279 251 279 236 279 c 0,23,24
 162 279 162 279 119 318 c 128,-1,25
 76 357 76 357 76 437 c 0,26,27
 76 494 76 494 96 544.5 c 128,-1,28
 116 595 116 595 151 632.5 c 128,-1,29
 186 670 186 670 235 692 c 128,-1,30
 284 714 284 714 341 714 c 0,0,1
259 361 m 0,31,32
 287 361 287 361 314 373 c 128,-1,33
 341 385 341 385 362 407 c 128,-1,34
 383 429 383 429 395.5 459.5 c 128,-1,35
 408 490 408 490 408 527 c 0,36,37
 408 553 408 553 400.5 572.5 c 128,-1,38
 393 592 393 592 380 605 c 128,-1,39
 367 618 367 618 351 624.5 c 128,-1,40
 335 631 335 631 317 631 c 0,41,42
 284 631 284 631 257.5 615.5 c 128,-1,43
 231 600 231 600 212.5 575 c 128,-1,44
 194 550 194 550 184 520 c 128,-1,45
 174 490 174 490 174 460 c 0,46,47
 174 443 174 443 178 425 c 128,-1,48
 182 407 182 407 191.5 393 c 128,-1,49
 201 379 201 379 217.5 370 c 128,-1,50
 234 361 234 361 259 361 c 0,31,32
EndSplineSet
EndChar

StartChar: colon
Encoding: 58 58 27
Width: 208
Flags: W
LayerCount: 2
Back
Fore
SplineSet
69 354 m 1,0,-1
 85 440 l 1,1,-1
 175 440 l 1,2,-1
 160 354 l 1,3,-1
 69 354 l 1,0,-1
7 0 m 1,4,-1
 22 86 l 1,5,-1
 113 86 l 1,6,-1
 98 0 l 1,7,-1
 7 0 l 1,4,-1
EndSplineSet
EndChar

StartChar: semicolon
Encoding: 59 59 28
Width: 219
Flags: W
LayerCount: 2
Back
Fore
SplineSet
70 354 m 1,0,-1
 85 440 l 1,1,-1
 186 440 l 1,2,-1
 171 354 l 1,3,-1
 70 354 l 1,0,-1
9 -109 m 1,4,-1
 -10 -96 l 1,5,-1
 36 -9 l 1,6,-1
 8 0 l 1,7,-1
 23 86 l 1,8,-1
 120 86 l 1,9,-1
 104 -1 l 1,10,-1
 9 -109 l 1,4,-1
EndSplineSet
EndChar

StartChar: less
Encoding: 60 60 29
Width: 392
Flags: W
LayerCount: 2
Back
Fore
SplineSet
192 78 m 1,0,-1
 35 284 l 1,1,-1
 265 490 l 1,2,-1
 365 490 l 1,3,-1
 135 284 l 1,4,-1
 292 78 l 1,5,-1
 192 78 l 1,0,-1
EndSplineSet
EndChar

StartChar: equal
Encoding: 61 61 30
Width: 469
Flags: W
LayerCount: 2
Back
Fore
SplineSet
72 318 m 1,0,-1
 85 394 l 1,1,-1
 418 394 l 1,2,-1
 405 318 l 1,3,-1
 72 318 l 1,0,-1
44 160 m 1,4,-1
 57 236 l 1,5,-1
 390 236 l 1,6,-1
 377 160 l 1,7,-1
 44 160 l 1,4,-1
EndSplineSet
EndChar

StartChar: greater
Encoding: 62 62 31
Width: 393
Flags: W
LayerCount: 2
Back
Fore
SplineSet
125 78 m 1,0,-1
 25 78 l 1,1,-1
 255 284 l 1,2,-1
 98 490 l 1,3,-1
 198 490 l 1,4,-1
 355 284 l 1,5,-1
 125 78 l 1,0,-1
EndSplineSet
EndChar

StartChar: question
Encoding: 63 63 32
Width: 418
Flags: W
LayerCount: 2
Back
Fore
SplineSet
140 200 m 1,0,1
 143 239 143 239 145 245 c 0,2,3
 151 279 151 279 167 307 c 128,-1,4
 183 335 183 335 204 361 c 128,-1,5
 225 387 225 387 247 412 c 128,-1,6
 269 437 269 437 288 463.5 c 128,-1,7
 307 490 307 490 319 520 c 128,-1,8
 331 550 331 550 331 586 c 0,9,10
 331 637 331 637 304.5 660.5 c 128,-1,11
 278 684 278 684 243 684 c 0,12,13
 222 684 222 684 202 677 c 128,-1,14
 182 670 182 670 165 659.5 c 128,-1,15
 148 649 148 649 135 637 c 128,-1,16
 122 625 122 625 115 616 c 1,17,-1
 103 683 l 1,18,19
 126 711 126 711 168 730.5 c 128,-1,20
 210 750 210 750 258 750 c 0,21,22
 299 750 299 750 329 735 c 128,-1,23
 359 720 359 720 378.5 697 c 128,-1,24
 398 674 398 674 407 645 c 128,-1,25
 416 616 416 616 416 588 c 0,26,27
 416 553 416 553 402 520 c 128,-1,28
 388 487 388 487 366 456.5 c 128,-1,29
 344 426 344 426 318 396.5 c 128,-1,30
 292 367 292 367 269 339 c 128,-1,31
 246 311 246 311 228 283 c 128,-1,32
 210 255 210 255 205 227 c 2,33,-1
 200 200 l 1,34,-1
 140 200 l 1,0,1
90 0 m 1,35,-1
 105 86 l 1,36,-1
 197 86 l 1,37,-1
 181 0 l 1,38,-1
 90 0 l 1,35,-1
EndSplineSet
EndChar

StartChar: at
Encoding: 64 64 33
Width: 667
Flags: W
LayerCount: 2
Back
Fore
SplineSet
515 379 m 1,0,1
 501 399 501 399 477 415.5 c 128,-1,2
 453 432 453 432 415 432 c 0,3,4
 369 432 369 432 319 404 c 128,-1,5
 269 376 269 376 228 331.5 c 128,-1,6
 187 287 187 287 160 232.5 c 128,-1,7
 133 178 133 178 133 124 c 0,8,9
 133 91 133 91 147.5 65.5 c 128,-1,10
 162 40 162 40 198 40 c 0,11,12
 218 40 218 40 241.5 47.5 c 128,-1,13
 265 55 265 55 289.5 70 c 128,-1,14
 314 85 314 85 337.5 106.5 c 128,-1,15
 361 128 361 128 381 156 c 1,16,17
 379 148 379 148 374.5 135 c 128,-1,18
 370 122 370 122 370 102 c 0,19,20
 370 81 370 81 378.5 61.5 c 128,-1,21
 387 42 387 42 410 42 c 0,22,23
 422 42 422 42 439 47.5 c 128,-1,24
 456 53 456 53 473.5 62 c 128,-1,25
 491 71 491 71 508 82.5 c 128,-1,26
 525 94 525 94 538 106 c 1,27,28
 509 63 509 63 472 27.5 c 128,-1,29
 435 -8 435 -8 392 -33.5 c 128,-1,30
 349 -59 349 -59 302.5 -73 c 128,-1,31
 256 -87 256 -87 209 -87 c 0,32,33
 121 -87 121 -87 73 -34 c 128,-1,34
 25 19 25 19 25 114 c 0,35,36
 25 174 25 174 41.5 230.5 c 128,-1,37
 58 287 58 287 87 335.5 c 128,-1,38
 116 384 116 384 155 424 c 128,-1,39
 194 464 194 464 240 493 c 128,-1,40
 286 522 286 522 336.5 537.5 c 128,-1,41
 387 553 387 553 438 553 c 0,42,43
 529 553 529 553 576.5 499 c 128,-1,44
 624 445 624 445 624 353 c 0,45,46
 624 312 624 312 613.5 266.5 c 128,-1,47
 603 221 603 221 582 182.5 c 128,-1,48
 561 144 561 144 529 119 c 128,-1,49
 497 94 497 94 454 94 c 0,50,51
 440 94 440 94 431 99.5 c 128,-1,52
 422 105 422 105 422 128 c 0,53,54
 422 150 422 150 429.5 174.5 c 128,-1,55
 437 199 437 199 450 229 c 128,-1,56
 463 259 463 259 480 295.5 c 128,-1,57
 497 332 497 332 515 379 c 1,0,1
412 371 m 0,58,59
 420 371 420 371 433 368 c 128,-1,60
 446 365 446 365 449 349 c 1,61,62
 435 309 435 309 409.5 266 c 128,-1,63
 384 223 384 223 353.5 187.5 c 128,-1,64
 323 152 323 152 292.5 129 c 128,-1,65
 262 106 262 106 240 106 c 0,66,67
 223 106 223 106 216 119 c 128,-1,68
 209 132 209 132 209 152 c 0,69,70
 209 196 209 196 230.5 235.5 c 128,-1,71
 252 275 252 275 283.5 305 c 128,-1,72
 315 335 315 335 350 353 c 128,-1,73
 385 371 385 371 412 371 c 0,58,59
EndSplineSet
EndChar

StartChar: A
Encoding: 65 65 34
Width: 568
Flags: W
LayerCount: 2
Back
Fore
SplineSet
410 0 m 1,0,-1
 385 189 l 1,1,-1
 154 189 l 1,2,-1
 63 0 l 1,3,-1
 -37 0 l 1,4,-1
 312 700 l 1,5,-1
 408 700 l 1,6,-1
 510 0 l 1,7,-1
 410 0 l 1,0,-1
336 567 m 1,8,-1
 200 275 l 1,9,-1
 369 275 l 1,10,-1
 336 567 l 1,8,-1
EndSplineSet
EndChar

StartChar: B
Encoding: 66 66 35
Width: 565
Flags: W
LayerCount: 2
Back
Fore
SplineSet
124 0 m 1,0,-1
 28 0 l 1,1,-1
 151 700 l 1,2,-1
 303 700 l 2,3,4
 351 700 351 700 390.5 695 c 128,-1,5
 430 690 430 690 457.5 675.5 c 128,-1,6
 485 661 485 661 500 634.5 c 128,-1,7
 515 608 515 608 515 566 c 0,8,9
 515 529 515 529 510 502 c 128,-1,10
 505 475 505 475 494.5 453.5 c 128,-1,11
 484 432 484 432 468.5 413 c 128,-1,12
 453 394 453 394 432 373 c 1,13,14
 476 352 476 352 494.5 318.5 c 128,-1,15
 513 285 513 285 513 242 c 0,16,17
 513 165 513 165 489 117.5 c 128,-1,18
 465 70 465 70 427.5 44 c 128,-1,19
 390 18 390 18 344 9 c 128,-1,20
 298 0 298 0 253 0 c 2,21,-1
 124 0 l 1,0,-1
231 615 m 1,22,-1
 195 409 l 1,23,-1
 303 409 l 2,24,25
 324 409 324 409 345 412.5 c 128,-1,26
 366 416 366 416 382 429.5 c 128,-1,27
 398 443 398 443 408 470 c 128,-1,28
 418 497 418 497 418 545 c 0,29,30
 418 569 418 569 410.5 583 c 128,-1,31
 403 597 403 597 389.5 604 c 128,-1,32
 376 611 376 611 358 613 c 128,-1,33
 340 615 340 615 319 615 c 2,34,-1
 231 615 l 1,22,-1
180 323 m 1,35,-1
 138 86 l 1,36,-1
 234 86 l 2,37,38
 276 86 276 86 309 90.5 c 128,-1,39
 342 95 342 95 365.5 110 c 128,-1,40
 389 125 389 125 401 153 c 128,-1,41
 413 181 413 181 413 229 c 0,42,43
 413 257 413 257 405 275.5 c 128,-1,44
 397 294 397 294 382.5 304.5 c 128,-1,45
 368 315 368 315 349 319 c 128,-1,46
 330 323 330 323 309 323 c 2,47,-1
 180 323 l 1,35,-1
EndSplineSet
EndChar

StartChar: C
Encoding: 67 67 36
Width: 565
Flags: W
LayerCount: 2
Back
Fore
SplineSet
304 -14 m 0,0,1
 245 -14 245 -14 197.5 6.5 c 128,-1,2
 150 27 150 27 116 65 c 128,-1,3
 82 103 82 103 64 157 c 128,-1,4
 46 211 46 211 46 278 c 0,5,6
 46 375 46 375 77 455 c 128,-1,7
 108 535 108 535 160.5 592.5 c 128,-1,8
 213 650 213 650 283.5 682 c 128,-1,9
 354 714 354 714 432 714 c 0,10,11
 480 714 480 714 525.5 702 c 128,-1,12
 571 690 571 690 601 673 c 1,13,-1
 575 585 l 1,14,15
 540 599 540 599 503 613.5 c 128,-1,16
 466 628 466 628 417 628 c 0,17,18
 355 628 355 628 305.5 599.5 c 128,-1,19
 256 571 256 571 221.5 523.5 c 128,-1,20
 187 476 187 476 169 414.5 c 128,-1,21
 151 353 151 353 151 286 c 0,22,23
 151 241 151 241 161 201.5 c 128,-1,24
 171 162 171 162 192 133.5 c 128,-1,25
 213 105 213 105 245 88.5 c 128,-1,26
 277 72 277 72 320 72 c 0,27,28
 368 72 368 72 409.5 86 c 128,-1,29
 451 100 451 100 492 114 c 1,30,-1
 486 26 l 1,31,32
 449 9 449 9 400.5 -2.5 c 128,-1,33
 352 -14 352 -14 304 -14 c 0,0,1
EndSplineSet
EndChar

StartChar: D
Encoding: 68 68 37
Width: 672
Flags: W
LayerCount: 2
Back
Fore
SplineSet
123 0 m 1,0,-1
 28 0 l 1,1,-1
 151 700 l 1,2,-1
 385 700 l 2,3,4
 444 700 444 700 492 681 c 128,-1,5
 540 662 540 662 573.5 626 c 128,-1,6
 607 590 607 590 625.5 538 c 128,-1,7
 644 486 644 486 644 420 c 0,8,9
 644 324 644 324 614 246 c 128,-1,10
 584 168 584 168 532 113.5 c 128,-1,11
 480 59 480 59 410.5 29.5 c 128,-1,12
 341 0 341 0 262 0 c 2,13,-1
 123 0 l 1,0,-1
231 614 m 1,14,-1
 138 86 l 1,15,-1
 277 86 l 2,16,17
 340 86 340 86 388.5 111.5 c 128,-1,18
 437 137 437 137 470.5 181.5 c 128,-1,19
 504 226 504 226 521.5 285.5 c 128,-1,20
 539 345 539 345 539 413 c 0,21,22
 539 503 539 503 497 558.5 c 128,-1,23
 455 614 455 614 370 614 c 2,24,-1
 231 614 l 1,14,-1
EndSplineSet
EndChar

StartChar: E
Encoding: 69 69 38
Width: 514
Flags: W
LayerCount: 2
Back
Fore
SplineSet
125 0 m 1,0,-1
 28 0 l 1,1,-1
 151 700 l 1,2,-1
 542 700 l 1,3,-1
 527 614 l 1,4,-1
 232 614 l 1,5,-1
 196 409 l 1,6,-1
 428 409 l 1,7,-1
 413 323 l 1,8,-1
 181 323 l 1,9,-1
 139 86 l 1,10,-1
 442 86 l 1,11,-1
 427 0 l 1,12,-1
 125 0 l 1,0,-1
EndSplineSet
EndChar

StartChar: F
Encoding: 70 70 39
Width: 487
Flags: W
LayerCount: 2
Back
Fore
SplineSet
231 614 m 1,0,-1
 195 409 l 1,1,-1
 419 409 l 1,2,-1
 404 323 l 1,3,-1
 180 323 l 1,4,-1
 123 0 l 1,5,-1
 28 0 l 1,6,-1
 151 700 l 1,7,-1
 537 700 l 1,8,-1
 522 614 l 1,9,-1
 231 614 l 1,0,-1
EndSplineSet
EndChar

StartChar: G
Encoding: 71 71 40
Width: 621
Flags: W
LayerCount: 2
Back
Fore
SplineSet
299 -14 m 0,0,1
 242 -14 242 -14 195.5 6.5 c 128,-1,2
 149 27 149 27 116 65.5 c 128,-1,3
 83 104 83 104 65 158 c 128,-1,4
 47 212 47 212 47 279 c 0,5,6
 47 375 47 375 77.5 455 c 128,-1,7
 108 535 108 535 160.5 592.5 c 128,-1,8
 213 650 213 650 283.5 682 c 128,-1,9
 354 714 354 714 434 714 c 0,10,11
 457 714 457 714 482.5 711 c 128,-1,12
 508 708 508 708 532 702.5 c 128,-1,13
 556 697 556 697 577.5 690 c 128,-1,14
 599 683 599 683 615 674 c 1,15,-1
 591 591 l 1,16,17
 555 606 555 606 510 617 c 128,-1,18
 465 628 465 628 422 628 c 0,19,20
 355 628 355 628 304 599 c 128,-1,21
 253 570 253 570 219 522 c 128,-1,22
 185 474 185 474 168 412 c 128,-1,23
 151 350 151 350 151 285 c 0,24,25
 151 239 151 239 162 200 c 128,-1,26
 173 161 173 161 195.5 132.5 c 128,-1,27
 218 104 218 104 253 88 c 128,-1,28
 288 72 288 72 335 72 c 0,29,30
 355 72 355 72 383.5 76 c 128,-1,31
 412 80 412 80 438 91 c 1,32,-1
 469 265 l 1,33,-1
 379 265 l 1,34,-1
 394 351 l 1,35,-1
 579 351 l 1,36,-1
 564 265 l 1,37,-1
 524 39 l 1,38,39
 504 28 504 28 476.5 18.5 c 128,-1,40
 449 9 449 9 418.5 1.5 c 128,-1,41
 388 -6 388 -6 357 -10 c 128,-1,42
 326 -14 326 -14 299 -14 c 0,0,1
EndSplineSet
EndChar

StartChar: H
Encoding: 72 72 41
Width: 688
Flags: W
LayerCount: 2
Back
Fore
SplineSet
460 0 m 1,0,-1
 517 321 l 1,1,-1
 180 321 l 1,2,-1
 123 0 l 1,3,-1
 28 0 l 1,4,-1
 151 700 l 1,5,-1
 246 700 l 1,6,-1
 195 411 l 1,7,-1
 533 411 l 1,8,-1
 584 700 l 1,9,-1
 679 700 l 1,10,-1
 555 0 l 1,11,-1
 460 0 l 1,0,-1
EndSplineSet
EndChar

StartChar: I
Encoding: 73 73 42
Width: 255
Flags: W
LayerCount: 2
Back
Fore
SplineSet
28 0 m 1,0,-1
 151 700 l 1,1,-1
 246 700 l 1,2,-1
 123 0 l 1,3,-1
 28 0 l 1,0,-1
EndSplineSet
EndChar

StartChar: J
Encoding: 74 74 43
Width: 256
Flags: W
LayerCount: 2
Back
Fore
SplineSet
-76 -172 m 1,0,-1
 -74 -116 l 1,1,-1
 -65 -116 l 2,2,3
 -43 -116 -43 -116 -27.5 -109.5 c 128,-1,4
 -12 -103 -12 -103 -1.5 -89 c 128,-1,5
 9 -75 9 -75 16 -53.5 c 128,-1,6
 23 -32 23 -32 28 -3 c 2,7,-1
 152 700 l 1,8,-1
 247 700 l 1,9,-1
 118 -32 l 2,10,11
 106 -100 106 -100 63 -136 c 128,-1,12
 20 -172 20 -172 -55 -172 c 2,13,-1
 -76 -172 l 1,0,-1
EndSplineSet
EndChar

StartChar: K
Encoding: 75 75 44
Width: 547
Flags: W
LayerCount: 2
Back
Fore
SplineSet
383 0 m 1,0,-1
 219 371 l 1,1,-1
 506 700 l 1,2,-1
 609 700 l 1,3,-1
 322 371 l 1,4,-1
 486 0 l 1,5,-1
 383 0 l 1,0,-1
28 0 m 1,6,-1
 151 700 l 1,7,-1
 246 700 l 1,8,-1
 123 0 l 1,9,-1
 28 0 l 1,6,-1
EndSplineSet
EndChar

StartChar: L
Encoding: 76 76 45
Width: 467
Flags: W
LayerCount: 2
Back
Fore
SplineSet
28 0 m 1,0,-1
 151 700 l 1,1,-1
 246 700 l 1,2,-1
 138 86 l 1,3,-1
 418 86 l 1,4,-1
 402 0 l 1,5,-1
 28 0 l 1,0,-1
EndSplineSet
EndChar

StartChar: M
Encoding: 77 77 46
Width: 752
Flags: W
LayerCount: 2
Back
Fore
SplineSet
550 0 m 1,0,-1
 589 512 l 1,1,-1
 351 149 l 1,2,-1
 238 512 l 1,3,-1
 97 0 l 1,4,-1
 -3 0 l 1,5,-1
 200 700 l 1,6,-1
 280 700 l 1,7,-1
 383 336 l 1,8,-1
 614 700 l 1,9,-1
 694 700 l 1,10,-1
 650 0 l 1,11,-1
 550 0 l 1,0,-1
EndSplineSet
EndChar

StartChar: N
Encoding: 78 78 47
Width: 653
Flags: W
LayerCount: 2
Back
Fore
SplineSet
440 0 m 1,0,-1
 221 553 l 1,1,-1
 123 0 l 1,2,-1
 28 0 l 1,3,-1
 151 700 l 1,4,-1
 251 700 l 1,5,-1
 456 176 l 1,6,-1
 548 700 l 1,7,-1
 644 700 l 1,8,-1
 520 0 l 1,9,-1
 440 0 l 1,0,-1
EndSplineSet
EndChar

StartChar: O
Encoding: 79 79 48
Width: 710
Flags: W
LayerCount: 2
Back
Fore
SplineSet
300 -14 m 0,0,1
 242 -14 242 -14 195 6.5 c 128,-1,2
 148 27 148 27 115 65 c 128,-1,3
 82 103 82 103 64 157 c 128,-1,4
 46 211 46 211 46 277 c 0,5,6
 46 374 46 374 76.5 454 c 128,-1,7
 107 534 107 534 159 592 c 128,-1,8
 211 650 211 650 281 682 c 128,-1,9
 351 714 351 714 429 714 c 0,10,11
 487 714 487 714 534 693.5 c 128,-1,12
 581 673 581 673 614 635 c 128,-1,13
 647 597 647 597 665 543 c 128,-1,14
 683 489 683 489 683 423 c 0,15,16
 683 326 683 326 652.5 245.5 c 128,-1,17
 622 165 622 165 569.5 107.5 c 128,-1,18
 517 50 517 50 447.5 18 c 128,-1,19
 378 -14 378 -14 300 -14 c 0,0,1
414 628 m 0,20,21
 352 628 352 628 303 599.5 c 128,-1,22
 254 571 254 571 220 523 c 128,-1,23
 186 475 186 475 168.5 413 c 128,-1,24
 151 351 151 351 151 285 c 0,25,26
 151 240 151 240 161 201 c 128,-1,27
 171 162 171 162 191 133.5 c 128,-1,28
 211 105 211 105 242.5 88.5 c 128,-1,29
 274 72 274 72 316 72 c 0,30,31
 378 72 378 72 427 100.5 c 128,-1,32
 476 129 476 129 509.5 177 c 128,-1,33
 543 225 543 225 561 287 c 128,-1,34
 579 349 579 349 579 415 c 0,35,36
 579 460 579 460 569 499 c 128,-1,37
 559 538 559 538 538.5 566.5 c 128,-1,38
 518 595 518 595 487 611.5 c 128,-1,39
 456 628 456 628 414 628 c 0,20,21
EndSplineSet
EndChar

StartChar: P
Encoding: 80 80 49
Width: 538
Flags: W
LayerCount: 2
Back
Fore
SplineSet
169 245 m 1,0,-1
 126 0 l 1,1,-1
 28 0 l 1,2,-1
 151 700 l 1,3,-1
 346 700 l 2,4,5
 390 700 390 700 427 694 c 128,-1,6
 464 688 464 688 491 670.5 c 128,-1,7
 518 653 518 653 533.5 621.5 c 128,-1,8
 549 590 549 590 549 538 c 0,9,10
 549 454 549 454 523.5 397.5 c 128,-1,11
 498 341 498 341 460.5 307.5 c 128,-1,12
 423 274 423 274 379 259.5 c 128,-1,13
 335 245 335 245 298 245 c 2,14,-1
 169 245 l 1,0,-1
235 615 m 1,15,-1
 184 330 l 1,16,-1
 297 330 l 2,17,18
 340 330 340 330 369 345 c 128,-1,19
 398 360 398 360 416 386 c 128,-1,20
 434 412 434 412 441.5 446 c 128,-1,21
 449 480 449 480 449 519 c 0,22,23
 449 571 449 571 422 593 c 128,-1,24
 395 615 395 615 330 615 c 2,25,-1
 235 615 l 1,15,-1
EndSplineSet
EndChar

StartChar: Q
Encoding: 81 81 50
Width: 709
Flags: W
LayerCount: 2
Back
Fore
SplineSet
553 3 m 1,0,-1
 503 57 l 1,1,2
 453 20 453 20 403 3 c 128,-1,3
 353 -14 353 -14 300 -14 c 0,4,5
 242 -14 242 -14 195 6.5 c 128,-1,6
 148 27 148 27 115 65 c 128,-1,7
 82 103 82 103 64 157 c 128,-1,8
 46 211 46 211 46 277 c 0,9,10
 46 374 46 374 76.5 454 c 128,-1,11
 107 534 107 534 159 592 c 128,-1,12
 211 650 211 650 281 682 c 128,-1,13
 351 714 351 714 429 714 c 0,14,15
 487 714 487 714 534 693.5 c 128,-1,16
 581 673 581 673 614 635 c 128,-1,17
 647 597 647 597 665 543 c 128,-1,18
 683 489 683 489 683 423 c 0,19,20
 683 340 683 340 656 266 c 128,-1,21
 629 192 629 192 570 111 c 1,22,-1
 616 62 l 1,23,-1
 553 3 l 1,0,-1
414 628 m 0,24,25
 351 628 351 628 302 599.5 c 128,-1,26
 253 571 253 571 219.5 523 c 128,-1,27
 186 475 186 475 168.5 413 c 128,-1,28
 151 351 151 351 151 284 c 0,29,30
 151 239 151 239 160.5 200 c 128,-1,31
 170 161 170 161 190.5 132.5 c 128,-1,32
 211 104 211 104 242 88 c 128,-1,33
 273 72 273 72 316 72 c 0,34,35
 345 72 345 72 378.5 79.5 c 128,-1,36
 412 87 412 87 444 112 c 1,37,-1
 371 196 l 1,38,-1
 434 257 l 1,39,-1
 507 164 l 1,40,41
 524 190 524 190 538 215.5 c 128,-1,42
 552 241 552 241 562.5 270 c 128,-1,43
 573 299 573 299 578.5 333.5 c 128,-1,44
 584 368 584 368 584 413 c 0,45,46
 584 459 584 459 573.5 498 c 128,-1,47
 563 537 563 537 542 566 c 128,-1,48
 521 595 521 595 489 611.5 c 128,-1,49
 457 628 457 628 414 628 c 0,24,25
EndSplineSet
EndChar

StartChar: R
Encoding: 82 82 51
Width: 565
Flags: W
LayerCount: 2
Back
Fore
SplineSet
390 0 m 1,0,-1
 302 273 l 1,1,-1
 174 273 l 1,2,-1
 126 0 l 1,3,-1
 28 0 l 1,4,-1
 151 700 l 1,5,-1
 364 700 l 2,6,7
 406 700 406 700 440 692 c 128,-1,8
 474 684 474 684 499 665.5 c 128,-1,9
 524 647 524 647 537.5 617 c 128,-1,10
 551 587 551 587 551 542 c 0,11,12
 551 457 551 457 507.5 394.5 c 128,-1,13
 464 332 464 332 398 298 c 1,14,-1
 491 0 l 1,15,-1
 390 0 l 1,0,-1
236 623 m 1,16,-1
 190 365 l 1,17,-1
 310 365 l 2,18,19
 340 365 340 365 365.5 373.5 c 128,-1,20
 391 382 391 382 409.5 401.5 c 128,-1,21
 428 421 428 421 439 451 c 128,-1,22
 450 481 450 481 450 525 c 0,23,24
 450 571 450 571 424.5 597 c 128,-1,25
 399 623 399 623 342 623 c 2,26,-1
 236 623 l 1,16,-1
EndSplineSet
EndChar

StartChar: S
Encoding: 83 83 52
Width: 538
Flags: W
LayerCount: 2
Back
Fore
SplineSet
205 -14 m 0,0,1
 142 -14 142 -14 88.5 -1.5 c 128,-1,2
 35 11 35 11 6 31 c 1,3,-1
 38 142 l 1,4,5
 67 109 67 109 115.5 90.5 c 128,-1,6
 164 72 164 72 224 72 c 0,7,8
 295 72 295 72 338 105.5 c 128,-1,9
 381 139 381 139 381 195 c 0,10,11
 381 217 381 217 371 233 c 128,-1,12
 361 249 361 249 343.5 263 c 128,-1,13
 326 277 326 277 301 289.5 c 128,-1,14
 276 302 276 302 246 317 c 0,15,16
 209 335 209 335 178.5 351.5 c 128,-1,17
 148 368 148 368 125.5 387 c 128,-1,18
 103 406 103 406 90.5 429.5 c 128,-1,19
 78 453 78 453 78 485 c 0,20,21
 78 533 78 533 96 575 c 128,-1,22
 114 617 114 617 148.5 647.5 c 128,-1,23
 183 678 183 678 232 696 c 128,-1,24
 281 714 281 714 343 714 c 0,25,26
 370 714 370 714 398 710.5 c 128,-1,27
 426 707 426 707 451.5 700.5 c 128,-1,28
 477 694 477 694 498.5 685 c 128,-1,29
 520 676 520 676 534 666 c 1,30,-1
 504 569 l 1,31,32
 456 601 456 601 415.5 614.5 c 128,-1,33
 375 628 375 628 334 628 c 0,34,35
 305 628 305 628 277.5 619.5 c 128,-1,36
 250 611 250 611 229 595 c 128,-1,37
 208 579 208 579 195.5 557.5 c 128,-1,38
 183 536 183 536 183 510 c 0,39,40
 183 490 183 490 192 475 c 128,-1,41
 201 460 201 460 217 448.5 c 128,-1,42
 233 437 233 437 253.5 427.5 c 128,-1,43
 274 418 274 418 297 408 c 0,44,45
 335 391 335 391 370 374.5 c 128,-1,46
 405 358 405 358 431.5 336.5 c 128,-1,47
 458 315 458 315 473.5 286 c 128,-1,48
 489 257 489 257 489 216 c 0,49,50
 489 165 489 165 474 122.5 c 128,-1,51
 459 80 459 80 425 49.5 c 128,-1,52
 391 19 391 19 337 2.5 c 128,-1,53
 283 -14 283 -14 205 -14 c 0,0,1
EndSplineSet
EndChar

StartChar: T
Encoding: 84 84 53
Width: 523
Flags: W
LayerCount: 2
Back
Fore
SplineSet
364 614 m 1,0,-1
 256 0 l 1,1,-1
 161 0 l 1,2,-1
 269 614 l 1,3,-1
 87 614 l 1,4,-1
 102 700 l 1,5,-1
 561 700 l 1,6,-1
 546 614 l 1,7,-1
 364 614 l 1,0,-1
EndSplineSet
EndChar

StartChar: U
Encoding: 85 85 54
Width: 668
Flags: W
LayerCount: 2
Back
Fore
SplineSet
280 -14 m 0,0,1
 169 -14 169 -14 117 43.5 c 128,-1,2
 65 101 65 101 65 204 c 0,3,4
 65 247 65 247 74 297 c 2,5,-1
 145 700 l 1,6,-1
 240 700 l 1,7,-1
 177 343 l 2,8,9
 172 313 172 313 168.5 284.5 c 128,-1,10
 165 256 165 256 165 229 c 0,11,12
 165 196 165 196 171 167 c 128,-1,13
 177 138 177 138 192 117 c 128,-1,14
 207 96 207 96 232 84 c 128,-1,15
 257 72 257 72 295 72 c 0,16,17
 348 72 348 72 384.5 95 c 128,-1,18
 421 118 421 118 446 156 c 128,-1,19
 471 194 471 194 485.5 243 c 128,-1,20
 500 292 500 292 509 343 c 2,21,-1
 572 700 l 1,22,-1
 667 700 l 1,23,-1
 596 297 l 2,24,25
 583 225 583 225 557 167.5 c 128,-1,26
 531 110 531 110 491.5 69.5 c 128,-1,27
 452 29 452 29 399 7.5 c 128,-1,28
 346 -14 346 -14 280 -14 c 0,0,1
EndSplineSet
EndChar

StartChar: V
Encoding: 86 86 55
Width: 595
Flags: W
LayerCount: 2
Back
Fore
SplineSet
294 0 m 1,0,-1
 188 0 l 1,1,-1
 75 700 l 1,2,-1
 175 700 l 1,3,-1
 261 109 l 1,4,-1
 553 700 l 1,5,-1
 653 700 l 1,6,-1
 294 0 l 1,0,-1
EndSplineSet
EndChar

StartChar: W
Encoding: 87 87 56
Width: 889
Flags: W
LayerCount: 2
Back
Fore
SplineSet
637 0 m 1,0,-1
 541 0 l 1,1,-1
 496 574 l 1,2,-1
 245 0 l 1,3,-1
 146 0 l 1,4,-1
 93 700 l 1,5,-1
 193 700 l 1,6,-1
 222 118 l 1,7,-1
 477 686 l 1,8,-1
 556 686 l 1,9,-1
 608 119 l 1,10,-1
 846 700 l 1,11,-1
 945 700 l 1,12,-1
 637 0 l 1,0,-1
EndSplineSet
EndChar

StartChar: X
Encoding: 88 88 57
Width: 562
Flags: W
LayerCount: 2
Back
Fore
SplineSet
397 0 m 1,0,-1
 274 286 l 1,1,-1
 65 0 l 1,2,-1
 -39 0 l 1,3,-1
 237 349 l 1,4,-1
 88 700 l 1,5,-1
 198 700 l 1,6,-1
 306 427 l 1,7,-1
 516 700 l 1,8,-1
 619 700 l 1,9,-1
 340 361 l 1,10,-1
 500 0 l 1,11,-1
 397 0 l 1,0,-1
EndSplineSet
EndChar

StartChar: Y
Encoding: 89 89 58
Width: 546
Flags: W
LayerCount: 2
Back
Fore
SplineSet
324 323 m 1,0,-1
 267 0 l 1,1,-1
 169 0 l 1,2,-1
 226 323 l 1,3,-1
 78 700 l 1,4,-1
 178 700 l 1,5,-1
 290 409 l 1,6,-1
 504 700 l 1,7,-1
 604 700 l 1,8,-1
 324 323 l 1,0,-1
EndSplineSet
EndChar

StartChar: Z
Encoding: 90 90 59
Width: 500
Flags: W
LayerCount: 2
Back
Fore
SplineSet
130 86 m 1,0,-1
 413 86 l 1,1,-1
 398 0 l 1,2,-1
 -41 0 l 1,3,-1
 390 614 l 1,4,-1
 108 614 l 1,5,-1
 123 700 l 1,6,-1
 562 700 l 1,7,-1
 130 86 l 1,0,-1
EndSplineSet
EndChar

StartChar: bracketleft
Encoding: 91 91 60
Width: 306
Flags: W
LayerCount: 2
Back
Fore
SplineSet
79 -135 m 1,0,-1
 -4 -135 l 1,1,-1
 152 750 l 1,2,-1
 383 750 l 1,3,-1
 371 682 l 1,4,-1
 223 682 l 1,5,-1
 91 -67 l 1,6,-1
 239 -67 l 1,7,-1
 227 -135 l 1,8,-1
 79 -135 l 1,0,-1
EndSplineSet
EndChar

StartChar: backslash
Encoding: 92 92 61
Width: 488
Flags: W
LayerCount: 2
Back
Fore
SplineSet
304 -85 m 1,0,-1
 106 700 l 1,1,-1
 202 700 l 1,2,-1
 400 -85 l 1,3,-1
 304 -85 l 1,0,-1
EndSplineSet
EndChar

StartChar: bracketright
Encoding: 93 93 62
Width: 306
Flags: W
LayerCount: 2
Back
Fore
SplineSet
224 750 m 1,0,-1
 307 750 l 1,1,-1
 151 -135 l 1,2,-1
 -80 -135 l 1,3,-1
 -68 -67 l 1,4,-1
 80 -67 l 1,5,-1
 212 682 l 1,6,-1
 64 682 l 1,7,-1
 76 750 l 1,8,-1
 224 750 l 1,0,-1
EndSplineSet
EndChar

StartChar: asciicircum
Encoding: 94 94 63
Width: 459
Flags: W
LayerCount: 2
Back
Fore
SplineSet
344 653 m 1,0,-1
 121 437 l 1,1,-1
 140 543 l 1,2,-1
 363 759 l 1,3,-1
 510 543 l 1,4,-1
 492 437 l 1,5,-1
 344 653 l 1,0,-1
EndSplineSet
EndChar

StartChar: underscore
Encoding: 95 95 64
Width: 511
Flags: W
LayerCount: 2
Back
Fore
SplineSet
-70 -122 m 1,0,-1
 -55 -36 l 1,1,-1
 449 -36 l 1,2,-1
 434 -122 l 1,3,-1
 -70 -122 l 1,0,-1
EndSplineSet
EndChar

StartChar: grave
Encoding: 96 96 65
Width: 273
Flags: W
LayerCount: 2
Back
Fore
SplineSet
169 660 m 1,0,-1
 182 732 l 1,1,-1
 333 637 l 1,2,-1
 326 596 l 1,3,-1
 169 660 l 1,0,-1
EndSplineSet
EndChar

StartChar: a
Encoding: 97 97 66
Width: 540
Flags: W
LayerCount: 2
Back
Fore
SplineSet
433 143 m 2,0,1
 431 131 431 131 430 121 c 128,-1,2
 429 111 429 111 429 104 c 0,3,4
 429 80 429 80 439.5 71 c 128,-1,5
 450 62 450 62 476 62 c 1,6,-1
 451 -10 l 1,7,8
 430 -10 430 -10 411.5 -8.5 c 128,-1,9
 393 -7 393 -7 378 0 c 128,-1,10
 363 7 363 7 352.5 21.5 c 128,-1,11
 342 36 342 36 337 62 c 1,12,13
 307 27 307 27 265.5 8.5 c 128,-1,14
 224 -10 224 -10 184 -10 c 0,15,16
 147 -10 147 -10 117 5.5 c 128,-1,17
 87 21 87 21 65.5 49 c 128,-1,18
 44 77 44 77 32.5 114.5 c 128,-1,19
 21 152 21 152 21 196 c 0,20,21
 21 253 21 253 40 308 c 128,-1,22
 59 363 59 363 93.5 405.5 c 128,-1,23
 128 448 128 448 175.5 474 c 128,-1,24
 223 500 223 500 279 500 c 0,25,26
 310 500 310 500 341.5 488 c 128,-1,27
 373 476 373 476 393 438 c 1,28,-1
 412 490 l 1,29,-1
 492 490 l 1,30,-1
 433 143 l 2,0,1
269 420 m 0,31,32
 236 420 236 420 208 402.5 c 128,-1,33
 180 385 180 385 159 355.5 c 128,-1,34
 138 326 138 326 126.5 287 c 128,-1,35
 115 248 115 248 115 205 c 0,36,37
 115 177 115 177 120.5 152.5 c 128,-1,38
 126 128 126 128 138 109.5 c 128,-1,39
 150 91 150 91 169 80.5 c 128,-1,40
 188 70 188 70 214 70 c 0,41,42
 242 70 242 70 270.5 83.5 c 128,-1,43
 299 97 299 97 321 123 c 128,-1,44
 343 149 343 149 357 187.5 c 128,-1,45
 371 226 371 226 371 277 c 0,46,47
 371 352 371 352 342 386 c 128,-1,48
 313 420 313 420 269 420 c 0,31,32
EndSplineSet
Substitution2: "'smcp' Lowercase to Small Capitals in Latin lookup 1 subtable" A.sc
Substitution2: "'aalt' Access All Alternates in Latin lookup 0 subtable" A.sc
EndChar

StartChar: b
Encoding: 98 98 67
Width: 520
Flags: W
LayerCount: 2
Back
Fore
SplineSet
225 -10 m 0,0,1
 193 -10 193 -10 160.5 8 c 128,-1,2
 128 26 128 26 110 62 c 1,3,-1
 92 0 l 1,4,-1
 10 0 l 1,5,-1
 142 750 l 1,6,-1
 233 750 l 1,7,-1
 178 437 l 1,8,9
 211 475 211 475 247.5 487.5 c 128,-1,10
 284 500 284 500 316 500 c 0,11,12
 357 500 357 500 388 483.5 c 128,-1,13
 419 467 419 467 440 438.5 c 128,-1,14
 461 410 461 410 471.5 373 c 128,-1,15
 482 336 482 336 482 294 c 0,16,17
 482 232 482 232 461.5 177 c 128,-1,18
 441 122 441 122 406 80.5 c 128,-1,19
 371 39 371 39 324.5 14.5 c 128,-1,20
 278 -10 278 -10 225 -10 c 0,0,1
293 420 m 0,21,22
 262 420 262 420 233.5 405.5 c 128,-1,23
 205 391 205 391 183 363.5 c 128,-1,24
 161 336 161 336 147.5 294.5 c 128,-1,25
 134 253 134 253 134 199 c 0,26,27
 134 132 134 132 161.5 101 c 128,-1,28
 189 70 189 70 231 70 c 0,29,30
 265 70 265 70 293.5 88 c 128,-1,31
 322 106 322 106 343 136 c 128,-1,32
 364 166 364 166 376 205 c 128,-1,33
 388 244 388 244 388 286 c 0,34,35
 388 344 388 344 364 382 c 128,-1,36
 340 420 340 420 293 420 c 0,21,22
EndSplineSet
Substitution2: "'smcp' Lowercase to Small Capitals in Latin lookup 1 subtable" B.sc
Substitution2: "'aalt' Access All Alternates in Latin lookup 0 subtable" B.sc
EndChar

StartChar: c
Encoding: 99 99 68
Width: 418
Flags: W
LayerCount: 2
Back
Fore
SplineSet
203 -10 m 0,0,1
 157 -10 157 -10 123 6.5 c 128,-1,2
 89 23 89 23 67 50.5 c 128,-1,3
 45 78 45 78 34 115.5 c 128,-1,4
 23 153 23 153 23 195 c 0,5,6
 23 255 23 255 40.5 310 c 128,-1,7
 58 365 58 365 92.5 407.5 c 128,-1,8
 127 450 127 450 177 475 c 128,-1,9
 227 500 227 500 292 500 c 0,10,11
 343 500 343 500 373.5 491.5 c 128,-1,12
 404 483 404 483 423 471 c 1,13,-1
 397 390 l 1,14,15
 372 404 372 404 345.5 412 c 128,-1,16
 319 420 319 420 287 420 c 0,17,18
 245 420 245 420 213 403.5 c 128,-1,19
 181 387 181 387 159.5 357.5 c 128,-1,20
 138 328 138 328 127 288 c 128,-1,21
 116 248 116 248 116 201 c 0,22,23
 116 141 116 141 143 105 c 128,-1,24
 170 69 170 69 225 69 c 0,25,26
 257 69 257 69 287.5 77 c 128,-1,27
 318 85 318 85 347 99 c 1,28,-1
 344 27 l 1,29,30
 321 13 321 13 288.5 1.5 c 128,-1,31
 256 -10 256 -10 203 -10 c 0,0,1
EndSplineSet
Substitution2: "'smcp' Lowercase to Small Capitals in Latin lookup 1 subtable" C.sc
Substitution2: "'aalt' Access All Alternates in Latin lookup 0 subtable" C.sc
EndChar

StartChar: d
Encoding: 100 100 69
Width: 520
Flags: W
LayerCount: 2
Back
Fore
SplineSet
324 0 m 1,0,-1
 328 62 l 1,1,2
 297 26 297 26 258.5 8 c 128,-1,3
 220 -10 220 -10 188 -10 c 0,4,5
 149 -10 149 -10 118 5.5 c 128,-1,6
 87 21 87 21 65.5 49 c 128,-1,7
 44 77 44 77 32.5 114.5 c 128,-1,8
 21 152 21 152 21 196 c 0,9,10
 21 253 21 253 40 308 c 128,-1,11
 59 363 59 363 93.5 405.5 c 128,-1,12
 128 448 128 448 175 474 c 128,-1,13
 222 500 222 500 278 500 c 0,14,15
 310 500 310 500 341.5 488 c 128,-1,16
 373 476 373 476 393 438 c 1,17,-1
 448 750 l 1,18,-1
 539 750 l 1,19,-1
 407 0 l 1,20,-1
 324 0 l 1,0,-1
271 420 m 0,21,22
 237 420 237 420 208.5 402.5 c 128,-1,23
 180 385 180 385 159 355.5 c 128,-1,24
 138 326 138 326 126.5 287 c 128,-1,25
 115 248 115 248 115 205 c 0,26,27
 115 177 115 177 121 152.5 c 128,-1,28
 127 128 127 128 139 109.5 c 128,-1,29
 151 91 151 91 168.5 80.5 c 128,-1,30
 186 70 186 70 209 70 c 0,31,32
 239 70 239 70 268.5 82.5 c 128,-1,33
 298 95 298 95 320.5 121.5 c 128,-1,34
 343 148 343 148 357 188 c 128,-1,35
 371 228 371 228 371 284 c 0,36,37
 371 351 371 351 342 385.5 c 128,-1,38
 313 420 313 420 271 420 c 0,21,22
EndSplineSet
Substitution2: "'smcp' Lowercase to Small Capitals in Latin lookup 1 subtable" D.sc
Substitution2: "'aalt' Access All Alternates in Latin lookup 0 subtable" D.sc
EndChar

StartChar: e
Encoding: 101 101 70
Width: 458
Flags: W
LayerCount: 2
Back
Fore
SplineSet
434 375 m 0,0,1
 434 347 434 347 423 318 c 128,-1,2
 412 289 412 289 386 265 c 128,-1,3
 360 241 360 241 316 225.5 c 128,-1,4
 272 210 272 210 206 210 c 0,5,6
 175 210 175 210 152 213 c 128,-1,7
 129 216 129 216 118 218 c 1,8,9
 118 174 118 174 128 145 c 128,-1,10
 138 116 138 116 155 99.5 c 128,-1,11
 172 83 172 83 195 76.5 c 128,-1,12
 218 70 218 70 245 70 c 0,13,14
 274 70 274 70 311 77 c 128,-1,15
 348 84 348 84 380 99 c 1,16,-1
 376 28 l 1,17,18
 348 15 348 15 308.5 2.5 c 128,-1,19
 269 -10 269 -10 221 -10 c 0,20,21
 170 -10 170 -10 132.5 6.5 c 128,-1,22
 95 23 95 23 70 51.5 c 128,-1,23
 45 80 45 80 33 118.5 c 128,-1,24
 21 157 21 157 21 202 c 0,25,26
 21 260 21 260 40 314 c 128,-1,27
 59 368 59 368 94.5 409 c 128,-1,28
 130 450 130 450 179 475 c 128,-1,29
 228 500 228 500 288 500 c 0,30,31
 360 500 360 500 397 465.5 c 128,-1,32
 434 431 434 431 434 375 c 0,0,1
279 420 m 0,33,34
 232 420 232 420 193 387 c 128,-1,35
 154 354 154 354 128 281 c 1,36,37
 136 280 136 280 141.5 278 c 128,-1,38
 147 276 147 276 154 274.5 c 128,-1,39
 161 273 161 273 171 272 c 128,-1,40
 181 271 181 271 198 271 c 0,41,42
 243 271 243 271 272.5 280 c 128,-1,43
 302 289 302 289 319.5 302.5 c 128,-1,44
 337 316 337 316 344 332.5 c 128,-1,45
 351 349 351 349 351 364 c 0,46,47
 351 394 351 394 329.5 407 c 128,-1,48
 308 420 308 420 279 420 c 0,33,34
EndSplineSet
Substitution2: "'smcp' Lowercase to Small Capitals in Latin lookup 1 subtable" E.sc
Substitution2: "'aalt' Access All Alternates in Latin lookup 0 subtable" E.sc
EndChar

StartChar: f
Encoding: 102 102 71
Width: 303
Flags: W
LayerCount: 2
Back
Fore
SplineSet
199 420 m 1,0,-1
 125 0 l 1,1,-1
 34 0 l 1,2,-1
 108 420 l 1,3,-1
 36 420 l 1,4,-1
 58 490 l 1,5,-1
 120 490 l 1,6,-1
 142 614 l 2,7,8
 153 674 153 674 185.5 712 c 128,-1,9
 218 750 218 750 271 750 c 0,10,11
 291 750 291 750 304.5 749 c 128,-1,12
 318 748 318 748 328 746.5 c 128,-1,13
 338 745 338 745 346 742.5 c 128,-1,14
 354 740 354 740 363 737 c 1,15,-1
 338 661 l 1,16,17
 324 666 324 666 311.5 668 c 128,-1,18
 299 670 299 670 288 670 c 0,19,20
 273 670 273 670 263.5 665.5 c 128,-1,21
 254 661 254 661 247 647.5 c 128,-1,22
 240 634 240 634 234.5 610.5 c 128,-1,23
 229 587 229 587 222 550 c 2,24,-1
 211 490 l 1,25,-1
 324 490 l 1,26,-1
 311 420 l 1,27,-1
 199 420 l 1,0,-1
EndSplineSet
Substitution2: "'smcp' Lowercase to Small Capitals in Latin lookup 1 subtable" F.sc
Substitution2: "'aalt' Access All Alternates in Latin lookup 0 subtable" F.sc
EndChar

StartChar: g
Encoding: 103 103 72
Width: 459
Flags: W
LayerCount: 2
Back
Fore
SplineSet
142 -250 m 0,0,1
 91 -250 91 -250 55.5 -238 c 128,-1,2
 20 -226 20 -226 -1.5 -207 c 128,-1,3
 -23 -188 -23 -188 -32.5 -165 c 128,-1,4
 -42 -142 -42 -142 -42 -119 c 0,5,6
 -42 -107 -42 -107 -37.5 -90 c 128,-1,7
 -33 -73 -33 -73 -21.5 -55 c 128,-1,8
 -10 -37 -10 -37 8.5 -20.5 c 128,-1,9
 27 -4 27 -4 56 8 c 1,10,11
 36 21 36 21 29.5 37 c 128,-1,12
 23 53 23 53 23 64 c 0,13,14
 23 77 23 77 37 101 c 128,-1,15
 51 125 51 125 86 143 c 1,16,17
 58 172 58 172 47.5 207 c 128,-1,18
 37 242 37 242 37 273 c 0,19,20
 37 316 37 316 52 357 c 128,-1,21
 67 398 67 398 95.5 430 c 128,-1,22
 124 462 124 462 164.5 481 c 128,-1,23
 205 500 205 500 256 500 c 0,24,25
 317 500 317 500 359 464 c 1,26,27
 379 476 379 476 407 484 c 128,-1,28
 435 492 435 492 467 492 c 2,29,-1
 481 492 l 1,30,-1
 462 432 l 1,31,-1
 435 432 l 2,32,33
 430 432 430 432 416.5 430.5 c 128,-1,34
 403 429 403 429 390 425 c 1,35,36
 401 403 401 403 405 380 c 128,-1,37
 409 357 409 357 409 337 c 0,38,39
 409 297 409 297 393.5 257 c 128,-1,40
 378 217 378 217 350 185 c 128,-1,41
 322 153 322 153 281.5 133 c 128,-1,42
 241 113 241 113 192 113 c 0,43,44
 160 113 160 113 135 122 c 1,45,46
 125 115 125 115 118.5 107 c 128,-1,47
 112 99 112 99 112 89 c 0,48,49
 112 72 112 72 139.5 62.5 c 128,-1,50
 167 53 167 53 232 40 c 0,51,52
 254 35 254 35 281.5 27.5 c 128,-1,53
 309 20 309 20 333 6.5 c 128,-1,54
 357 -7 357 -7 373.5 -28 c 128,-1,55
 390 -49 390 -49 390 -80 c 0,56,57
 390 -112 390 -112 373 -142.5 c 128,-1,58
 356 -173 356 -173 324.5 -197 c 128,-1,59
 293 -221 293 -221 246.5 -235.5 c 128,-1,60
 200 -250 200 -250 142 -250 c 0,0,1
244 428 m 0,61,62
 215 428 215 428 192.5 416 c 128,-1,63
 170 404 170 404 154.5 383.5 c 128,-1,64
 139 363 139 363 130.5 336 c 128,-1,65
 122 309 122 309 122 278 c 0,66,67
 122 233 122 233 143 207.5 c 128,-1,68
 164 182 164 182 202 182 c 0,69,70
 230 182 230 182 252.5 195 c 128,-1,71
 275 208 275 208 291 229 c 128,-1,72
 307 250 307 250 315.5 278 c 128,-1,73
 324 306 324 306 324 336 c 0,74,75
 324 381 324 381 303 404.5 c 128,-1,76
 282 428 282 428 244 428 c 0,61,62
199 -32 m 0,77,78
 178 -27 178 -27 165 -24 c 128,-1,79
 152 -21 152 -21 125 -14 c 1,80,81
 108 -20 108 -20 93 -30 c 128,-1,82
 78 -40 78 -40 66.5 -53 c 128,-1,83
 55 -66 55 -66 48 -80.5 c 128,-1,84
 41 -95 41 -95 41 -109 c 0,85,86
 41 -139 41 -139 70 -159.5 c 128,-1,87
 99 -180 99 -180 155 -180 c 0,88,89
 188 -180 188 -180 215 -172.5 c 128,-1,90
 242 -165 242 -165 261 -153 c 128,-1,91
 280 -141 280 -141 290.5 -126 c 128,-1,92
 301 -111 301 -111 301 -96 c 0,93,94
 301 -73 301 -73 272.5 -57 c 128,-1,95
 244 -41 244 -41 199 -32 c 0,77,78
EndSplineSet
Substitution2: "'smcp' Lowercase to Small Capitals in Latin lookup 1 subtable" G.sc
Substitution2: "'aalt' Access All Alternates in Latin lookup 0 subtable" G.sc
EndChar

StartChar: h
Encoding: 104 104 73
Width: 506
Flags: W
LayerCount: 2
Back
Fore
SplineSet
307 0 m 1,0,-1
 353 262 l 2,1,2
 357 283 357 283 358.5 301 c 128,-1,3
 360 319 360 319 360 334 c 0,4,5
 360 381 360 381 341.5 400.5 c 128,-1,6
 323 420 323 420 281 420 c 0,7,8
 244 420 244 420 216 404.5 c 128,-1,9
 188 389 188 389 164 356 c 1,10,-1
 101 0 l 1,11,-1
 10 0 l 1,12,-1
 142 750 l 1,13,-1
 234 750 l 1,14,-1
 178 437 l 1,15,16
 232 500 232 500 306 500 c 0,17,18
 385 500 385 500 418.5 457.5 c 128,-1,19
 452 415 452 415 452 343 c 0,20,21
 452 308 452 308 444 262 c 2,22,-1
 398 0 l 1,23,-1
 307 0 l 1,0,-1
EndSplineSet
Substitution2: "'smcp' Lowercase to Small Capitals in Latin lookup 1 subtable" H.sc
Substitution2: "'aalt' Access All Alternates in Latin lookup 0 subtable" H.sc
EndChar

StartChar: i
Encoding: 105 105 74
Width: 214
Flags: W
LayerCount: 2
Back
Fore
SplineSet
116 600 m 1,0,-1
 133 700 l 1,1,-1
 224 700 l 1,2,-1
 207 600 l 1,3,-1
 116 600 l 1,0,-1
10 0 m 1,4,-1
 96 490 l 1,5,-1
 187 490 l 1,6,-1
 101 0 l 1,7,-1
 10 0 l 1,4,-1
EndSplineSet
Substitution2: "'smcp' Lowercase to Small Capitals in Latin lookup 1 subtable" I.sc
Substitution2: "'aalt' Access All Alternates in Latin lookup 0 subtable" I.sc
EndChar

StartChar: j
Encoding: 106 106 75
Width: 214
Flags: W
LayerCount: 2
Back
Fore
SplineSet
-85 -242 m 1,0,-1
 -82 -173 l 1,1,2
 -63 -171 -63 -171 -50 -166 c 128,-1,3
 -37 -161 -37 -161 -28.5 -150.5 c 128,-1,4
 -20 -140 -20 -140 -14 -121.5 c 128,-1,5
 -8 -103 -8 -103 -3 -73 c 2,6,-1
 96 490 l 1,7,-1
 187 490 l 1,8,-1
 82 -107 l 2,9,10
 76 -142 76 -142 62 -165.5 c 128,-1,11
 48 -189 48 -189 30 -204 c 128,-1,12
 12 -219 12 -219 -9.5 -226.5 c 128,-1,13
 -31 -234 -31 -234 -53 -237 c 2,14,-1
 -85 -242 l 1,0,-1
116 600 m 1,15,-1
 134 700 l 1,16,-1
 225 700 l 1,17,-1
 207 600 l 1,18,-1
 116 600 l 1,15,-1
EndSplineSet
Substitution2: "'smcp' Lowercase to Small Capitals in Latin lookup 1 subtable" J.sc
Substitution2: "'aalt' Access All Alternates in Latin lookup 0 subtable" J.sc
EndChar

StartChar: k
Encoding: 107 107 76
Width: 428
Flags: W
LayerCount: 2
Back
Fore
SplineSet
10 0 m 1,0,-1
 142 750 l 1,1,-1
 233 750 l 1,2,-1
 148 269 l 1,3,-1
 343 490 l 1,4,-1
 451 490 l 1,5,-1
 235 264 l 1,6,-1
 367 0 l 1,7,-1
 260 0 l 1,8,-1
 145 249 l 1,9,-1
 101 0 l 1,10,-1
 10 0 l 1,0,-1
EndSplineSet
Substitution2: "'smcp' Lowercase to Small Capitals in Latin lookup 1 subtable" K.sc
Substitution2: "'aalt' Access All Alternates in Latin lookup 0 subtable" K.sc
EndChar

StartChar: l
Encoding: 108 108 77
Width: 234
Flags: W
LayerCount: 2
Back
Fore
SplineSet
151 -10 m 1,0,-1
 120 -10 l 2,1,2
 67 -10 67 -10 45.5 17 c 128,-1,3
 24 44 24 44 24 81 c 0,4,5
 24 88 24 88 24 94.5 c 128,-1,6
 24 101 24 101 26 108 c 2,7,-1
 139 750 l 1,8,-1
 230 750 l 1,9,-1
 126 160 l 2,10,11
 123 142 123 142 121 128 c 128,-1,12
 119 114 119 114 119 103 c 0,13,14
 119 77 119 77 131.5 69.5 c 128,-1,15
 144 62 144 62 175 62 c 1,16,-1
 151 -10 l 1,0,-1
EndSplineSet
Substitution2: "'smcp' Lowercase to Small Capitals in Latin lookup 1 subtable" L.sc
Substitution2: "'aalt' Access All Alternates in Latin lookup 0 subtable" L.sc
EndChar

StartChar: m
Encoding: 109 109 78
Width: 801
Flags: W
LayerCount: 2
Back
Fore
SplineSet
602 0 m 1,0,-1
 653 288 l 2,1,2
 655 302 655 302 656.5 315 c 128,-1,3
 658 328 658 328 658 339 c 0,4,5
 658 381 658 381 639 400.5 c 128,-1,6
 620 420 620 420 579 420 c 0,7,8
 544 420 544 420 520 406.5 c 128,-1,9
 496 393 496 393 481 372.5 c 128,-1,10
 466 352 466 352 458.5 328.5 c 128,-1,11
 451 305 451 305 447 284 c 2,12,-1
 397 0 l 1,13,-1
 306 0 l 1,14,-1
 354 270 l 2,15,16
 360 307 360 307 360 333 c 0,17,18
 360 384 360 384 339 402 c 128,-1,19
 318 420 318 420 281 420 c 0,20,21
 246 420 246 420 216 404.5 c 128,-1,22
 186 389 186 389 164 356 c 1,23,-1
 101 0 l 1,24,-1
 10 0 l 1,25,-1
 96 490 l 1,26,-1
 168 490 l 1,27,-1
 168 438 l 1,28,29
 206 476 206 476 238 488 c 128,-1,30
 270 500 270 500 305 500 c 0,31,32
 324 500 324 500 343.5 496 c 128,-1,33
 363 492 363 492 380.5 481.5 c 128,-1,34
 398 471 398 471 411.5 452 c 128,-1,35
 425 433 425 433 434 402 c 1,36,37
 460 448 460 448 503.5 474 c 128,-1,38
 547 500 547 500 608 500 c 0,39,40
 750 500 750 500 750 358 c 0,41,42
 750 326 750 326 744 289 c 2,43,-1
 693 0 l 1,44,-1
 602 0 l 1,0,-1
EndSplineSet
Substitution2: "'smcp' Lowercase to Small Capitals in Latin lookup 1 subtable" M.sc
Substitution2: "'aalt' Access All Alternates in Latin lookup 0 subtable" M.sc
EndChar

StartChar: n
Encoding: 110 110 79
Width: 515
Flags: W
LayerCount: 2
Back
Fore
SplineSet
316 0 m 1,0,-1
 364 270 l 2,1,2
 370 304 370 304 370 330 c 0,3,4
 370 377 370 377 349.5 398.5 c 128,-1,5
 329 420 329 420 284 420 c 0,6,7
 249 420 249 420 217.5 404.5 c 128,-1,8
 186 389 186 389 164 356 c 1,9,-1
 101 0 l 1,10,-1
 10 0 l 1,11,-1
 96 490 l 1,12,-1
 173 490 l 1,13,-1
 170 438 l 1,14,15
 209 476 209 476 244.5 488 c 128,-1,16
 280 500 280 500 312 500 c 0,17,18
 392 500 392 500 427 459 c 128,-1,19
 462 418 462 418 462 346 c 0,20,21
 462 329 462 329 460.5 309.5 c 128,-1,22
 459 290 459 290 455 270 c 2,23,-1
 407 0 l 1,24,-1
 316 0 l 1,0,-1
EndSplineSet
Substitution2: "'smcp' Lowercase to Small Capitals in Latin lookup 1 subtable" N.sc
Substitution2: "'aalt' Access All Alternates in Latin lookup 0 subtable" N.sc
EndChar

StartChar: o
Encoding: 111 111 80
Width: 514
Flags: W
LayerCount: 2
Back
Fore
SplineSet
203 -10 m 0,0,1
 158 -10 158 -10 124 6 c 128,-1,2
 90 22 90 22 67 49.5 c 128,-1,3
 44 77 44 77 32.5 114.5 c 128,-1,4
 21 152 21 152 21 196 c 0,5,6
 21 257 21 257 40.5 312 c 128,-1,7
 60 367 60 367 96 409 c 128,-1,8
 132 451 132 451 182 475.5 c 128,-1,9
 232 500 232 500 293 500 c 0,10,11
 338 500 338 500 372 484 c 128,-1,12
 406 468 406 468 429 440.5 c 128,-1,13
 452 413 452 413 463.5 375 c 128,-1,14
 475 337 475 337 475 294 c 0,15,16
 475 233 475 233 455.5 178 c 128,-1,17
 436 123 436 123 400 81 c 128,-1,18
 364 39 364 39 314 14.5 c 128,-1,19
 264 -10 264 -10 203 -10 c 0,0,1
279 420 m 0,20,21
 241 420 241 420 210.5 403.5 c 128,-1,22
 180 387 180 387 158.5 358 c 128,-1,23
 137 329 137 329 125.5 288.5 c 128,-1,24
 114 248 114 248 114 200 c 0,25,26
 114 139 114 139 140 104.5 c 128,-1,27
 166 70 166 70 217 70 c 0,28,29
 255 70 255 70 285.5 86.5 c 128,-1,30
 316 103 316 103 337.5 132 c 128,-1,31
 359 161 359 161 370.5 201.5 c 128,-1,32
 382 242 382 242 382 290 c 0,33,34
 382 351 382 351 356 385.5 c 128,-1,35
 330 420 330 420 279 420 c 0,20,21
EndSplineSet
Substitution2: "'smcp' Lowercase to Small Capitals in Latin lookup 1 subtable" O.sc
Substitution2: "'aalt' Access All Alternates in Latin lookup 0 subtable" O.sc
EndChar

StartChar: p
Encoding: 112 112 81
Width: 522
Flags: W
LayerCount: 2
Back
Fore
SplineSet
227 -10 m 0,0,1
 195 -10 195 -10 162 8 c 128,-1,2
 129 26 129 26 111 62 c 1,3,-1
 58 -242 l 1,4,-1
 -33 -242 l 1,5,-1
 96 490 l 1,6,-1
 170 490 l 1,7,-1
 167 420 l 1,8,9
 200 458 200 458 234 479 c 128,-1,10
 268 500 268 500 317 500 c 0,11,12
 358 500 358 500 389 483.5 c 128,-1,13
 420 467 420 467 440.5 439 c 128,-1,14
 461 411 461 411 471.5 373.5 c 128,-1,15
 482 336 482 336 482 295 c 0,16,17
 482 236 482 236 464.5 181 c 128,-1,18
 447 126 447 126 414.5 83.5 c 128,-1,19
 382 41 382 41 334.5 15.5 c 128,-1,20
 287 -10 287 -10 227 -10 c 0,0,1
294 420 m 0,21,22
 264 420 264 420 235 406 c 128,-1,23
 206 392 206 392 183.5 364 c 128,-1,24
 161 336 161 336 147.5 295 c 128,-1,25
 134 254 134 254 134 200 c 0,26,27
 134 132 134 132 162 101 c 128,-1,28
 190 70 190 70 232 70 c 0,29,30
 266 70 266 70 294.5 88 c 128,-1,31
 323 106 323 106 344 136 c 128,-1,32
 365 166 365 166 376.5 205.5 c 128,-1,33
 388 245 388 245 388 287 c 0,34,35
 388 345 388 345 364.5 382.5 c 128,-1,36
 341 420 341 420 294 420 c 0,21,22
EndSplineSet
Substitution2: "'smcp' Lowercase to Small Capitals in Latin lookup 1 subtable" P.sc
Substitution2: "'aalt' Access All Alternates in Latin lookup 0 subtable" P.sc
EndChar

StartChar: q
Encoding: 113 113 82
Width: 521
Flags: W
LayerCount: 2
Back
Fore
SplineSet
187 -10 m 0,0,1
 145 -10 145 -10 113.5 5 c 128,-1,2
 82 20 82 20 61.5 47 c 128,-1,3
 41 74 41 74 31 110.5 c 128,-1,4
 21 147 21 147 21 189 c 0,5,6
 21 249 21 249 39.5 305 c 128,-1,7
 58 361 58 361 92 404.5 c 128,-1,8
 126 448 126 448 173 474 c 128,-1,9
 220 500 220 500 276 500 c 0,10,11
 325 500 325 500 352 479 c 128,-1,12
 379 458 379 458 399 420 c 1,13,-1
 420 490 l 1,14,-1
 494 490 l 1,15,-1
 365 -242 l 1,16,-1
 274 -242 l 1,17,-1
 328 62 l 1,18,19
 297 26 297 26 258 8 c 128,-1,20
 219 -10 219 -10 187 -10 c 0,0,1
271 420 m 0,21,22
 237 420 237 420 208.5 402.5 c 128,-1,23
 180 385 180 385 159.5 355 c 128,-1,24
 139 325 139 325 127.5 286 c 128,-1,25
 116 247 116 247 116 204 c 0,26,27
 116 176 116 176 122 151.5 c 128,-1,28
 128 127 128 127 139.5 109 c 128,-1,29
 151 91 151 91 168.5 80.5 c 128,-1,30
 186 70 186 70 209 70 c 0,31,32
 240 70 240 70 269 83.5 c 128,-1,33
 298 97 298 97 320.5 124 c 128,-1,34
 343 151 343 151 356.5 192 c 128,-1,35
 370 233 370 233 370 288 c 0,36,37
 370 354 370 354 341.5 387 c 128,-1,38
 313 420 313 420 271 420 c 0,21,22
EndSplineSet
Substitution2: "'smcp' Lowercase to Small Capitals in Latin lookup 1 subtable" Q.sc
Substitution2: "'aalt' Access All Alternates in Latin lookup 0 subtable" Q.sc
EndChar

StartChar: r
Encoding: 114 114 83
Width: 307
Flags: W
LayerCount: 2
Back
Fore
SplineSet
304 409 m 1,0,-1
 271 409 l 2,1,2
 257 409 257 409 241.5 403.5 c 128,-1,3
 226 398 226 398 211.5 389 c 128,-1,4
 197 380 197 380 184.5 369 c 128,-1,5
 172 358 172 358 165 346 c 1,6,-1
 104 0 l 1,7,-1
 10 0 l 1,8,-1
 96 490 l 1,9,-1
 175 490 l 1,10,-1
 168 409 l 1,11,12
 210 460 210 460 248 484 c 128,-1,13
 286 508 286 508 326 508 c 2,14,-1
 340 508 l 1,15,-1
 304 409 l 1,0,-1
EndSplineSet
Substitution2: "'smcp' Lowercase to Small Capitals in Latin lookup 1 subtable" R.sc
Substitution2: "'aalt' Access All Alternates in Latin lookup 0 subtable" R.sc
EndChar

StartChar: s
Encoding: 115 115 84
Width: 389
Flags: W
LayerCount: 2
Back
Fore
SplineSet
134 -10 m 0,0,1
 77 -10 77 -10 41 5.5 c 128,-1,2
 5 21 5 21 -10 33 c 1,3,-1
 15 120 l 1,4,5
 22 113 22 113 34.5 104 c 128,-1,6
 47 95 47 95 63.5 87.5 c 128,-1,7
 80 80 80 80 100.5 75 c 128,-1,8
 121 70 121 70 144 70 c 0,9,10
 193 70 193 70 215.5 89 c 128,-1,11
 238 108 238 108 238 142 c 0,12,13
 238 158 238 158 231 169.5 c 128,-1,14
 224 181 224 181 213.5 189.5 c 128,-1,15
 203 198 203 198 190 203 c 128,-1,16
 177 208 177 208 165 212 c 0,17,18
 145 218 145 218 125 226 c 128,-1,19
 105 234 105 234 88.5 247 c 128,-1,20
 72 260 72 260 61.5 279.5 c 128,-1,21
 51 299 51 299 51 329 c 256,22,23
 51 359 51 359 61 389 c 128,-1,24
 71 419 71 419 94 444 c 128,-1,25
 117 469 117 469 154 484.5 c 128,-1,26
 191 500 191 500 245 500 c 0,27,28
 289 500 289 500 319 489.5 c 128,-1,29
 349 479 349 479 366 468 c 1,30,-1
 342 386 l 1,31,32
 326 404 326 404 300 416.5 c 128,-1,33
 274 429 274 429 237 429 c 0,34,35
 197 429 197 429 169.5 410.5 c 128,-1,36
 142 392 142 392 142 353 c 0,37,38
 142 339 142 339 148 329 c 128,-1,39
 154 319 154 319 165.5 311 c 128,-1,40
 177 303 177 303 193.5 296.5 c 128,-1,41
 210 290 210 290 231 283 c 0,42,43
 246 278 246 278 264 269.5 c 128,-1,44
 282 261 282 261 297.5 247.5 c 128,-1,45
 313 234 313 234 323 213 c 128,-1,46
 333 192 333 192 333 161 c 0,47,48
 333 139 333 139 326 109.5 c 128,-1,49
 319 80 319 80 298 53.5 c 128,-1,50
 277 27 277 27 238 8.5 c 128,-1,51
 199 -10 199 -10 134 -10 c 0,0,1
EndSplineSet
Substitution2: "'smcp' Lowercase to Small Capitals in Latin lookup 1 subtable" S.sc
Substitution2: "'aalt' Access All Alternates in Latin lookup 0 subtable" S.sc
EndChar

StartChar: t
Encoding: 116 116 85
Width: 303
Flags: W
LayerCount: 2
Back
Fore
SplineSet
223 -10 m 1,0,-1
 148 -10 l 2,1,2
 94 -10 94 -10 72 17 c 128,-1,3
 50 44 50 44 50 81 c 0,4,5
 50 88 50 88 50 94 c 128,-1,6
 50 100 50 100 52 107 c 2,7,-1
 107 420 l 1,8,-1
 35 420 l 1,9,-1
 55 490 l 1,10,-1
 119 490 l 1,11,-1
 141 611 l 1,12,-1
 233 620 l 1,13,-1
 210 490 l 1,14,-1
 321 490 l 1,15,-1
 308 420 l 1,16,-1
 197 420 l 1,17,-1
 152 162 l 2,18,19
 148 142 148 142 146 127 c 128,-1,20
 144 112 144 112 144 101 c 0,21,22
 144 74 144 74 160.5 68 c 128,-1,23
 177 62 177 62 219 62 c 2,24,-1
 243 62 l 1,25,-1
 223 -10 l 1,0,-1
EndSplineSet
Substitution2: "'smcp' Lowercase to Small Capitals in Latin lookup 1 subtable" T.sc
Substitution2: "'aalt' Access All Alternates in Latin lookup 0 subtable" T.sc
EndChar

StartChar: u
Encoding: 117 117 86
Width: 494
Flags: W
LayerCount: 2
Back
Fore
SplineSet
298 0 m 1,0,-1
 301 54 l 1,1,2
 249 -10 249 -10 175 -10 c 0,3,4
 104 -10 104 -10 69 24.5 c 128,-1,5
 34 59 34 59 34 132 c 0,6,7
 34 167 34 167 41 205 c 2,8,-1
 91 490 l 1,9,-1
 182 490 l 1,10,-1
 136 230 l 2,11,12
 133 211 133 211 131 194.5 c 128,-1,13
 129 178 129 178 129 164 c 0,14,15
 129 118 129 118 147 94 c 128,-1,16
 165 70 165 70 206 70 c 0,17,18
 236 70 236 70 263.5 83.5 c 128,-1,19
 291 97 291 97 312 126 c 1,20,-1
 376 490 l 1,21,-1
 467 490 l 1,22,-1
 381 0 l 1,23,-1
 298 0 l 1,0,-1
EndSplineSet
Substitution2: "'smcp' Lowercase to Small Capitals in Latin lookup 1 subtable" U.sc
Substitution2: "'aalt' Access All Alternates in Latin lookup 0 subtable" U.sc
EndChar

StartChar: v
Encoding: 118 118 87
Width: 439
Flags: W
LayerCount: 2
Back
Fore
SplineSet
211 0 m 1,0,-1
 118 0 l 1,1,-1
 35 490 l 1,2,-1
 131 490 l 1,3,-1
 182 99 l 1,4,-1
 369 490 l 1,5,-1
 466 490 l 1,6,-1
 211 0 l 1,0,-1
EndSplineSet
Substitution2: "'smcp' Lowercase to Small Capitals in Latin lookup 1 subtable" V.sc
Substitution2: "'aalt' Access All Alternates in Latin lookup 0 subtable" V.sc
EndChar

StartChar: w
Encoding: 119 119 88
Width: 662
Flags: W
LayerCount: 2
Back
Fore
SplineSet
463 0 m 1,0,-1
 371 0 l 1,1,-1
 343 362 l 1,2,-1
 186 0 l 1,3,-1
 95 0 l 1,4,-1
 49 490 l 1,5,-1
 149 490 l 1,6,-1
 162 99 l 1,7,-1
 319 475 l 1,8,-1
 406 475 l 1,9,-1
 431 99 l 1,10,-1
 582 490 l 1,11,-1
 682 490 l 1,12,-1
 463 0 l 1,0,-1
EndSplineSet
Substitution2: "'smcp' Lowercase to Small Capitals in Latin lookup 1 subtable" W.sc
Substitution2: "'aalt' Access All Alternates in Latin lookup 0 subtable" W.sc
EndChar

StartChar: x
Encoding: 120 120 89
Width: 439
Flags: W
LayerCount: 2
Back
Fore
SplineSet
271 0 m 1,0,-1
 195 191 l 1,1,-1
 67 0 l 1,2,-1
 -37 0 l 1,3,-1
 157 246 l 1,4,-1
 52 490 l 1,5,-1
 156 490 l 1,6,-1
 222 300 l 1,7,-1
 351 490 l 1,8,-1
 458 490 l 1,9,-1
 255 238 l 1,10,-1
 375 0 l 1,11,-1
 271 0 l 1,0,-1
EndSplineSet
Substitution2: "'smcp' Lowercase to Small Capitals in Latin lookup 1 subtable" X.sc
Substitution2: "'aalt' Access All Alternates in Latin lookup 0 subtable" X.sc
EndChar

StartChar: y
Encoding: 121 121 90
Width: 459
Flags: W
LayerCount: 2
Back
Fore
SplineSet
84 -242 m 1,0,-1
 -13 -242 l 1,1,-1
 135 22 l 1,2,-1
 32 490 l 1,3,-1
 133 490 l 1,4,-1
 200 126 l 1,5,-1
 386 490 l 1,6,-1
 487 490 l 1,7,-1
 84 -242 l 1,0,-1
EndSplineSet
Substitution2: "'smcp' Lowercase to Small Capitals in Latin lookup 1 subtable" Y.sc
Substitution2: "'aalt' Access All Alternates in Latin lookup 0 subtable" Y.sc
EndChar

StartChar: z
Encoding: 122 122 91
Width: 430
Flags: W
LayerCount: 2
Back
Fore
SplineSet
144 70 m 1,0,-1
 361 70 l 1,1,-1
 348 0 l 1,2,-1
 -29 0 l 1,3,-1
 268 420 l 1,4,-1
 54 420 l 1,5,-1
 66 490 l 1,6,-1
 441 490 l 1,7,-1
 144 70 l 1,0,-1
EndSplineSet
Substitution2: "'smcp' Lowercase to Small Capitals in Latin lookup 1 subtable" Z.sc
Substitution2: "'aalt' Access All Alternates in Latin lookup 0 subtable" Z.sc
EndChar

StartChar: braceleft
Encoding: 123 123 92
Width: 280
Flags: W
LayerCount: 2
Back
Fore
SplineSet
29 -15 m 0,0,1
 29 6 29 6 35.5 32 c 128,-1,2
 42 58 42 58 49.5 86.5 c 128,-1,3
 57 115 57 115 63.5 144 c 128,-1,4
 70 173 70 173 70 200 c 0,5,6
 70 234 70 234 59 260.5 c 128,-1,7
 48 287 48 287 23 307 c 1,8,9
 64 333 64 333 85.5 367 c 128,-1,10
 107 401 107 401 117 456 c 0,11,12
 123 491 123 491 126.5 530.5 c 128,-1,13
 130 570 130 570 135 600 c 0,14,15
 141 634 141 634 155.5 661 c 128,-1,16
 170 688 170 688 196 707 c 128,-1,17
 222 726 222 726 261 737 c 128,-1,18
 300 748 300 748 356 750 c 1,19,-1
 343 681 l 1,20,21
 299 679 299 679 273 670.5 c 128,-1,22
 247 662 247 662 232 642.5 c 128,-1,23
 217 623 217 623 209 590.5 c 128,-1,24
 201 558 201 558 192 510 c 0,25,26
 188 490 188 490 186 467.5 c 128,-1,27
 184 445 184 445 180 424 c 0,28,29
 177 408 177 408 172.5 393.5 c 128,-1,30
 168 379 168 379 159 365 c 128,-1,31
 150 351 150 351 134.5 337 c 128,-1,32
 119 323 119 323 94 307 c 1,33,34
 123 284 123 284 133 263.5 c 128,-1,35
 143 243 143 243 143 222 c 0,36,37
 143 200 143 200 137.5 180.5 c 128,-1,38
 132 161 132 161 126 138.5 c 128,-1,39
 120 116 120 116 114.5 88.5 c 128,-1,40
 109 61 109 61 109 25 c 0,41,42
 109 -24 109 -24 131 -44 c 128,-1,43
 153 -64 153 -64 212 -66 c 1,44,-1
 200 -135 l 1,45,46
 108 -132 108 -132 68.5 -101.5 c 128,-1,47
 29 -71 29 -71 29 -15 c 0,0,1
EndSplineSet
EndChar

StartChar: bar
Encoding: 124 124 93
Width: 225
Flags: W
LayerCount: 2
Back
Fore
SplineSet
-18 -209 m 1,0,-1
 151 750 l 1,1,-1
 234 750 l 1,2,-1
 65 -209 l 1,3,-1
 -18 -209 l 1,0,-1
EndSplineSet
EndChar

StartChar: braceright
Encoding: 125 125 94
Width: 277
Flags: W
LayerCount: 2
Back
Fore
SplineSet
147 14 m 0,0,1
 135 -56 135 -56 84.5 -93.5 c 128,-1,2
 34 -131 34 -131 -73 -135 c 1,3,-1
 -61 -66 l 1,4,5
 -17 -65 -17 -65 9 -56 c 128,-1,6
 35 -47 35 -47 50 -27.5 c 128,-1,7
 65 -8 65 -8 73 24.5 c 128,-1,8
 81 57 81 57 90 105 c 0,9,10
 95 131 95 131 97.5 154 c 128,-1,11
 100 177 100 177 104 199 c 0,12,13
 107 214 107 214 111 227 c 128,-1,14
 115 240 115 240 124 252.5 c 128,-1,15
 133 265 133 265 148.5 278.5 c 128,-1,16
 164 292 164 292 189 307 c 1,17,18
 160 330 160 330 150 352.5 c 128,-1,19
 140 375 140 375 140 398 c 0,20,21
 140 413 140 413 145.5 431 c 128,-1,22
 151 449 151 449 157 472 c 128,-1,23
 163 495 163 495 168.5 524 c 128,-1,24
 174 553 174 553 174 590 c 0,25,26
 174 639 174 639 152 659 c 128,-1,27
 130 679 130 679 71 681 c 1,28,-1
 83 750 l 1,29,30
 177 747 177 747 215.5 715 c 128,-1,31
 254 683 254 683 254 629 c 0,32,33
 254 608 254 608 247.5 582 c 128,-1,34
 241 556 241 556 233.5 528 c 128,-1,35
 226 500 226 500 219.5 471 c 128,-1,36
 213 442 213 442 213 415 c 0,37,38
 213 344 213 344 259 307 c 1,39,40
 215 281 215 281 195 245.5 c 128,-1,41
 175 210 175 210 166 159 c 0,42,43
 160 123 160 123 156 83.5 c 128,-1,44
 152 44 152 44 147 14 c 0,0,1
EndSplineSet
EndChar

StartChar: asciitilde
Encoding: 126 126 95
Width: 434
Flags: W
LayerCount: 2
Back
Fore
SplineSet
257 179 m 0,0,1
 242 179 242 179 227.5 187 c 128,-1,2
 213 195 213 195 199.5 204.5 c 128,-1,3
 186 214 186 214 173 222 c 128,-1,4
 160 230 160 230 148 230 c 0,5,6
 124 230 124 230 108.5 217 c 128,-1,7
 93 204 93 204 82 181 c 1,8,-1
 38 190 l 1,9,10
 47 215 47 215 60.5 232 c 128,-1,11
 74 249 74 249 90 259.5 c 128,-1,12
 106 270 106 270 122.5 275 c 128,-1,13
 139 280 139 280 153 280 c 0,14,15
 169 280 169 280 183.5 272.5 c 128,-1,16
 198 265 198 265 212 255.5 c 128,-1,17
 226 246 226 246 239 238.5 c 128,-1,18
 252 231 252 231 264 231 c 0,19,20
 285 231 285 231 301.5 244.5 c 128,-1,21
 318 258 318 258 332 282 c 1,22,-1
 373 273 l 1,23,24
 356 229 356 229 325.5 204 c 128,-1,25
 295 179 295 179 257 179 c 0,0,1
EndSplineSet
EndChar

StartChar: exclamdown
Encoding: 161 161 97
Width: 236
Flags: W
LayerCount: 2
Back
Fore
SplineSet
87 300 m 1,0,-1
 150 300 l 1,1,-1
 78 -250 l 1,2,-1
 -34 -250 l 1,3,-1
 87 300 l 1,0,-1
198 500 m 1,4,-1
 182 414 l 1,5,-1
 95 414 l 1,6,-1
 110 500 l 1,7,-1
 198 500 l 1,4,-1
EndSplineSet
EndChar

StartChar: cent
Encoding: 162 162 98
Width: 440
Flags: W
LayerCount: 2
Back
Fore
SplineSet
238 -31 m 1,0,-1
 153 -31 l 1,1,-1
 189 89 l 1,2,3
 119 100 119 100 80 154 c 128,-1,4
 41 208 41 208 41 293 c 0,5,6
 41 350 41 350 58 403 c 128,-1,7
 75 456 75 456 106 498.5 c 128,-1,8
 137 541 137 541 181 569.5 c 128,-1,9
 225 598 225 598 280 606 c 1,10,-1
 290 748 l 1,11,-1
 376 748 l 1,12,-1
 337 608 l 1,13,14
 375 605 375 605 399 597.5 c 128,-1,15
 423 590 423 590 441 576 c 1,16,-1
 419 498 l 1,17,18
 394 514 394 514 368 522.5 c 128,-1,19
 342 531 342 531 313 531 c 0,20,21
 272 531 272 531 239.5 512 c 128,-1,22
 207 493 207 493 184.5 461 c 128,-1,23
 162 429 162 429 150 388 c 128,-1,24
 138 347 138 347 138 304 c 0,25,26
 138 241 138 241 166 203 c 128,-1,27
 194 165 194 165 250 165 c 0,28,29
 305 165 305 165 366 197 c 1,30,-1
 360 119 l 1,31,32
 342 108 342 108 318 99 c 128,-1,33
 294 90 294 90 252 87 c 1,34,-1
 238 -31 l 1,0,-1
EndSplineSet
EndChar

StartChar: sterling
Encoding: 163 163 99
Width: 468
Flags: W
LayerCount: 2
Back
Fore
SplineSet
431 569 m 1,0,1
 418 625 418 625 367 625 c 0,2,3
 340 625 340 625 324 617 c 128,-1,4
 308 609 308 609 297.5 592 c 128,-1,5
 287 575 287 575 280.5 549.5 c 128,-1,6
 274 524 274 524 268 488 c 2,7,-1
 252 395 l 1,8,-1
 422 395 l 1,9,-1
 391 309 l 1,10,-1
 231 309 l 1,11,12
 222 271 222 271 215 244 c 128,-1,13
 208 217 208 217 199.5 192.5 c 128,-1,14
 191 168 191 168 179.5 143.5 c 128,-1,15
 168 119 168 119 151 86 c 1,16,-1
 378 86 l 1,17,-1
 363 0 l 1,18,-1
 -16 0 l 1,19,20
 14 35 14 35 37 69 c 128,-1,21
 60 103 60 103 78 139.5 c 128,-1,22
 96 176 96 176 110 217.5 c 128,-1,23
 124 259 124 259 137 309 c 1,24,-1
 53 309 l 1,25,-1
 84 395 l 1,26,-1
 158 395 l 1,27,-1
 178 510 l 2,28,29
 185 550 185 550 197.5 586.5 c 128,-1,30
 210 623 210 623 232.5 651.5 c 128,-1,31
 255 680 255 680 289 697 c 128,-1,32
 323 714 323 714 373 714 c 0,33,34
 432 714 432 714 464.5 689.5 c 128,-1,35
 497 665 497 665 503 628 c 1,36,-1
 431 569 l 1,0,1
EndSplineSet
EndChar

StartChar: currency
Encoding: 164 164 100
Width: 583
Flags: W
LayerCount: 2
Back
Fore
SplineSet
438 29 m 1,0,-1
 386 132 l 1,1,2
 351 111 351 111 320 102.5 c 128,-1,3
 289 94 289 94 256 94 c 256,4,5
 223 94 223 94 195 102.5 c 128,-1,6
 167 111 167 111 139 132 c 1,7,-1
 51 29 l 1,8,-1
 21 53 l 1,9,-1
 107 155 l 1,10,11
 87 187 87 187 77.5 225.5 c 128,-1,12
 68 264 68 264 68 302 c 0,13,14
 68 365 68 365 93 423 c 128,-1,15
 118 481 118 481 176 541 c 1,16,-1
 125 643 l 1,17,-1
 164 667 l 1,18,-1
 215 564 l 1,19,20
 250 584 250 584 281.5 593 c 128,-1,21
 313 602 313 602 345 602 c 0,22,23
 378 602 378 602 406 593 c 128,-1,24
 434 584 434 584 462 563 c 1,25,-1
 551 667 l 1,26,-1
 581 643 l 1,27,-1
 494 540 l 1,28,29
 514 508 514 508 523.5 469.5 c 128,-1,30
 533 431 533 431 533 393 c 0,31,32
 533 329 533 329 507.5 271.5 c 128,-1,33
 482 214 482 214 425 154 c 1,34,-1
 477 53 l 1,35,-1
 438 29 l 1,0,-1
334 540 m 0,36,37
 294 540 294 540 262 520 c 128,-1,38
 230 500 230 500 207.5 467 c 128,-1,39
 185 434 185 434 172.5 391 c 128,-1,40
 160 348 160 348 160 302 c 0,41,42
 160 271 160 271 166.5 244.5 c 128,-1,43
 173 218 173 218 186.5 198.5 c 128,-1,44
 200 179 200 179 220 167.5 c 128,-1,45
 240 156 240 156 267 156 c 0,46,47
 307 156 307 156 339 176 c 128,-1,48
 371 196 371 196 393.5 229 c 128,-1,49
 416 262 416 262 428.5 305 c 128,-1,50
 441 348 441 348 441 394 c 0,51,52
 441 425 441 425 434.5 451.5 c 128,-1,53
 428 478 428 478 414.5 497.5 c 128,-1,54
 401 517 401 517 381 528.5 c 128,-1,55
 361 540 361 540 334 540 c 0,36,37
EndSplineSet
EndChar

StartChar: yen
Encoding: 165 165 101
Width: 626
Flags: W
LayerCount: 2
Back
Fore
SplineSet
368 316 m 1,0,-1
 519 316 l 1,1,-1
 489 262 l 1,2,-1
 353 262 l 1,3,-1
 342 200 l 1,4,-1
 499 200 l 1,5,-1
 468 146 l 1,6,-1
 332 146 l 1,7,-1
 306 0 l 1,8,-1
 211 0 l 1,9,-1
 236 146 l 1,10,-1
 80 146 l 1,11,-1
 110 200 l 1,12,-1
 246 200 l 1,13,-1
 257 262 l 1,14,-1
 100 262 l 1,15,-1
 130 316 l 1,16,-1
 261 316 l 1,17,-1
 100 700 l 1,18,-1
 195 700 l 1,19,-1
 328 393 l 1,20,-1
 569 700 l 1,21,-1
 664 700 l 1,22,-1
 368 316 l 1,0,-1
EndSplineSet
EndChar

StartChar: brokenbar
Encoding: 166 166 102
Width: 225
Flags: W
LayerCount: 2
Back
Fore
SplineSet
75 308 m 1,0,-1
 153 750 l 1,1,-1
 232 750 l 1,2,-1
 155 308 l 1,3,-1
 75 308 l 1,0,-1
-16 -210 m 1,4,-1
 50 163 l 1,5,-1
 129 163 l 1,6,-1
 63 -210 l 1,7,-1
 -16 -210 l 1,4,-1
EndSplineSet
EndChar

StartChar: section
Encoding: 167 167 103
Width: 427
Flags: W
LayerCount: 2
Back
Fore
SplineSet
278 188 m 1,0,1
 297 165 297 165 303.5 144 c 128,-1,2
 310 123 310 123 310 102 c 0,3,4
 310 72 310 72 300.5 39.5 c 128,-1,5
 291 7 291 7 269.5 -20.5 c 128,-1,6
 248 -48 248 -48 213 -66 c 128,-1,7
 178 -84 178 -84 127 -84 c 0,8,9
 88 -84 88 -84 53.5 -73 c 128,-1,10
 19 -62 19 -62 5 -45 c 1,11,-1
 27 18 l 1,12,13
 50 1 50 1 78.5 -11 c 128,-1,14
 107 -23 107 -23 137 -23 c 0,15,16
 179 -23 179 -23 210.5 1 c 128,-1,17
 242 25 242 25 242 75 c 0,18,19
 242 103 242 103 227.5 119.5 c 128,-1,20
 213 136 213 136 191 147 c 128,-1,21
 169 158 169 158 143 167.5 c 128,-1,22
 117 177 117 177 95 192.5 c 128,-1,23
 73 208 73 208 58.5 232.5 c 128,-1,24
 44 257 44 257 44 298 c 0,25,26
 44 361 44 361 73.5 409.5 c 128,-1,27
 103 458 103 458 165 479 c 1,28,29
 145 502 145 502 138 524.5 c 128,-1,30
 131 547 131 547 131 566 c 0,31,32
 131 594 131 594 139.5 626 c 128,-1,33
 148 658 148 658 169 685.5 c 128,-1,34
 190 713 190 713 225 731.5 c 128,-1,35
 260 750 260 750 312 750 c 0,36,37
 353 750 353 750 387 737 c 128,-1,38
 421 724 421 724 436 710 c 1,39,-1
 415 647 l 1,40,41
 392 664 392 664 363.5 677 c 128,-1,42
 335 690 335 690 306 690 c 0,43,44
 285 690 285 690 266.5 682 c 128,-1,45
 248 674 248 674 234 660.5 c 128,-1,46
 220 647 220 647 212 629 c 128,-1,47
 204 611 204 611 204 592 c 0,48,49
 204 567 204 567 218 551 c 128,-1,50
 232 535 232 535 253.5 523 c 128,-1,51
 275 511 275 511 300 499.5 c 128,-1,52
 325 488 325 488 346.5 471 c 128,-1,53
 368 454 368 454 382 428.5 c 128,-1,54
 396 403 396 403 396 363 c 0,55,56
 396 344 396 344 391.5 320.5 c 128,-1,57
 387 297 387 297 374.5 273 c 128,-1,58
 362 249 362 249 338.5 226.5 c 128,-1,59
 315 204 315 204 278 188 c 1,0,1
215 438 m 0,60,61
 206 438 206 438 189.5 432.5 c 128,-1,62
 173 427 173 427 157.5 415 c 128,-1,63
 142 403 142 403 130 382 c 128,-1,64
 118 361 118 361 118 329 c 0,65,66
 118 308 118 308 127.5 291 c 128,-1,67
 137 274 137 274 153.5 260.5 c 128,-1,68
 170 247 170 247 190.5 237 c 128,-1,69
 211 227 211 227 234 219 c 1,70,71
 250 225 250 225 265.5 236.5 c 128,-1,72
 281 248 281 248 293 264 c 128,-1,73
 305 280 305 280 312.5 299 c 128,-1,74
 320 318 320 318 320 338 c 0,75,76
 320 363 320 363 308.5 380.5 c 128,-1,77
 297 398 297 398 281 409.5 c 128,-1,78
 265 421 265 421 246.5 428 c 128,-1,79
 228 435 228 435 215 438 c 0,60,61
EndSplineSet
EndChar

StartChar: dieresis
Encoding: 168 168 104
Width: 380
Flags: W
LayerCount: 2
Back
Fore
SplineSet
336 600 m 1,0,-1
 354 700 l 1,1,-1
 425 700 l 1,2,-1
 407 600 l 1,3,-1
 336 600 l 1,0,-1
184 600 m 1,4,-1
 202 700 l 1,5,-1
 272 700 l 1,6,-1
 255 600 l 1,7,-1
 184 600 l 1,4,-1
EndSplineSet
EndChar

StartChar: copyright
Encoding: 169 169 105
Width: 667
Flags: W
LayerCount: 2
Back
Fore
SplineSet
289 37 m 0,0,1
 237 37 237 37 194.5 55.5 c 128,-1,2
 152 74 152 74 122 108.5 c 128,-1,3
 92 143 92 143 76 192 c 128,-1,4
 60 241 60 241 60 301 c 0,5,6
 60 387 60 387 87.5 459 c 128,-1,7
 115 531 115 531 162.5 583 c 128,-1,8
 210 635 210 635 272.5 664 c 128,-1,9
 335 693 335 693 405 693 c 0,10,11
 457 693 457 693 499 674.5 c 128,-1,12
 541 656 541 656 571 621.5 c 128,-1,13
 601 587 601 587 617 538.5 c 128,-1,14
 633 490 633 490 633 430 c 0,15,16
 633 344 633 344 605.5 271.5 c 128,-1,17
 578 199 578 199 531.5 147 c 128,-1,18
 485 95 485 95 422 66 c 128,-1,19
 359 37 359 37 289 37 c 0,0,1
397 648 m 0,20,21
 328 648 328 648 275.5 619.5 c 128,-1,22
 223 591 223 591 187 543 c 128,-1,23
 151 495 151 495 132.5 432 c 128,-1,24
 114 369 114 369 114 300 c 0,25,26
 114 253 114 253 125 213 c 128,-1,27
 136 173 136 173 158.5 143.5 c 128,-1,28
 181 114 181 114 215.5 97.5 c 128,-1,29
 250 81 250 81 297 81 c 0,30,31
 365 81 365 81 417.5 110 c 128,-1,32
 470 139 470 139 506 187 c 128,-1,33
 542 235 542 235 560.5 298 c 128,-1,34
 579 361 579 361 579 429 c 0,35,36
 579 476 579 476 568 516 c 128,-1,37
 557 556 557 556 534.5 585.5 c 128,-1,38
 512 615 512 615 478 631.5 c 128,-1,39
 444 648 444 648 397 648 c 0,20,21
325 197 m 0,40,41
 271 197 271 197 239 233 c 128,-1,42
 207 269 207 269 207 330 c 0,43,44
 207 374 207 374 221 411 c 128,-1,45
 235 448 235 448 259 474.5 c 128,-1,46
 283 501 283 501 315.5 515.5 c 128,-1,47
 348 530 348 530 384 530 c 0,48,49
 406 530 406 530 427.5 524.5 c 128,-1,50
 449 519 449 519 465 511 c 1,51,-1
 447 451 l 1,52,53
 430 459 430 459 412 464.5 c 128,-1,54
 394 470 394 470 373 470 c 0,55,56
 350 470 350 470 331.5 459 c 128,-1,57
 313 448 313 448 300.5 429.5 c 128,-1,58
 288 411 288 411 281.5 387 c 128,-1,59
 275 363 275 363 275 337 c 0,60,61
 275 302 275 302 289.5 279 c 128,-1,62
 304 256 304 256 336 256 c 0,63,64
 356 256 356 256 376 261.5 c 128,-1,65
 396 267 396 267 417 276 c 1,66,-1
 413 217 l 1,67,68
 394 207 394 207 370.5 202 c 128,-1,69
 347 197 347 197 325 197 c 0,40,41
EndSplineSet
EndChar

StartChar: ordfeminine
Encoding: 170 170 106
Width: 329
Flags: W
LayerCount: 2
Back
Fore
SplineSet
310 434 m 1,0,-1
 276 434 l 2,1,2
 259 434 259 434 244 442.5 c 128,-1,3
 229 451 229 451 224 465 c 1,4,5
 209 450 209 450 184 442 c 128,-1,6
 159 434 159 434 136 434 c 0,7,8
 109 434 109 434 90.5 452.5 c 128,-1,9
 72 471 72 471 72 503 c 0,10,11
 72 538 72 538 92 560.5 c 128,-1,12
 112 583 112 583 139 596 c 128,-1,13
 166 609 166 609 194.5 614 c 128,-1,14
 223 619 223 619 240 620 c 1,15,16
 240 641 240 641 234.5 651.5 c 128,-1,17
 229 662 229 662 204 662 c 0,18,19
 184 662 184 662 165.5 657 c 128,-1,20
 147 652 147 652 124 642 c 1,21,-1
 129 702 l 1,22,23
 159 714 159 714 185 719.5 c 128,-1,24
 211 725 211 725 235 725 c 0,25,26
 273 725 273 725 296 706.5 c 128,-1,27
 319 688 319 688 319 646 c 0,28,29
 319 612 319 612 309 579.5 c 128,-1,30
 299 547 299 547 299 512 c 0,31,32
 299 501 299 501 303 498 c 128,-1,33
 307 495 307 495 315 495 c 2,34,-1
 326 495 l 1,35,-1
 310 434 l 1,0,-1
232 570 m 1,36,37
 224 570 224 570 210.5 566.5 c 128,-1,38
 197 563 197 563 184.5 556 c 128,-1,39
 172 549 172 549 162.5 538.5 c 128,-1,40
 153 528 153 528 153 513 c 0,41,42
 153 490 153 490 182 490 c 0,43,44
 186 490 186 490 197.5 494 c 128,-1,45
 209 498 209 498 221 507 c 1,46,-1
 232 570 l 1,36,37
EndSplineSet
EndChar

StartChar: guillemotleft
Encoding: 171 171 107
Width: 535
Flags: W
LayerCount: 2
Back
Fore
SplineSet
352 78 m 1,0,-1
 255 284 l 1,1,-1
 425 490 l 1,2,-1
 529 490 l 1,3,-1
 359 284 l 1,4,-1
 457 78 l 1,5,-1
 352 78 l 1,0,-1
118 78 m 1,6,-1
 21 284 l 1,7,-1
 191 490 l 1,8,-1
 295 490 l 1,9,-1
 125 284 l 1,10,-1
 222 78 l 1,11,-1
 118 78 l 1,6,-1
EndSplineSet
EndChar

StartChar: logicalnot
Encoding: 172 172 108
Width: 551
Flags: W
LayerCount: 2
Back
Fore
SplineSet
392 151 m 1,0,-1
 426 346 l 1,1,-1
 73 346 l 1,2,-1
 84 406 l 1,3,-1
 498 406 l 1,4,-1
 453 151 l 1,5,-1
 392 151 l 1,0,-1
EndSplineSet
EndChar

StartChar: uni00AD
Encoding: 173 173 109
Width: 397
Flags: W
LayerCount: 2
Back
Fore
SplineSet
47 230 m 1,0,-1
 64 324 l 1,1,-1
 343 324 l 1,2,-1
 326 230 l 1,3,-1
 47 230 l 1,0,-1
EndSplineSet
EndChar

StartChar: registered
Encoding: 174 174 110
Width: 667
Flags: W
LayerCount: 2
Back
Fore
SplineSet
289 37 m 0,0,1
 237 37 237 37 194.5 55.5 c 128,-1,2
 152 74 152 74 122 108.5 c 128,-1,3
 92 143 92 143 76 192 c 128,-1,4
 60 241 60 241 60 301 c 0,5,6
 60 387 60 387 87.5 459 c 128,-1,7
 115 531 115 531 162.5 583 c 128,-1,8
 210 635 210 635 272.5 664 c 128,-1,9
 335 693 335 693 405 693 c 0,10,11
 457 693 457 693 499 674.5 c 128,-1,12
 541 656 541 656 571 621.5 c 128,-1,13
 601 587 601 587 617 538.5 c 128,-1,14
 633 490 633 490 633 430 c 0,15,16
 633 344 633 344 605.5 271.5 c 128,-1,17
 578 199 578 199 531.5 147 c 128,-1,18
 485 95 485 95 422 66 c 128,-1,19
 359 37 359 37 289 37 c 0,0,1
397 649 m 0,20,21
 329 649 329 649 276 620 c 128,-1,22
 223 591 223 591 187 543 c 128,-1,23
 151 495 151 495 132.5 432 c 128,-1,24
 114 369 114 369 114 301 c 0,25,26
 114 254 114 254 125 213.5 c 128,-1,27
 136 173 136 173 158.5 143.5 c 128,-1,28
 181 114 181 114 215.5 97 c 128,-1,29
 250 80 250 80 297 80 c 0,30,31
 365 80 365 80 417.5 109 c 128,-1,32
 470 138 470 138 506 186.5 c 128,-1,33
 542 235 542 235 561 298 c 128,-1,34
 580 361 580 361 580 429 c 0,35,36
 580 476 580 476 569 516.5 c 128,-1,37
 558 557 558 557 535.5 586.5 c 128,-1,38
 513 616 513 616 478.5 632.5 c 128,-1,39
 444 649 444 649 397 649 c 0,20,21
376 210 m 1,40,-1
 339 327 l 1,41,-1
 296 327 l 1,42,-1
 276 210 l 1,43,-1
 212 210 l 1,44,-1
 269 531 l 1,45,-1
 378 531 l 2,46,47
 417 531 417 531 441 515 c 128,-1,48
 465 499 465 499 465 455 c 0,49,50
 465 416 465 416 446 389.5 c 128,-1,51
 427 363 427 363 400 344 c 1,52,-1
 441 210 l 1,53,-1
 376 210 l 1,40,-1
324 482 m 1,54,-1
 306 383 l 1,55,-1
 338 383 l 2,56,57
 398 383 398 383 398 446 c 0,58,59
 398 463 398 463 389 472.5 c 128,-1,60
 380 482 380 482 357 482 c 2,61,-1
 324 482 l 1,54,-1
EndSplineSet
EndChar

StartChar: degree
Encoding: 176 176 111
Width: 311
Flags: W
LayerCount: 2
Back
Fore
SplineSet
187 482 m 0,0,1
 139 482 139 482 114 513.5 c 128,-1,2
 89 545 89 545 89 592 c 0,3,4
 89 624 89 624 99.5 653.5 c 128,-1,5
 110 683 110 683 129.5 705.5 c 128,-1,6
 149 728 149 728 176 741.5 c 128,-1,7
 203 755 203 755 235 755 c 0,8,9
 284 755 284 755 308.5 723 c 128,-1,10
 333 691 333 691 333 644 c 0,11,12
 333 611 333 611 322.5 582 c 128,-1,13
 312 553 312 553 292.5 530.5 c 128,-1,14
 273 508 273 508 246.5 495 c 128,-1,15
 220 482 220 482 187 482 c 0,0,1
230 729 m 0,16,17
 209 729 209 729 192 716.5 c 128,-1,18
 175 704 175 704 162.5 684.5 c 128,-1,19
 150 665 150 665 143 641 c 128,-1,20
 136 617 136 617 136 593 c 0,21,22
 136 559 136 559 149.5 533.5 c 128,-1,23
 163 508 163 508 191 508 c 0,24,25
 213 508 213 508 230.5 520.5 c 128,-1,26
 248 533 248 533 260.5 552.5 c 128,-1,27
 273 572 273 572 279.5 596 c 128,-1,28
 286 620 286 620 286 644 c 0,29,30
 286 660 286 660 282.5 675.5 c 128,-1,31
 279 691 279 691 272.5 703 c 128,-1,32
 266 715 266 715 255.5 722 c 128,-1,33
 245 729 245 729 230 729 c 0,16,17
EndSplineSet
EndChar

StartChar: plusminus
Encoding: 177 177 112
Width: 462
Flags: W
LayerCount: 2
Back
Fore
SplineSet
272 327 m 1,0,-1
 246 183 l 1,1,-1
 180 183 l 1,2,-1
 206 327 l 1,3,-1
 72 327 l 1,4,-1
 84 394 l 1,5,-1
 217 394 l 1,6,-1
 242 532 l 1,7,-1
 308 532 l 1,8,-1
 284 394 l 1,9,-1
 417 394 l 1,10,-1
 405 327 l 1,11,-1
 272 327 l 1,0,-1
22 42 m 1,12,-1
 34 109 l 1,13,-1
 367 109 l 1,14,-1
 355 42 l 1,15,-1
 22 42 l 1,12,-1
EndSplineSet
EndChar

StartChar: twosuperior
Encoding: 178 178 113
Width: 286
Flags: W
LayerCount: 2
Back
Fore
SplineSet
30 320 m 1,0,1
 94 396 94 396 132.5 444.5 c 128,-1,2
 171 493 171 493 191.5 523.5 c 128,-1,3
 212 554 212 554 218.5 572 c 128,-1,4
 225 590 225 590 225 605 c 0,5,6
 225 646 225 646 188 646 c 0,7,8
 171 646 171 646 155.5 639 c 128,-1,9
 140 632 140 632 128 622.5 c 128,-1,10
 116 613 116 613 107 603 c 128,-1,11
 98 593 98 593 94 587 c 1,12,-1
 94 652 l 1,13,14
 100 659 100 659 111 668.5 c 128,-1,15
 122 678 122 678 137 686.5 c 128,-1,16
 152 695 152 695 171 700.5 c 128,-1,17
 190 706 190 706 212 706 c 0,18,19
 236 706 236 706 252.5 698.5 c 128,-1,20
 269 691 269 691 278.5 679 c 128,-1,21
 288 667 288 667 292 652.5 c 128,-1,22
 296 638 296 638 296 623 c 0,23,24
 296 603 296 603 289 581 c 128,-1,25
 282 559 282 559 267 531.5 c 128,-1,26
 252 504 252 504 227.5 469.5 c 128,-1,27
 203 435 203 435 168 390 c 1,28,-1
 269 390 l 1,29,-1
 256 320 l 1,30,-1
 30 320 l 1,0,1
EndSplineSet
EndChar

StartChar: threesuperior
Encoding: 179 179 114
Width: 289
Flags: W
LayerCount: 2
Back
Fore
SplineSet
122 312 m 0,0,1
 105 312 105 312 89.5 315.5 c 128,-1,2
 74 319 74 319 61 323.5 c 128,-1,3
 48 328 48 328 40 333 c 128,-1,4
 32 338 32 338 30 342 c 2,5,-1
 60 408 l 1,6,7
 64 397 64 397 86.5 389.5 c 128,-1,8
 109 382 109 382 131 382 c 0,9,10
 163 382 163 382 186 396.5 c 128,-1,11
 209 411 209 411 209 451 c 0,12,13
 209 471 209 471 199 484.5 c 128,-1,14
 189 498 189 498 160 498 c 2,15,-1
 109 498 l 1,16,-1
 125 553 l 1,17,-1
 151 553 l 2,18,19
 173 553 173 553 187 558 c 128,-1,20
 201 563 201 563 208.5 571.5 c 128,-1,21
 216 580 216 580 219 590 c 128,-1,22
 222 600 222 600 222 610 c 0,23,24
 222 625 222 625 212.5 635 c 128,-1,25
 203 645 203 645 179 645 c 0,26,27
 165 645 165 645 146.5 641.5 c 128,-1,28
 128 638 128 638 114 628 c 1,29,-1
 112 681 l 1,30,31
 123 689 123 689 147.5 697.5 c 128,-1,32
 172 706 172 706 199 706 c 0,33,34
 229 706 229 706 248 698 c 128,-1,35
 267 690 267 690 278 678 c 128,-1,36
 289 666 289 666 293 651 c 128,-1,37
 297 636 297 636 297 622 c 0,38,39
 297 591 297 591 284 567.5 c 128,-1,40
 271 544 271 544 252 530 c 1,41,42
 265 518 265 518 273 499.5 c 128,-1,43
 281 481 281 481 281 457 c 0,44,45
 281 421 281 421 267 394 c 128,-1,46
 253 367 253 367 230 349 c 128,-1,47
 207 331 207 331 178.5 321.5 c 128,-1,48
 150 312 150 312 122 312 c 0,0,1
EndSplineSet
EndChar

StartChar: acute
Encoding: 180 180 115
Width: 272
Flags: W
LayerCount: 2
Back
Fore
SplineSet
157 596 m 1,0,-1
 164 637 l 1,1,-1
 349 732 l 1,2,-1
 337 660 l 1,3,-1
 157 596 l 1,0,-1
EndSplineSet
EndChar

StartChar: mu
Encoding: 181 181 116
Width: 558
Flags: W
LayerCount: 2
Back
Fore
SplineSet
450 -10 m 1,0,-1
 421 -10 l 2,1,2
 350 -10 350 -10 337 63 c 1,3,4
 308 30 308 30 277 9.5 c 128,-1,5
 246 -11 246 -11 206 -11 c 0,6,7
 181 -11 181 -11 161.5 -4.5 c 128,-1,8
 142 2 142 2 119 27 c 1,9,-1
 72 -242 l 1,10,-1
 -18 -242 l 1,11,-1
 111 490 l 1,12,-1
 201 490 l 1,13,-1
 156 232 l 2,14,15
 152 212 152 212 150.5 194.5 c 128,-1,16
 149 177 149 177 149 162 c 0,17,18
 149 117 149 117 167 93 c 128,-1,19
 185 69 185 69 230 69 c 0,20,21
 263 69 263 69 287.5 82.5 c 128,-1,22
 312 96 312 96 338 127 c 1,23,-1
 402 490 l 1,24,-1
 491 490 l 1,25,-1
 435 170 l 2,26,27
 431 151 431 151 429.5 135 c 128,-1,28
 428 119 428 119 428 106 c 0,29,30
 428 62 428 62 457 62 c 2,31,-1
 475 62 l 1,32,-1
 450 -10 l 1,0,-1
EndSplineSet
EndChar

StartChar: paragraph
Encoding: 182 182 117
Width: 572
Flags: W
LayerCount: 2
Back
Fore
SplineSet
521 633 m 1,0,-1
 409 0 l 1,1,-1
 355 0 l 1,2,-1
 466 633 l 1,3,-1
 387 633 l 1,4,-1
 275 0 l 1,5,-1
 230 0 l 1,6,-1
 273 243 l 1,7,8
 217 247 217 247 177.5 265 c 128,-1,9
 138 283 138 283 112.5 310.5 c 128,-1,10
 87 338 87 338 75 372 c 128,-1,11
 63 406 63 406 63 442 c 0,12,13
 63 487 63 487 82.5 533 c 128,-1,14
 102 579 102 579 140 616 c 128,-1,15
 178 653 178 653 234.5 676.5 c 128,-1,16
 291 700 291 700 365 700 c 2,17,-1
 599 700 l 1,18,-1
 587 633 l 1,19,-1
 521 633 l 1,0,-1
EndSplineSet
EndChar

StartChar: periodcentered
Encoding: 183 183 118
Width: 230
Flags: W
LayerCount: 2
Back
Fore
SplineSet
44 213 m 1,0,-1
 67 343 l 1,1,-1
 179 343 l 1,2,-1
 156 213 l 1,3,-1
 44 213 l 1,0,-1
EndSplineSet
EndChar

StartChar: cedilla
Encoding: 184 184 119
Width: 272
Flags: W
LayerCount: 2
Back
Fore
SplineSet
141 -187 m 1,0,-1
 91 -192 l 1,1,-1
 176 -60 l 1,2,-1
 247 -54 l 1,3,-1
 141 -187 l 1,0,-1
EndSplineSet
EndChar

StartChar: onesuperior
Encoding: 185 185 120
Width: 210
Flags: W
LayerCount: 2
Back
Fore
SplineSet
78 320 m 1,0,-1
 127 596 l 1,1,2
 119 591 119 591 107.5 586 c 128,-1,3
 96 581 96 581 81 579 c 1,4,-1
 88 639 l 1,5,6
 95 640 95 640 106 646 c 128,-1,7
 117 652 117 652 127.5 660 c 128,-1,8
 138 668 138 668 147 678 c 128,-1,9
 156 688 156 688 161 698 c 1,10,-1
 218 698 l 1,11,-1
 152 320 l 1,12,-1
 78 320 l 1,0,-1
EndSplineSet
EndChar

StartChar: ordmasculine
Encoding: 186 186 121
Width: 349
Flags: W
LayerCount: 2
Back
Fore
SplineSet
198 434 m 0,0,1
 169 434 169 434 147.5 443.5 c 128,-1,2
 126 453 126 453 111.5 469.5 c 128,-1,3
 97 486 97 486 89.5 508.5 c 128,-1,4
 82 531 82 531 82 556 c 0,5,6
 82 589 82 589 94 619.5 c 128,-1,7
 106 650 106 650 128 673.5 c 128,-1,8
 150 697 150 697 181 711 c 128,-1,9
 212 725 212 725 249 725 c 0,10,11
 278 725 278 725 300 715.5 c 128,-1,12
 322 706 322 706 336.5 689.5 c 128,-1,13
 351 673 351 673 358.5 651 c 128,-1,14
 366 629 366 629 366 604 c 0,15,16
 366 571 366 571 354 540.5 c 128,-1,17
 342 510 342 510 319.5 486.5 c 128,-1,18
 297 463 297 463 266 448.5 c 128,-1,19
 235 434 235 434 198 434 c 0,0,1
239 666 m 0,20,21
 221 666 221 666 206.5 657.5 c 128,-1,22
 192 649 192 649 181.5 634.5 c 128,-1,23
 171 620 171 620 165.5 600.5 c 128,-1,24
 160 581 160 581 160 559 c 0,25,26
 160 530 160 530 172 512 c 128,-1,27
 184 494 184 494 209 494 c 0,28,29
 227 494 227 494 241.5 502.5 c 128,-1,30
 256 511 256 511 266.5 525.5 c 128,-1,31
 277 540 277 540 282.5 559.5 c 128,-1,32
 288 579 288 579 288 601 c 0,33,34
 288 630 288 630 275.5 648 c 128,-1,35
 263 666 263 666 239 666 c 0,20,21
EndSplineSet
EndChar

StartChar: guillemotright
Encoding: 187 187 122
Width: 536
Flags: W
LayerCount: 2
Back
Fore
SplineSet
341 78 m 1,0,-1
 237 78 l 1,1,-1
 407 284 l 1,2,-1
 310 490 l 1,3,-1
 413 490 l 1,4,-1
 511 284 l 1,5,-1
 341 78 l 1,0,-1
107 78 m 1,6,-1
 3 78 l 1,7,-1
 174 284 l 1,8,-1
 76 490 l 1,9,-1
 180 490 l 1,10,-1
 277 284 l 1,11,-1
 107 78 l 1,6,-1
EndSplineSet
EndChar

StartChar: questiondown
Encoding: 191 191 126
Width: 417
Flags: W
LayerCount: 2
Back
Fore
SplineSet
272 300 m 1,0,1
 269 261 269 261 267 255 c 0,2,3
 261 221 261 221 245 193 c 128,-1,4
 229 165 229 165 208 139 c 128,-1,5
 187 113 187 113 165 88 c 128,-1,6
 143 63 143 63 124 36.5 c 128,-1,7
 105 10 105 10 93 -20 c 128,-1,8
 81 -50 81 -50 81 -86 c 0,9,10
 81 -137 81 -137 107.5 -160.5 c 128,-1,11
 134 -184 134 -184 169 -184 c 0,12,13
 190 -184 190 -184 210 -177 c 128,-1,14
 230 -170 230 -170 247 -159.5 c 128,-1,15
 264 -149 264 -149 277 -137 c 128,-1,16
 290 -125 290 -125 297 -116 c 1,17,-1
 309 -183 l 1,18,19
 286 -211 286 -211 243.5 -230.5 c 128,-1,20
 201 -250 201 -250 153 -250 c 0,21,22
 112 -250 112 -250 82.5 -235 c 128,-1,23
 53 -220 53 -220 33.5 -197 c 128,-1,24
 14 -174 14 -174 5 -145 c 128,-1,25
 -4 -116 -4 -116 -4 -88 c 0,26,27
 -4 -53 -4 -53 10 -20 c 128,-1,28
 24 13 24 13 46 43.5 c 128,-1,29
 68 74 68 74 94 103.5 c 128,-1,30
 120 133 120 133 143 161 c 128,-1,31
 166 189 166 189 184 217 c 128,-1,32
 202 245 202 245 207 273 c 2,33,-1
 212 300 l 1,34,-1
 272 300 l 1,0,1
322 500 m 1,35,-1
 307 414 l 1,36,-1
 215 414 l 1,37,-1
 230 500 l 1,38,-1
 322 500 l 1,35,-1
EndSplineSet
EndChar

StartChar: AE
Encoding: 198 198 133
Width: 788
Flags: W
LayerCount: 2
Back
Fore
SplineSet
417 0 m 1,0,-1
 310 0 l 1,1,-1
 341 180 l 1,2,-1
 155 180 l 1,3,-1
 43 0 l 1,4,-1
 -52 0 l 1,5,-1
 379 700 l 1,6,-1
 817 700 l 1,7,-1
 801 613 l 1,8,-1
 525 613 l 1,9,-1
 489 409 l 1,10,-1
 702 409 l 1,11,-1
 687 323 l 1,12,-1
 474 323 l 1,13,-1
 432 86 l 1,14,-1
 717 86 l 1,15,-1
 702 0 l 1,16,-1
 417 0 l 1,0,-1
417 611 m 1,17,-1
 214 272 l 1,18,-1
 358 272 l 1,19,-1
 417 611 l 1,17,-1
EndSplineSet
EndChar

StartChar: Eth
Encoding: 208 208 143
Width: 674
Flags: W
LayerCount: 2
Back
Fore
SplineSet
126 0 m 1,0,-1
 34 0 l 1,1,-1
 89 313 l 1,2,-1
 3 313 l 1,3,-1
 14 377 l 1,4,-1
 100 377 l 1,5,-1
 157 700 l 1,6,-1
 389 700 l 2,7,8
 447 700 447 700 494.5 681 c 128,-1,9
 542 662 542 662 576 626 c 128,-1,10
 610 590 610 590 628 538.5 c 128,-1,11
 646 487 646 487 646 421 c 0,12,13
 646 324 646 324 616 246 c 128,-1,14
 586 168 586 168 534.5 113.5 c 128,-1,15
 483 59 483 59 414 29.5 c 128,-1,16
 345 0 345 0 266 0 c 2,17,-1
 126 0 l 1,0,-1
234 614 m 1,18,-1
 192 377 l 1,19,-1
 309 377 l 1,20,-1
 297 313 l 1,21,-1
 181 313 l 1,22,-1
 141 87 l 1,23,-1
 281 87 l 2,24,25
 344 87 344 87 393 112.5 c 128,-1,26
 442 138 442 138 475.5 182 c 128,-1,27
 509 226 509 226 526 285.5 c 128,-1,28
 543 345 543 345 543 414 c 0,29,30
 543 504 543 504 501 559 c 128,-1,31
 459 614 459 614 374 614 c 2,32,-1
 234 614 l 1,18,-1
EndSplineSet
EndChar

StartChar: multiply
Encoding: 215 215 150
Width: 413
Flags: W
LayerCount: 2
Back
Fore
SplineSet
281 119 m 1,0,-1
 196 242 l 1,1,-1
 69 119 l 1,2,-1
 36 155 l 1,3,-1
 164 277 l 1,4,-1
 79 399 l 1,5,-1
 125 435 l 1,6,-1
 209 312 l 1,7,-1
 337 435 l 1,8,-1
 370 399 l 1,9,-1
 242 277 l 1,10,-1
 327 155 l 1,11,-1
 281 119 l 1,0,-1
EndSplineSet
EndChar

StartChar: Oslash
Encoding: 216 216 151
Width: 711
Flags: W
LayerCount: 2
Back
Fore
SplineSet
301 -12 m 0,0,1
 261 -12 261 -12 225 -2 c 128,-1,2
 189 8 189 8 154 31 c 1,3,-1
 108 -30 l 1,4,-1
 12 -30 l 1,5,-1
 99 75 l 1,6,7
 73 116 73 116 60 169 c 128,-1,8
 47 222 47 222 47 279 c 0,9,10
 47 375 47 375 77.5 455 c 128,-1,11
 108 535 108 535 160 592.5 c 128,-1,12
 212 650 212 650 281.5 682 c 128,-1,13
 351 714 351 714 429 714 c 0,14,15
 468 714 468 714 503 704.5 c 128,-1,16
 538 695 538 695 572 672 c 1,17,-1
 606 716 l 1,18,-1
 701 716 l 1,19,-1
 628 627 l 1,20,21
 655 587 655 587 669.5 533.5 c 128,-1,22
 684 480 684 480 684 420 c 0,23,24
 684 324 684 324 653.5 244.5 c 128,-1,25
 623 165 623 165 571 108 c 128,-1,26
 519 51 519 51 449 19.5 c 128,-1,27
 379 -12 379 -12 301 -12 c 0,0,1
221 105 m 1,28,29
 247 88 247 88 269.5 82 c 128,-1,30
 292 76 292 76 317 76 c 0,31,32
 379 76 379 76 427.5 104.5 c 128,-1,33
 476 133 476 133 509.5 181 c 128,-1,34
 543 229 543 229 560.5 292 c 128,-1,35
 578 355 578 355 578 424 c 0,36,37
 578 453 578 453 573.5 489 c 128,-1,38
 569 525 569 525 558 548 c 1,39,-1
 221 105 l 1,28,29
413 625 m 0,40,41
 351 625 351 625 303 596.5 c 128,-1,42
 255 568 255 568 222 521 c 128,-1,43
 189 474 189 474 171.5 413 c 128,-1,44
 154 352 154 352 154 287 c 0,45,46
 154 258 154 258 158 223.5 c 128,-1,47
 162 189 162 189 170 156 c 1,48,-1
 506 597 l 1,49,50
 480 613 480 613 459 619 c 128,-1,51
 438 625 438 625 413 625 c 0,40,41
EndSplineSet
EndChar

StartChar: Thorn
Encoding: 222 222 157
Width: 525
Flags: W
LayerCount: 2
Back
Fore
SplineSet
148 125 m 1,0,-1
 126 0 l 1,1,-1
 28 0 l 1,2,-1
 151 700 l 1,3,-1
 249 700 l 1,4,-1
 228 580 l 1,5,-1
 324 580 l 2,6,7
 368 580 368 580 405.5 574 c 128,-1,8
 443 568 443 568 470 550.5 c 128,-1,9
 497 533 497 533 512.5 501.5 c 128,-1,10
 528 470 528 470 528 418 c 0,11,12
 528 334 528 334 502.5 277.5 c 128,-1,13
 477 221 477 221 439.5 187.5 c 128,-1,14
 402 154 402 154 358 139.5 c 128,-1,15
 314 125 314 125 277 125 c 2,16,-1
 148 125 l 1,0,-1
213 495 m 1,17,-1
 163 210 l 1,18,-1
 276 210 l 2,19,20
 319 210 319 210 348 225 c 128,-1,21
 377 240 377 240 395 266 c 128,-1,22
 413 292 413 292 420.5 326 c 128,-1,23
 428 360 428 360 428 399 c 0,24,25
 428 451 428 451 401 473 c 128,-1,26
 374 495 374 495 308 495 c 2,27,-1
 213 495 l 1,17,-1
EndSplineSet
EndChar

StartChar: germandbls
Encoding: 223 223 158
Width: 510
Flags: W
LayerCount: 2
Back
Fore
SplineSet
235 -10 m 0,0,1
 220 -10 220 -10 209.5 -9 c 128,-1,2
 199 -8 199 -8 187 -7 c 1,3,-1
 201 70 l 1,4,5
 243 70 243 70 275 71.5 c 128,-1,6
 307 73 307 73 328 81.5 c 128,-1,7
 349 90 349 90 360 108.5 c 128,-1,8
 371 127 371 127 371 160 c 0,9,10
 371 196 371 196 354.5 225 c 128,-1,11
 338 254 338 254 318 278.5 c 128,-1,12
 298 303 298 303 281.5 324 c 128,-1,13
 265 345 265 345 265 365 c 0,14,15
 265 386 265 386 285.5 409 c 128,-1,16
 306 432 306 432 330.5 460.5 c 128,-1,17
 355 489 355 489 375.5 524 c 128,-1,18
 396 559 396 559 396 604 c 0,19,20
 396 643 396 643 375 656.5 c 128,-1,21
 354 670 354 670 325 670 c 0,22,23
 303 670 303 670 286 664.5 c 128,-1,24
 269 659 269 659 256 645 c 128,-1,25
 243 631 243 631 233.5 607.5 c 128,-1,26
 224 584 224 584 218 548 c 2,27,-1
 97 -136 l 1,28,-1
 6 -136 l 1,29,-1
 104 420 l 1,30,-1
 32 420 l 1,31,-1
 54 490 l 1,32,-1
 117 490 l 1,33,-1
 132 577 l 2,34,35
 139 619 139 619 158.5 651 c 128,-1,36
 178 683 178 683 206 705 c 128,-1,37
 234 727 234 727 267.5 738.5 c 128,-1,38
 301 750 301 750 336 750 c 0,39,40
 363 750 363 750 390 742.5 c 128,-1,41
 417 735 417 735 438.5 719 c 128,-1,42
 460 703 460 703 473.5 677 c 128,-1,43
 487 651 487 651 487 615 c 0,44,45
 487 562 487 562 468 522.5 c 128,-1,46
 449 483 449 483 426 454 c 128,-1,47
 403 425 403 425 384 406 c 128,-1,48
 365 387 365 387 365 376 c 0,49,50
 365 364 365 364 380.5 346.5 c 128,-1,51
 396 329 396 329 415 304 c 128,-1,52
 434 279 434 279 449.5 246 c 128,-1,53
 465 213 465 213 465 170 c 0,54,55
 465 121 465 121 445 86.5 c 128,-1,56
 425 52 425 52 392.5 30.5 c 128,-1,57
 360 9 360 9 319 -0.5 c 128,-1,58
 278 -10 278 -10 235 -10 c 0,0,1
EndSplineSet
EndChar

StartChar: ae
Encoding: 230 230 165
Width: 728
Flags: W
LayerCount: 2
Back
Fore
SplineSet
387 245 m 1,0,1
 385 232 385 232 384 220.5 c 128,-1,2
 383 209 383 209 383 198 c 0,3,4
 383 129 383 129 414.5 95.5 c 128,-1,5
 446 62 446 62 497 62 c 0,6,7
 529 62 529 62 561 72 c 128,-1,8
 593 82 593 82 630 99 c 1,9,-1
 630 30 l 1,10,11
 596 13 596 13 558.5 1.5 c 128,-1,12
 521 -10 521 -10 475 -10 c 0,13,14
 409 -10 409 -10 368.5 16 c 128,-1,15
 328 42 328 42 314 103 c 1,16,17
 279 44 279 44 226.5 15 c 128,-1,18
 174 -14 174 -14 111 -14 c 0,19,20
 51 -14 51 -14 21.5 15 c 128,-1,21
 -8 44 -8 44 -8 93 c 0,22,23
 -8 136 -8 136 6.5 168.5 c 128,-1,24
 21 201 21 201 45 224 c 128,-1,25
 69 247 69 247 100.5 262 c 128,-1,26
 132 277 132 277 165.5 286.5 c 128,-1,27
 199 296 199 296 232.5 300.5 c 128,-1,28
 266 305 266 305 294 307 c 1,29,30
 295 314 295 314 295 320 c 128,-1,31
 295 326 295 326 295 332 c 0,32,33
 295 379 295 379 277 399.5 c 128,-1,34
 259 420 259 420 215 420 c 0,35,36
 186 420 186 420 158 412.5 c 128,-1,37
 130 405 130 405 96 391 c 1,38,-1
 100 461 l 1,39,40
 184 500 184 500 255 500 c 0,41,42
 274 500 274 500 295 495.5 c 128,-1,43
 316 491 316 491 333.5 478 c 128,-1,44
 351 465 351 465 362.5 441.5 c 128,-1,45
 374 418 374 418 374 380 c 1,46,47
 388 413 388 413 409 436 c 128,-1,48
 430 459 430 459 454.5 473.5 c 128,-1,49
 479 488 479 488 506 494 c 128,-1,50
 533 500 533 500 560 500 c 0,51,52
 626 500 626 500 664.5 459.5 c 128,-1,53
 703 419 703 419 703 343 c 0,54,55
 703 314 703 314 697.5 291 c 128,-1,56
 692 268 692 268 684 245 c 1,57,-1
 387 245 l 1,0,1
542 420 m 0,58,59
 497 420 497 420 462 393.5 c 128,-1,60
 427 367 427 367 404 307 c 1,61,-1
 615 307 l 1,62,63
 619 326 619 326 619 345 c 0,64,65
 619 384 619 384 599.5 402 c 128,-1,66
 580 420 580 420 542 420 c 0,58,59
290 245 m 1,67,68
 259 245 259 245 223.5 238 c 128,-1,69
 188 231 188 231 158 215.5 c 128,-1,70
 128 200 128 200 108 174.5 c 128,-1,71
 88 149 88 149 88 112 c 0,72,73
 88 85 88 85 104 73.5 c 128,-1,74
 120 62 120 62 144 62 c 0,75,76
 169 62 169 62 192.5 71.5 c 128,-1,77
 216 81 216 81 236 102.5 c 128,-1,78
 256 124 256 124 270 159 c 128,-1,79
 284 194 284 194 290 245 c 1,67,68
EndSplineSet
Substitution2: "'smcp' Lowercase to Small Capitals in Latin lookup 1 subtable" AE.sc
Substitution2: "'aalt' Access All Alternates in Latin lookup 0 subtable" AE.sc
EndChar

StartChar: eth
Encoding: 240 240 175
Width: 487
Flags: W
LayerCount: 2
Back
Fore
SplineSet
177 -12 m 0,0,1
 139 -12 139 -12 108.5 1 c 128,-1,2
 78 14 78 14 56 38 c 128,-1,3
 34 62 34 62 22 94.5 c 128,-1,4
 10 127 10 127 10 166 c 0,5,6
 10 206 10 206 25.5 252 c 128,-1,7
 41 298 41 298 71 336.5 c 128,-1,8
 101 375 101 375 144.5 400.5 c 128,-1,9
 188 426 188 426 244 426 c 0,10,11
 288 426 288 426 312.5 407.5 c 128,-1,12
 337 389 337 389 350 371 c 1,13,14
 351 377 351 377 351 383.5 c 128,-1,15
 351 390 351 390 351 397 c 0,16,17
 351 418 351 418 348.5 442 c 128,-1,18
 346 466 346 466 341 488.5 c 128,-1,19
 336 511 336 511 328.5 529.5 c 128,-1,20
 321 548 321 548 311 560 c 1,21,22
 239 507 239 507 175 498 c 1,23,-1
 155 553 l 1,24,25
 179 557 179 557 209 568 c 128,-1,26
 239 579 239 579 277 605 c 1,27,28
 256 631 256 631 230.5 643 c 128,-1,29
 205 655 205 655 178 659 c 1,30,-1
 217 701 l 1,31,32
 246 701 246 701 278 688 c 128,-1,33
 310 675 310 675 341 646 c 1,34,35
 362 666 362 666 376.5 680 c 128,-1,36
 391 694 391 694 404 710 c 1,37,-1
 449 698 l 1,38,39
 432 677 432 677 414.5 658.5 c 128,-1,40
 397 640 397 640 372 614 c 1,41,42
 389 592 389 592 402.5 561 c 128,-1,43
 416 530 416 530 425 494.5 c 128,-1,44
 434 459 434 459 438.5 420 c 128,-1,45
 443 381 443 381 443 342 c 0,46,47
 443 235 443 235 416.5 166.5 c 128,-1,48
 390 98 390 98 350 58.5 c 128,-1,49
 310 19 310 19 263.5 3.5 c 128,-1,50
 217 -12 217 -12 177 -12 c 0,0,1
242 343 m 0,51,52
 212 343 212 343 187 329 c 128,-1,53
 162 315 162 315 144.5 292.5 c 128,-1,54
 127 270 127 270 117 241 c 128,-1,55
 107 212 107 212 107 181 c 0,56,57
 107 135 107 135 128.5 103 c 128,-1,58
 150 71 150 71 194 71 c 0,59,60
 220 71 220 71 244 84 c 128,-1,61
 268 97 268 97 286 119.5 c 128,-1,62
 304 142 304 142 315 172.5 c 128,-1,63
 326 203 326 203 326 238 c 0,64,65
 326 285 326 285 305 314 c 128,-1,66
 284 343 284 343 242 343 c 0,51,52
EndSplineSet
EndChar

StartChar: divide
Encoding: 247 247 182
Width: 550
Flags: W
LayerCount: 2
Back
Fore
SplineSet
250 440 m 1,0,-1
 267 534 l 1,1,-1
 357 534 l 1,2,-1
 341 440 l 1,3,-1
 250 440 l 1,0,-1
58 245 m 1,4,-1
 71 319 l 1,5,-1
 485 319 l 1,6,-1
 472 245 l 1,7,-1
 58 245 l 1,4,-1
176 20 m 1,8,-1
 193 114 l 1,9,-1
 283 114 l 1,10,-1
 267 20 l 1,11,-1
 176 20 l 1,8,-1
EndSplineSet
EndChar

StartChar: oslash
Encoding: 248 248 183
Width: 527
Flags: W
LayerCount: 2
Back
Fore
SplineSet
211 -14 m 0,0,1
 194 -14 194 -14 177 -11.5 c 128,-1,2
 160 -9 160 -9 140 -3 c 1,3,-1
 117 -41 l 1,4,-1
 43 -41 l 1,5,-1
 84 25 l 1,6,7
 53 57 53 57 38 102 c 128,-1,8
 23 147 23 147 23 196 c 0,9,10
 23 255 23 255 43 310 c 128,-1,11
 63 365 63 365 100 407 c 128,-1,12
 137 449 137 449 188 474.5 c 128,-1,13
 239 500 239 500 301 500 c 0,14,15
 318 500 318 500 333.5 497.5 c 128,-1,16
 349 495 349 495 369 488 c 1,17,-1
 393 528 l 1,18,-1
 469 528 l 1,19,-1
 426 462 l 1,20,21
 458 429 458 429 473.5 383.5 c 128,-1,22
 489 338 489 338 489 289 c 0,23,24
 489 229 489 229 469 174.5 c 128,-1,25
 449 120 449 120 412.5 78 c 128,-1,26
 376 36 376 36 324.5 11 c 128,-1,27
 273 -14 273 -14 211 -14 c 0,0,1
184 62 m 1,28,29
 201 58 201 58 209 57 c 128,-1,30
 217 56 217 56 224 56 c 0,31,32
 262 56 262 56 293 75.5 c 128,-1,33
 324 95 324 95 346.5 128.5 c 128,-1,34
 369 162 369 162 381.5 207.5 c 128,-1,35
 394 253 394 253 394 304 c 0,36,37
 394 327 394 327 390.5 354 c 128,-1,38
 387 381 387 381 378 392 c 1,39,-1
 184 62 l 1,28,29
288 430 m 0,40,41
 250 430 250 430 219 411 c 128,-1,42
 188 392 188 392 165.5 360 c 128,-1,43
 143 328 143 328 131 286.5 c 128,-1,44
 119 245 119 245 119 200 c 0,45,46
 119 179 119 179 122 151 c 128,-1,47
 125 123 125 123 133 94 c 1,48,-1
 325 423 l 1,49,50
 308 428 308 428 301.5 429 c 128,-1,51
 295 430 295 430 288 430 c 0,40,41
EndSplineSet
EndChar

StartChar: thorn
Encoding: 254 254 189
Width: 536
Flags: W
LayerCount: 2
Back
Fore
SplineSet
225 -10 m 0,0,1
 143 -10 143 -10 110 56 c 1,2,-1
 58 -241 l 1,3,-1
 -33 -241 l 1,4,-1
 142 750 l 1,5,-1
 233 750 l 1,6,-1
 178 438 l 1,7,8
 210 470 210 470 244.5 485 c 128,-1,9
 279 500 279 500 319 500 c 0,10,11
 363 500 363 500 396.5 483.5 c 128,-1,12
 430 467 430 467 452.5 439 c 128,-1,13
 475 411 475 411 486 373.5 c 128,-1,14
 497 336 497 336 497 294 c 0,15,16
 497 235 497 235 478 180.5 c 128,-1,17
 459 126 459 126 423.5 83.5 c 128,-1,18
 388 41 388 41 337.5 15.5 c 128,-1,19
 287 -10 287 -10 225 -10 c 0,0,1
294 420 m 0,20,21
 250 420 250 420 219.5 400.5 c 128,-1,22
 189 381 189 381 169.5 349.5 c 128,-1,23
 150 318 150 318 141 277.5 c 128,-1,24
 132 237 132 237 132 195 c 0,25,26
 132 167 132 167 137.5 142.5 c 128,-1,27
 143 118 143 118 155 100 c 128,-1,28
 167 82 167 82 185.5 72 c 128,-1,29
 204 62 204 62 231 62 c 0,30,31
 271 62 271 62 303 80.5 c 128,-1,32
 335 99 335 99 357.5 129.5 c 128,-1,33
 380 160 380 160 392 200.5 c 128,-1,34
 404 241 404 241 404 286 c 0,35,36
 404 346 404 346 376.5 383 c 128,-1,37
 349 420 349 420 294 420 c 0,20,21
EndSplineSet
EndChar

StartChar: dotlessi
Encoding: 305 305 193
Width: 214
Flags: W
LayerCount: 2
Back
Fore
SplineSet
10 0 m 1,0,-1
 96 490 l 1,1,-1
 187 490 l 1,2,-1
 101 0 l 1,3,-1
 10 0 l 1,0,-1
EndSplineSet
EndChar

StartChar: OE
Encoding: 338 338 194
Width: 975
Flags: W
LayerCount: 2
Back
Fore
SplineSet
607 0 m 1,0,-1
 512 0 l 1,1,-1
 526 83 l 1,2,3
 460 29 460 29 406 7.5 c 128,-1,4
 352 -14 352 -14 297 -14 c 0,5,6
 240 -14 240 -14 194 6.5 c 128,-1,7
 148 27 148 27 115 65 c 128,-1,8
 82 103 82 103 64.5 157 c 128,-1,9
 47 211 47 211 47 277 c 0,10,11
 47 374 47 374 77 454 c 128,-1,12
 107 534 107 534 159 592 c 128,-1,13
 211 650 211 650 280 682 c 128,-1,14
 349 714 349 714 426 714 c 0,15,16
 481 714 481 714 527.5 692.5 c 128,-1,17
 574 671 574 671 620 617 c 1,18,-1
 635 699 l 1,19,-1
 1003 699 l 1,20,-1
 988 614 l 1,21,-1
 713 614 l 1,22,-1
 677 409 l 1,23,-1
 888 409 l 1,24,-1
 873 323 l 1,25,-1
 662 323 l 1,26,-1
 620 86 l 1,27,-1
 903 86 l 1,28,-1
 888 0 l 1,29,-1
 607 0 l 1,0,-1
410 628 m 0,30,31
 347 628 347 628 298.5 599.5 c 128,-1,32
 250 571 250 571 217 523 c 128,-1,33
 184 475 184 475 166.5 412.5 c 128,-1,34
 149 350 149 350 149 283 c 0,35,36
 149 238 149 238 158.5 199 c 128,-1,37
 168 160 168 160 188.5 132 c 128,-1,38
 209 104 209 104 239.5 88 c 128,-1,39
 270 72 270 72 312 72 c 0,40,41
 375 72 375 72 423.5 100.5 c 128,-1,42
 472 129 472 129 505 177 c 128,-1,43
 538 225 538 225 555.5 287.5 c 128,-1,44
 573 350 573 350 573 417 c 0,45,46
 573 462 573 462 563 501 c 128,-1,47
 553 540 553 540 533 568 c 128,-1,48
 513 596 513 596 482.5 612 c 128,-1,49
 452 628 452 628 410 628 c 0,30,31
EndSplineSet
EndChar

StartChar: oe
Encoding: 339 339 195
Width: 822
Flags: W
LayerCount: 2
Back
Fore
SplineSet
475 245 m 1,0,1
 473 230 473 230 471.5 216 c 128,-1,2
 470 202 470 202 470 190 c 0,3,4
 470 149 470 149 481 124 c 128,-1,5
 492 99 492 99 508.5 85.5 c 128,-1,6
 525 72 525 72 544.5 67 c 128,-1,7
 564 62 564 62 582 62 c 0,8,9
 618 62 618 62 657.5 72.5 c 128,-1,10
 697 83 697 83 728 99 c 1,11,-1
 722 22 l 1,12,13
 695 9 695 9 657.5 -0.5 c 128,-1,14
 620 -10 620 -10 575 -10 c 0,15,16
 496 -10 496 -10 455 17 c 128,-1,17
 414 44 414 44 400 97 c 1,18,19
 368 44 368 44 315 17 c 128,-1,20
 262 -10 262 -10 205 -10 c 0,21,22
 160 -10 160 -10 126 6 c 128,-1,23
 92 22 92 22 68.5 50.5 c 128,-1,24
 45 79 45 79 33.5 117.5 c 128,-1,25
 22 156 22 156 22 200 c 0,26,27
 22 261 22 261 41.5 315.5 c 128,-1,28
 61 370 61 370 97 411 c 128,-1,29
 133 452 133 452 184 476 c 128,-1,30
 235 500 235 500 297 500 c 0,31,32
 322 500 322 500 347 494 c 128,-1,33
 372 488 372 488 392.5 475.5 c 128,-1,34
 413 463 413 463 428.5 443.5 c 128,-1,35
 444 424 444 424 451 398 c 1,36,37
 486 450 486 450 536.5 475 c 128,-1,38
 587 500 587 500 634 500 c 0,39,40
 708 500 708 500 752 456.5 c 128,-1,41
 796 413 796 413 796 335 c 0,42,43
 796 313 796 313 794 298.5 c 128,-1,44
 792 284 792 284 789 274.5 c 128,-1,45
 786 265 786 265 783 258 c 128,-1,46
 780 251 780 251 778 245 c 1,47,-1
 475 245 l 1,0,1
620 420 m 0,48,49
 574 420 574 420 541.5 394 c 128,-1,50
 509 368 509 368 488 307 c 1,51,-1
 701 307 l 1,52,53
 702 314 702 314 702.5 320 c 128,-1,54
 703 326 703 326 703 332 c 0,55,56
 703 374 703 374 682 397 c 128,-1,57
 661 420 661 420 620 420 c 0,48,49
283 420 m 0,58,59
 242 420 242 420 211 403.5 c 128,-1,60
 180 387 180 387 158 358 c 128,-1,61
 136 329 136 329 125 288.5 c 128,-1,62
 114 248 114 248 114 200 c 0,63,64
 114 139 114 139 140.5 104.5 c 128,-1,65
 167 70 167 70 221 70 c 0,66,67
 261 70 261 70 291.5 88.5 c 128,-1,68
 322 107 322 107 343 137.5 c 128,-1,69
 364 168 364 168 375 207 c 128,-1,70
 386 246 386 246 386 288 c 0,71,72
 386 346 386 346 360.5 383 c 128,-1,73
 335 420 335 420 283 420 c 0,58,59
EndSplineSet
Substitution2: "'smcp' Lowercase to Small Capitals in Latin lookup 1 subtable" OE.sc
Substitution2: "'aalt' Access All Alternates in Latin lookup 0 subtable" OE.sc
EndChar

StartChar: florin
Encoding: 402 402 201
Width: 327
Flags: W
LayerCount: 2
Back
Fore
SplineSet
396 648 m 1,0,1
 388 653 388 653 380 654.5 c 128,-1,2
 372 656 372 656 364 656 c 0,3,4
 338 656 338 656 319 646.5 c 128,-1,5
 300 637 300 637 284 617 c 128,-1,6
 268 597 268 597 255 565.5 c 128,-1,7
 242 534 242 534 228 490 c 1,8,-1
 356 490 l 1,9,-1
 340 434 l 1,10,-1
 208 434 l 1,11,-1
 40 -92 l 2,12,13
 25 -137 25 -137 6.5 -166 c 128,-1,14
 -12 -195 -12 -195 -30 -211.5 c 128,-1,15
 -48 -228 -48 -228 -64 -234.5 c 128,-1,16
 -80 -241 -80 -241 -90 -241 c 2,17,-1
 -106 -241 l 1,18,-1
 -109 -178 l 1,19,20
 -82 -172 -82 -172 -62.5 -149 c 128,-1,21
 -43 -126 -43 -126 -28 -77 c 2,22,-1
 131 434 l 1,23,-1
 51 434 l 1,24,-1
 68 490 l 1,25,-1
 150 490 l 1,26,-1
 168 551 l 2,27,28
 180 591 180 591 200 621.5 c 128,-1,29
 220 652 220 652 246 672.5 c 128,-1,30
 272 693 272 693 302 703.5 c 128,-1,31
 332 714 332 714 363 714 c 0,32,33
 376 714 376 714 388 711 c 128,-1,34
 400 708 400 708 413 703 c 1,35,-1
 396 648 l 1,0,1
EndSplineSet
EndChar

StartChar: dotlessj
Encoding: 567 567 202
Width: 214
Flags: W
LayerCount: 2
Back
Fore
SplineSet
-85 -242 m 1,0,-1
 -82 -173 l 1,1,2
 -63 -171 -63 -171 -50 -166 c 128,-1,3
 -37 -161 -37 -161 -28.5 -150.5 c 128,-1,4
 -20 -140 -20 -140 -14 -121.5 c 128,-1,5
 -8 -103 -8 -103 -3 -73 c 2,6,-1
 96 490 l 1,7,-1
 187 490 l 1,8,-1
 82 -107 l 2,9,10
 76 -142 76 -142 62 -165.5 c 128,-1,11
 48 -189 48 -189 30 -204 c 128,-1,12
 12 -219 12 -219 -9.5 -226.5 c 128,-1,13
 -31 -234 -31 -234 -53 -237 c 2,14,-1
 -85 -242 l 1,0,-1
EndSplineSet
EndChar

StartChar: circumflex
Encoding: 710 710 203
Width: 402
Flags: W
LayerCount: 2
Back
Fore
SplineSet
322 685 m 1,0,-1
 175 603 l 1,1,-1
 181 639 l 1,2,-1
 332 745 l 1,3,-1
 446 639 l 1,4,-1
 440 603 l 1,5,-1
 322 685 l 1,0,-1
EndSplineSet
EndChar

StartChar: caron
Encoding: 711 711 204
Width: 402
Flags: W
LayerCount: 2
Back
Fore
SplineSet
307 600 m 1,0,-1
 192 699 l 1,1,-1
 199 740 l 1,2,-1
 318 664 l 1,3,-1
 464 740 l 1,4,-1
 457 699 l 1,5,-1
 307 600 l 1,0,-1
EndSplineSet
EndChar

StartChar: ring
Encoding: 730 730 205
Width: 262
Flags: W
LayerCount: 2
Back
Fore
SplineSet
233 576 m 0,0,1
 192 576 192 576 172.5 599 c 128,-1,2
 153 622 153 622 153 651 c 0,3,4
 153 670 153 670 161 689 c 128,-1,5
 169 708 169 708 183.5 722.5 c 128,-1,6
 198 737 198 737 218.5 746 c 128,-1,7
 239 755 239 755 264 755 c 0,8,9
 305 755 305 755 324 732 c 128,-1,10
 343 709 343 709 343 679 c 0,11,12
 343 660 343 660 335.5 641.5 c 128,-1,13
 328 623 328 623 314 608.5 c 128,-1,14
 300 594 300 594 279.5 585 c 128,-1,15
 259 576 259 576 233 576 c 0,0,1
259 724 m 0,16,17
 236 724 236 724 217 704.5 c 128,-1,18
 198 685 198 685 198 653 c 0,19,20
 198 631 198 631 209.5 618 c 128,-1,21
 221 605 221 605 238 605 c 0,22,23
 261 605 261 605 280 624.5 c 128,-1,24
 299 644 299 644 299 676 c 0,25,26
 299 697 299 697 287.5 710.5 c 128,-1,27
 276 724 276 724 259 724 c 0,16,17
EndSplineSet
EndChar

StartChar: tilde
Encoding: 732 732 206
Width: 476
Flags: W
LayerCount: 2
Back
Fore
SplineSet
405 599 m 0,0,1
 390 599 390 599 375.5 607 c 128,-1,2
 361 615 361 615 347.5 624.5 c 128,-1,3
 334 634 334 634 321 642 c 128,-1,4
 308 650 308 650 296 650 c 0,5,6
 272 650 272 650 256.5 637 c 128,-1,7
 241 624 241 624 230 601 c 1,8,-1
 186 610 l 1,9,10
 195 635 195 635 208.5 652 c 128,-1,11
 222 669 222 669 238 679.5 c 128,-1,12
 254 690 254 690 270.5 695 c 128,-1,13
 287 700 287 700 301 700 c 0,14,15
 317 700 317 700 331.5 692.5 c 128,-1,16
 346 685 346 685 360 675.5 c 128,-1,17
 374 666 374 666 387 658.5 c 128,-1,18
 400 651 400 651 412 651 c 0,19,20
 433 651 433 651 449.5 664.5 c 128,-1,21
 466 678 466 678 480 702 c 1,22,-1
 521 693 l 1,23,24
 504 649 504 649 473.5 624 c 128,-1,25
 443 599 443 599 405 599 c 0,0,1
EndSplineSet
EndChar

StartChar: endash
Encoding: 8211 8211 207
Width: 466
Flags: W
LayerCount: 2
Back
Fore
SplineSet
48 238 m 1,0,-1
 63 324 l 1,1,-1
 412 324 l 1,2,-1
 397 238 l 1,3,-1
 48 238 l 1,0,-1
EndSplineSet
EndChar

StartChar: emdash
Encoding: 8212 8212 208
Width: 549
Flags: W
LayerCount: 2
Back
Fore
SplineSet
48 238 m 1,0,-1
 63 324 l 1,1,-1
 495 324 l 1,2,-1
 480 238 l 1,3,-1
 48 238 l 1,0,-1
EndSplineSet
EndChar

StartChar: quoteleft
Encoding: 8216 8216 209
Width: 186
Flags: W
LayerCount: 2
Back
Fore
SplineSet
200 750 m 1,0,-1
 220 737 l 1,1,-1
 173 650 l 1,2,-1
 202 641 l 1,3,-1
 187 555 l 1,4,-1
 90 555 l 1,5,-1
 105 641 l 1,6,-1
 200 750 l 1,0,-1
EndSplineSet
EndChar

StartChar: quoteright
Encoding: 8217 8217 210
Width: 169
Flags: W
LayerCount: 2
Back
Fore
SplineSet
109 555 m 1,0,-1
 90 568 l 1,1,-1
 136 655 l 1,2,-1
 108 664 l 1,3,-1
 123 750 l 1,4,-1
 220 750 l 1,5,-1
 204 664 l 1,6,-1
 109 555 l 1,0,-1
EndSplineSet
EndChar

StartChar: quotesinglbase
Encoding: 8218 8218 211
Width: 215
Flags: W
LayerCount: 2
Back
Fore
SplineSet
9 -109 m 1,0,-1
 -10 -96 l 1,1,-1
 36 -9 l 1,2,-1
 8 0 l 1,3,-1
 23 86 l 1,4,-1
 120 86 l 1,5,-1
 104 0 l 1,6,-1
 9 -109 l 1,0,-1
EndSplineSet
EndChar

StartChar: quotedblleft
Encoding: 8220 8220 212
Width: 375
Flags: W
LayerCount: 2
Back
Fore
SplineSet
200 750 m 1,0,-1
 220 737 l 1,1,-1
 173 650 l 1,2,-1
 202 641 l 1,3,-1
 187 555 l 1,4,-1
 90 555 l 1,5,-1
 105 641 l 1,6,-1
 200 750 l 1,0,-1
389 750 m 1,7,-1
 409 737 l 1,8,-1
 362 650 l 1,9,-1
 391 641 l 1,10,-1
 376 555 l 1,11,-1
 279 555 l 1,12,-1
 294 641 l 1,13,-1
 389 750 l 1,7,-1
EndSplineSet
EndChar

StartChar: quotedblright
Encoding: 8221 8221 213
Width: 358
Flags: W
LayerCount: 2
Back
Fore
SplineSet
298 555 m 1,0,-1
 279 568 l 1,1,-1
 325 655 l 1,2,-1
 297 664 l 1,3,-1
 312 750 l 1,4,-1
 409 750 l 1,5,-1
 393 664 l 1,6,-1
 298 555 l 1,0,-1
109 555 m 1,7,-1
 90 568 l 1,8,-1
 136 655 l 1,9,-1
 108 664 l 1,10,-1
 123 750 l 1,11,-1
 220 750 l 1,12,-1
 204 664 l 1,13,-1
 109 555 l 1,7,-1
EndSplineSet
EndChar

StartChar: quotedblbase
Encoding: 8222 8222 214
Width: 422
Flags: W
LayerCount: 2
Back
Fore
SplineSet
9 -109 m 1,0,-1
 -10 -96 l 1,1,-1
 36 -9 l 1,2,-1
 8 0 l 1,3,-1
 23 86 l 1,4,-1
 120 86 l 1,5,-1
 104 0 l 1,6,-1
 9 -109 l 1,0,-1
216 -109 m 1,7,-1
 197 -96 l 1,8,-1
 243 -9 l 1,9,-1
 215 0 l 1,10,-1
 230 86 l 1,11,-1
 327 86 l 1,12,-1
 311 0 l 1,13,-1
 216 -109 l 1,7,-1
EndSplineSet
EndChar

StartChar: dagger
Encoding: 8224 8224 215
Width: 401
Flags: W
LayerCount: 2
Back
Fore
SplineSet
250 403 m 1,0,-1
 250 252 l 1,1,-1
 178 0 l 1,2,-1
 117 0 l 1,3,-1
 134 252 l 1,4,-1
 194 403 l 1,5,-1
 54 373 l 1,6,-1
 69 458 l 1,7,-1
 199 427 l 1,8,-1
 199 607 l 1,9,-1
 310 607 l 1,10,-1
 249 427 l 1,11,-1
 388 458 l 1,12,-1
 373 373 l 1,13,-1
 250 403 l 1,0,-1
EndSplineSet
EndChar

StartChar: daggerdbl
Encoding: 8225 8225 216
Width: 425
Flags: W
LayerCount: 2
Back
Fore
SplineSet
206 118 m 1,0,-1
 206 -59 l 1,1,-1
 95 -59 l 1,2,-1
 155 118 l 1,3,-1
 17 88 l 1,4,-1
 32 172 l 1,5,-1
 162 142 l 1,6,-1
 151 274 l 1,7,-1
 209 407 l 1,8,-1
 68 377 l 1,9,-1
 83 461 l 1,10,-1
 213 431 l 1,11,-1
 213 607 l 1,12,-1
 323 607 l 1,13,-1
 263 431 l 1,14,-1
 401 461 l 1,15,-1
 387 377 l 1,16,-1
 256 407 l 1,17,-1
 267 274 l 1,18,-1
 209 142 l 1,19,-1
 350 172 l 1,20,-1
 336 88 l 1,21,-1
 206 118 l 1,0,-1
EndSplineSet
EndChar

StartChar: bullet
Encoding: 8226 8226 217
Width: 287
Flags: W
LayerCount: 2
Back
Fore
SplineSet
121 169 m 0,0,1
 85 169 85 169 62.5 196 c 128,-1,2
 40 223 40 223 40 261 c 0,3,4
 40 286 40 286 50 309 c 128,-1,5
 60 332 60 332 77 349.5 c 128,-1,6
 94 367 94 367 115 377 c 128,-1,7
 136 387 136 387 159 387 c 0,8,9
 195 387 195 387 217.5 360 c 128,-1,10
 240 333 240 333 240 295 c 0,11,12
 240 269 240 269 230 246.5 c 128,-1,13
 220 224 220 224 203 206.5 c 128,-1,14
 186 189 186 189 164.5 179 c 128,-1,15
 143 169 143 169 121 169 c 0,0,1
EndSplineSet
EndChar

StartChar: ellipsis
Encoding: 8230 8230 218
Width: 633
Flags: W
LayerCount: 2
Back
Fore
SplineSet
7 0 m 1,0,-1
 22 86 l 1,1,-1
 113 86 l 1,2,-1
 98 0 l 1,3,-1
 7 0 l 1,0,-1
219 0 m 1,4,-1
 235 86 l 1,5,-1
 325 86 l 1,6,-1
 310 0 l 1,7,-1
 219 0 l 1,4,-1
432 0 m 1,8,-1
 447 86 l 1,9,-1
 538 86 l 1,10,-1
 523 0 l 1,11,-1
 432 0 l 1,8,-1
EndSplineSet
EndChar

StartChar: perthousand
Encoding: 8240 8240 219
Width: 1096
Flags: W
LayerCount: 2
Back
Fore
SplineSet
171 -12 m 1,0,-1
 95 -12 l 1,1,-1
 600 700 l 1,2,-1
 675 700 l 1,3,-1
 171 -12 l 1,0,-1
179 333 m 0,4,5
 130 333 130 333 101.5 368.5 c 128,-1,6
 73 404 73 404 73 470 c 0,7,8
 73 525 73 525 88 568.5 c 128,-1,9
 103 612 103 612 127.5 642.5 c 128,-1,10
 152 673 152 673 184 689 c 128,-1,11
 216 705 216 705 249 705 c 0,12,13
 297 705 297 705 325.5 669 c 128,-1,14
 354 633 354 633 354 567 c 0,15,16
 354 514 354 514 340.5 470.5 c 128,-1,17
 327 427 327 427 303 396.5 c 128,-1,18
 279 366 279 366 247 349.5 c 128,-1,19
 215 333 215 333 179 333 c 0,4,5
239 653 m 0,20,21
 220 653 220 653 201 640.5 c 128,-1,22
 182 628 182 628 166.5 604.5 c 128,-1,23
 151 581 151 581 141.5 549.5 c 128,-1,24
 132 518 132 518 132 481 c 0,25,26
 132 437 132 437 147.5 411 c 128,-1,27
 163 385 163 385 189 385 c 0,28,29
 210 385 210 385 229 398 c 128,-1,30
 248 411 248 411 263 434.5 c 128,-1,31
 278 458 278 458 286.5 489 c 128,-1,32
 295 520 295 520 295 556 c 0,33,34
 295 601 295 601 279.5 627 c 128,-1,35
 264 653 264 653 239 653 c 0,20,21
542 -14 m 0,36,37
 493 -14 493 -14 465 21.5 c 128,-1,38
 437 57 437 57 437 123 c 0,39,40
 437 178 437 178 452 221.5 c 128,-1,41
 467 265 467 265 491.5 295.5 c 128,-1,42
 516 326 516 326 547.5 342 c 128,-1,43
 579 358 579 358 612 358 c 0,44,45
 660 358 660 358 689 322 c 128,-1,46
 718 286 718 286 718 220 c 0,47,48
 718 167 718 167 704 123.5 c 128,-1,49
 690 80 690 80 666 49.5 c 128,-1,50
 642 19 642 19 610 2.5 c 128,-1,51
 578 -14 578 -14 542 -14 c 0,36,37
602 306 m 0,52,53
 583 306 583 306 564 293.5 c 128,-1,54
 545 281 545 281 529.5 257.5 c 128,-1,55
 514 234 514 234 504.5 202.5 c 128,-1,56
 495 171 495 171 495 134 c 0,57,58
 495 90 495 90 511 64 c 128,-1,59
 527 38 527 38 552 38 c 0,60,61
 573 38 573 38 592.5 51 c 128,-1,62
 612 64 612 64 627 87.5 c 128,-1,63
 642 111 642 111 650.5 142 c 128,-1,64
 659 173 659 173 659 209 c 0,65,66
 659 254 659 254 643 280 c 128,-1,67
 627 306 627 306 602 306 c 0,52,53
866 -14 m 0,68,69
 817 -14 817 -14 788.5 21.5 c 128,-1,70
 760 57 760 57 760 123 c 0,71,72
 760 178 760 178 775 221.5 c 128,-1,73
 790 265 790 265 814.5 295.5 c 128,-1,74
 839 326 839 326 871 342 c 128,-1,75
 903 358 903 358 936 358 c 0,76,77
 984 358 984 358 1012.5 322 c 128,-1,78
 1041 286 1041 286 1041 220 c 0,79,80
 1041 167 1041 167 1027.5 123.5 c 128,-1,81
 1014 80 1014 80 990 49.5 c 128,-1,82
 966 19 966 19 934 2.5 c 128,-1,83
 902 -14 902 -14 866 -14 c 0,68,69
926 306 m 0,84,85
 907 306 907 306 888 293.5 c 128,-1,86
 869 281 869 281 853.5 257.5 c 128,-1,87
 838 234 838 234 828.5 202.5 c 128,-1,88
 819 171 819 171 819 134 c 0,89,90
 819 90 819 90 834.5 64 c 128,-1,91
 850 38 850 38 876 38 c 0,92,93
 897 38 897 38 916.5 51 c 128,-1,94
 936 64 936 64 951 87.5 c 128,-1,95
 966 111 966 111 974.5 142 c 128,-1,96
 983 173 983 173 983 209 c 0,97,98
 983 254 983 254 967 280 c 128,-1,99
 951 306 951 306 926 306 c 0,84,85
EndSplineSet
EndChar

StartChar: guilsinglleft
Encoding: 8249 8249 220
Width: 309
Flags: W
LayerCount: 2
Back
Fore
SplineSet
122 78 m 1,0,-1
 17 284 l 1,1,-1
 194 490 l 1,2,-1
 303 490 l 1,3,-1
 126 284 l 1,4,-1
 231 78 l 1,5,-1
 122 78 l 1,0,-1
EndSplineSet
EndChar

StartChar: guilsinglright
Encoding: 8250 8250 221
Width: 310
Flags: W
LayerCount: 2
Back
Fore
SplineSet
112 78 m 1,0,-1
 3 78 l 1,1,-1
 180 284 l 1,2,-1
 76 490 l 1,3,-1
 185 490 l 1,4,-1
 289 284 l 1,5,-1
 112 78 l 1,0,-1
EndSplineSet
EndChar

StartChar: zerosuperior
Encoding: 8304 8304 222
Width: 379
Flags: W
LayerCount: 2
Back
Fore
SplineSet
189 312 m 0,0,1
 132 312 132 312 100 353 c 128,-1,2
 68 394 68 394 68 462 c 0,3,4
 68 514 68 514 84.5 558.5 c 128,-1,5
 101 603 101 603 128 636 c 128,-1,6
 155 669 155 669 190.5 687.5 c 128,-1,7
 226 706 226 706 265 706 c 0,8,9
 321 706 321 706 353.5 663.5 c 128,-1,10
 386 621 386 621 386 552 c 0,11,12
 386 501 386 501 371 457.5 c 128,-1,13
 356 414 356 414 330 381.5 c 128,-1,14
 304 349 304 349 267.5 330.5 c 128,-1,15
 231 312 231 312 189 312 c 0,0,1
253 642 m 0,16,17
 235 642 235 642 215 631 c 128,-1,18
 195 620 195 620 178.5 598 c 128,-1,19
 162 576 162 576 151.5 543 c 128,-1,20
 141 510 141 510 141 466 c 0,21,22
 141 419 141 419 158.5 398 c 128,-1,23
 176 377 176 377 202 377 c 0,24,25
 247 377 247 377 280 420 c 128,-1,26
 313 463 313 463 313 547 c 0,27,28
 313 595 313 595 295.5 618.5 c 128,-1,29
 278 642 278 642 253 642 c 0,16,17
EndSplineSet
EndChar

StartChar: foursuperior
Encoding: 8308 8308 223
Width: 313
Flags: W
LayerCount: 2
Back
Fore
SplineSet
261 423 m 1,0,-1
 243 320 l 1,1,-1
 170 320 l 1,2,-1
 189 423 l 1,3,-1
 31 423 l 1,4,-1
 248 698 l 1,5,-1
 310 698 l 1,6,-1
 271 480 l 1,7,-1
 316 480 l 1,8,-1
 306 423 l 1,9,-1
 261 423 l 1,0,-1
218 590 m 1,10,-1
 138 480 l 1,11,-1
 199 480 l 1,12,-1
 218 590 l 1,10,-1
EndSplineSet
EndChar

StartChar: fivesuperior
Encoding: 8309 8309 224
Width: 288
Flags: W
LayerCount: 2
Back
Fore
SplineSet
129 313 m 0,0,1
 110 313 110 313 93.5 316.5 c 128,-1,2
 77 320 77 320 64.5 325.5 c 128,-1,3
 52 331 52 331 44.5 336.5 c 128,-1,4
 37 342 37 342 36 345 c 2,5,-1
 65 410 l 1,6,7
 73 398 73 398 92.5 389.5 c 128,-1,8
 112 381 112 381 139 381 c 0,9,10
 152 381 152 381 165.5 384.5 c 128,-1,11
 179 388 179 388 189.5 396.5 c 128,-1,12
 200 405 200 405 207 419 c 128,-1,13
 214 433 214 433 214 455 c 0,14,15
 214 472 214 472 200.5 484.5 c 128,-1,16
 187 497 187 497 142 497 c 2,17,-1
 82 497 l 1,18,-1
 140 698 l 1,19,-1
 309 698 l 1,20,-1
 288 628 l 1,21,-1
 182 628 l 1,22,-1
 162 557 l 1,23,24
 285 556 285 556 285 467 c 0,25,26
 285 428 285 428 271 399.5 c 128,-1,27
 257 371 257 371 234.5 351.5 c 128,-1,28
 212 332 212 332 184.5 322.5 c 128,-1,29
 157 313 157 313 129 313 c 0,0,1
EndSplineSet
EndChar

StartChar: sixsuperior
Encoding: 8310 8310 225
Width: 302
Flags: W
LayerCount: 2
Back
Fore
SplineSet
152 312 m 0,0,1
 112 312 112 312 86 337 c 128,-1,2
 60 362 60 362 60 420 c 0,3,4
 60 480 60 480 84.5 531 c 128,-1,5
 109 582 109 582 142 619 c 128,-1,6
 175 656 175 656 209 677 c 128,-1,7
 243 698 243 698 263 698 c 1,8,-1
 307 670 l 1,9,10
 293 670 293 670 269.5 656 c 128,-1,11
 246 642 246 642 222 621 c 128,-1,12
 198 600 198 600 178.5 575 c 128,-1,13
 159 550 159 550 153 528 c 1,14,15
 159 534 159 534 167 538 c 128,-1,16
 175 542 175 542 183.5 544 c 128,-1,17
 192 546 192 546 200 546.5 c 128,-1,18
 208 547 208 547 213 547 c 0,19,20
 253 547 253 547 278.5 525 c 128,-1,21
 304 503 304 503 304 459 c 0,22,23
 304 430 304 430 292.5 403.5 c 128,-1,24
 281 377 281 377 260.5 357 c 128,-1,25
 240 337 240 337 212.5 324.5 c 128,-1,26
 185 312 185 312 152 312 c 0,0,1
197 489 m 0,27,28
 168 489 168 489 148.5 472 c 128,-1,29
 129 455 129 455 129 422 c 0,30,31
 129 399 129 399 143 388 c 128,-1,32
 157 377 157 377 171 377 c 0,33,34
 184 377 184 377 196 383 c 128,-1,35
 208 389 208 389 217 399 c 128,-1,36
 226 409 226 409 231 421.5 c 128,-1,37
 236 434 236 434 236 447 c 0,38,39
 236 462 236 462 226.5 475.5 c 128,-1,40
 217 489 217 489 197 489 c 0,27,28
EndSplineSet
EndChar

StartChar: sevensuperior
Encoding: 8311 8311 226
Width: 272
Flags: W
LayerCount: 2
Back
Fore
SplineSet
121 320 m 1,0,-1
 44 320 l 1,1,-1
 218 628 l 1,2,-1
 84 628 l 1,3,-1
 96 698 l 1,4,-1
 338 698 l 1,5,-1
 121 320 l 1,0,-1
EndSplineSet
EndChar

StartChar: eightsuperior
Encoding: 8312 8312 227
Width: 321
Flags: W
LayerCount: 2
Back
Fore
SplineSet
158 312 m 0,0,1
 103 312 103 312 78 339.5 c 128,-1,2
 53 367 53 367 53 403 c 0,3,4
 53 432 53 432 69.5 463.5 c 128,-1,5
 86 495 86 495 124 524 c 1,6,7
 114 535 114 535 110 553 c 128,-1,8
 106 571 106 571 106 588 c 0,9,10
 106 609 106 609 112.5 630.5 c 128,-1,11
 119 652 119 652 134 668.5 c 128,-1,12
 149 685 149 685 174 695.5 c 128,-1,13
 199 706 199 706 235 706 c 0,14,15
 287 706 287 706 307.5 684.5 c 128,-1,16
 328 663 328 663 328 634 c 0,17,18
 328 602 328 602 311.5 575 c 128,-1,19
 295 548 295 548 272 528 c 1,20,21
 289 517 289 517 301.5 495 c 128,-1,22
 314 473 314 473 314 446 c 0,23,24
 314 424 314 424 304.5 400.5 c 128,-1,25
 295 377 295 377 275.5 357.5 c 128,-1,26
 256 338 256 338 226.5 325 c 128,-1,27
 197 312 197 312 158 312 c 0,0,1
223 650 m 0,28,29
 170 650 170 650 170 589 c 0,30,31
 170 577 170 577 176.5 566 c 128,-1,32
 183 555 183 555 203 550 c 1,33,34
 258 564 258 564 258 616 c 0,35,36
 258 630 258 630 250.5 640 c 128,-1,37
 243 650 243 650 223 650 c 0,28,29
199 499 m 1,38,39
 187 497 187 497 173.5 490.5 c 128,-1,40
 160 484 160 484 149 473.5 c 128,-1,41
 138 463 138 463 130.5 448 c 128,-1,42
 123 433 123 433 123 415 c 0,43,44
 123 393 123 393 135.5 381 c 128,-1,45
 148 369 148 369 171 369 c 0,46,47
 207 369 207 369 224.5 389.5 c 128,-1,48
 242 410 242 410 242 440 c 0,49,50
 242 465 242 465 229 479.5 c 128,-1,51
 216 494 216 494 199 499 c 1,38,39
EndSplineSet
EndChar

StartChar: ninesuperior
Encoding: 8313 8313 228
Width: 302
Flags: W
LayerCount: 2
Back
Fore
SplineSet
224 706 m 0,0,1
 266 706 266 706 291.5 680.5 c 128,-1,2
 317 655 317 655 317 598 c 0,3,4
 317 542 317 542 296 491.5 c 128,-1,5
 275 441 275 441 244 403 c 128,-1,6
 213 365 213 365 177 342.5 c 128,-1,7
 141 320 141 320 111 320 c 1,8,-1
 72 348 l 1,9,10
 85 348 85 348 109 359.5 c 128,-1,11
 133 371 133 371 157.5 390.5 c 128,-1,12
 182 410 182 410 202.5 435.5 c 128,-1,13
 223 461 223 461 229 490 c 1,14,15
 216 478 216 478 195.5 474.5 c 128,-1,16
 175 471 175 471 165 471 c 0,17,18
 127 471 127 471 99.5 493 c 128,-1,19
 72 515 72 515 72 560 c 0,20,21
 72 588 72 588 83.5 614.5 c 128,-1,22
 95 641 95 641 115 661 c 128,-1,23
 135 681 135 681 163 693.5 c 128,-1,24
 191 706 191 706 224 706 c 0,0,1
182 529 m 0,25,26
 211 529 211 529 231 546 c 128,-1,27
 251 563 251 563 251 598 c 0,28,29
 251 624 251 624 237 632.5 c 128,-1,30
 223 641 223 641 210 641 c 0,31,32
 195 641 195 641 183 634.5 c 128,-1,33
 171 628 171 628 162.5 618 c 128,-1,34
 154 608 154 608 149.5 595.5 c 128,-1,35
 145 583 145 583 145 571 c 0,36,37
 145 554 145 554 154 541.5 c 128,-1,38
 163 529 163 529 182 529 c 0,25,26
EndSplineSet
EndChar

StartChar: Euro
Encoding: 8364 8364 239
Width: 644
Flags: W
LayerCount: 2
Back
Fore
SplineSet
378 17 m 0,0,1
 287 17 287 17 226 68.5 c 128,-1,2
 165 120 165 120 148 215 c 1,3,-1
 20 215 l 1,4,-1
 55 284 l 1,5,-1
 143 284 l 1,6,7
 145 305 145 305 147 322.5 c 128,-1,8
 149 340 149 340 154 369 c 1,9,-1
 72 369 l 1,10,-1
 108 438 l 1,11,-1
 175 438 l 1,12,13
 198 496 198 496 231.5 541.5 c 128,-1,14
 265 587 265 587 307 618.5 c 128,-1,15
 349 650 349 650 397 666.5 c 128,-1,16
 445 683 445 683 496 683 c 0,17,18
 538 683 538 683 578 674.5 c 128,-1,19
 618 666 618 666 650 649 c 1,20,-1
 621 551 l 1,21,22
 589 568 589 568 555.5 578.5 c 128,-1,23
 522 589 522 589 479 589 c 0,24,25
 412 589 412 589 364.5 549.5 c 128,-1,26
 317 510 317 510 285 438 c 1,27,-1
 515 438 l 1,28,-1
 478 369 l 1,29,-1
 263 369 l 1,30,31
 261 360 261 360 259 348 c 128,-1,32
 257 336 257 336 255.5 323.5 c 128,-1,33
 254 311 254 311 253 300.5 c 128,-1,34
 252 290 252 290 252 284 c 1,35,-1
 470 284 l 1,36,-1
 435 215 l 1,37,-1
 261 215 l 1,38,39
 277 161 277 161 309.5 136 c 128,-1,40
 342 111 342 111 395 111 c 0,41,42
 438 111 438 111 475 121.5 c 128,-1,43
 512 132 512 132 550 149 c 1,44,-1
 544 51 l 1,45,46
 507 34 507 34 464 25.5 c 128,-1,47
 421 17 421 17 378 17 c 0,0,1
EndSplineSet
EndChar

StartChar: trademark
Encoding: 8482 8482 240
Width: 671
Flags: W
LayerCount: 2
Back
Fore
SplineSet
466 443 m 1,0,-1
 417 606 l 1,1,-1
 341 337 l 1,2,-1
 286 337 l 1,3,-1
 393 700 l 1,4,-1
 425 700 l 1,5,-1
 484 521 l 1,6,-1
 605 700 l 1,7,-1
 638 700 l 1,8,-1
 617 337 l 1,9,-1
 560 337 l 1,10,-1
 581 605 l 1,11,-1
 473 443 l 1,12,-1
 466 443 l 1,0,-1
327 650 m 1,13,-1
 239 650 l 1,14,-1
 183 337 l 1,15,-1
 129 337 l 1,16,-1
 184 650 l 1,17,-1
 94 650 l 1,18,-1
 103 700 l 1,19,-1
 342 700 l 1,20,-1
 327 650 l 1,13,-1
EndSplineSet
EndChar

StartChar: M.sc
Encoding: 65537 -1 241
Width: 666
Flags: W
LayerCount: 2
Back
Fore
SplineSet
469 0 m 1,0,-1
 491 392 l 1,1,-1
 303 123 l 1,2,-1
 208 392 l 1,3,-1
 92 0 l 1,4,-1
 -5 0 l 1,5,-1
 168 560 l 1,6,-1
 245 560 l 1,7,-1
 334 297 l 1,8,-1
 514 560 l 1,9,-1
 590 560 l 1,10,-1
 566 0 l 1,11,-1
 469 0 l 1,0,-1
EndSplineSet
EndChar

StartChar: L.sc
Encoding: 65538 -1 242
Width: 406
Flags: W
LayerCount: 2
Back
Fore
SplineSet
21 0 m 1,0,-1
 120 560 l 1,1,-1
 212 560 l 1,2,-1
 129 88 l 1,3,-1
 359 88 l 1,4,-1
 343 0 l 1,5,-1
 21 0 l 1,0,-1
EndSplineSet
EndChar

StartChar: S.sc
Encoding: 65539 -1 243
Width: 478
Flags: W
LayerCount: 2
Back
Fore
SplineSet
177 -11 m 0,0,1
 116 -11 116 -11 71 1 c 128,-1,2
 26 13 26 13 5 28 c 1,3,-1
 35 135 l 1,4,5
 55 113 55 113 95 95 c 128,-1,6
 135 77 135 77 195 77 c 0,7,8
 246 77 246 77 279.5 95 c 128,-1,9
 313 113 313 113 313 158 c 0,10,11
 313 177 313 177 304 191 c 128,-1,12
 295 205 295 205 279.5 215.5 c 128,-1,13
 264 226 264 226 243.5 234.5 c 128,-1,14
 223 243 223 243 201 251 c 0,15,16
 175 260 175 260 150 270.5 c 128,-1,17
 125 281 125 281 105.5 296 c 128,-1,18
 86 311 86 311 73.5 332.5 c 128,-1,19
 61 354 61 354 61 384 c 0,20,21
 61 412 61 412 73.5 445 c 128,-1,22
 86 478 86 478 113 506 c 128,-1,23
 140 534 140 534 183.5 552.5 c 128,-1,24
 227 571 227 571 289 571 c 0,25,26
 344 571 344 571 389 557.5 c 128,-1,27
 434 544 434 544 453 530 c 1,28,-1
 427 434 l 1,29,30
 389 457 389 457 353 470.5 c 128,-1,31
 317 484 317 484 278 484 c 0,32,33
 259 484 259 484 238.5 480.5 c 128,-1,34
 218 477 218 477 200.5 468 c 128,-1,35
 183 459 183 459 171.5 444.5 c 128,-1,36
 160 430 160 430 160 408 c 0,37,38
 160 393 160 393 168 381.5 c 128,-1,39
 176 370 176 370 189 361 c 128,-1,40
 202 352 202 352 219.5 345 c 128,-1,41
 237 338 237 338 257 331 c 0,42,43
 285 322 285 322 313.5 310.5 c 128,-1,44
 342 299 342 299 365 282 c 128,-1,45
 388 265 388 265 403 239.5 c 128,-1,46
 418 214 418 214 418 176 c 0,47,48
 418 143 418 143 406 109.5 c 128,-1,49
 394 76 394 76 366.5 49 c 128,-1,50
 339 22 339 22 292.5 5.5 c 128,-1,51
 246 -11 246 -11 177 -11 c 0,0,1
EndSplineSet
EndChar

StartChar: J.sc
Encoding: 65540 -1 244
Width: 238
Flags: W
LayerCount: 2
Back
Fore
SplineSet
-61 -138 m 1,0,-1
 -57 -72 l 1,1,-1
 -41 -72 l 2,2,3
 -12 -72 -12 -72 1 -54.5 c 128,-1,4
 14 -37 14 -37 21 1 c 2,5,-1
 120 560 l 1,6,-1
 212 560 l 1,7,-1
 109 -22 l 2,8,9
 99 -80 99 -80 61 -109 c 128,-1,10
 23 -138 23 -138 -37 -138 c 2,11,-1
 -61 -138 l 1,0,-1
EndSplineSet
EndChar

StartChar: O.sc
Encoding: 65541 -1 245
Width: 620
Flags: W
LayerCount: 2
Back
Fore
SplineSet
256 -11 m 0,0,1
 205 -11 205 -11 164 6 c 128,-1,2
 123 23 123 23 94 53.5 c 128,-1,3
 65 84 65 84 49.5 128 c 128,-1,4
 34 172 34 172 34 226 c 0,5,6
 34 302 34 302 59.5 365.5 c 128,-1,7
 85 429 85 429 129.5 475 c 128,-1,8
 174 521 174 521 233 546 c 128,-1,9
 292 571 292 571 358 571 c 0,10,11
 409 571 409 571 450 554 c 128,-1,12
 491 537 491 537 520 506.5 c 128,-1,13
 549 476 549 476 564.5 432 c 128,-1,14
 580 388 580 388 580 334 c 0,15,16
 580 257 580 257 554.5 194 c 128,-1,17
 529 131 529 131 484.5 85 c 128,-1,18
 440 39 440 39 381 14 c 128,-1,19
 322 -11 322 -11 256 -11 c 0,0,1
343 483 m 0,20,21
 293 483 293 483 254.5 463 c 128,-1,22
 216 443 216 443 190 408.5 c 128,-1,23
 164 374 164 374 150 329 c 128,-1,24
 136 284 136 284 136 235 c 0,25,26
 136 201 136 201 144 172 c 128,-1,27
 152 143 152 143 169 122 c 128,-1,28
 186 101 186 101 211 89 c 128,-1,29
 236 77 236 77 271 77 c 0,30,31
 320 77 320 77 358.5 97 c 128,-1,32
 397 117 397 117 423.5 151.5 c 128,-1,33
 450 186 450 186 463.5 230.5 c 128,-1,34
 477 275 477 275 477 325 c 0,35,36
 477 359 477 359 469 388 c 128,-1,37
 461 417 461 417 444.5 438 c 128,-1,38
 428 459 428 459 402.5 471 c 128,-1,39
 377 483 377 483 343 483 c 0,20,21
EndSplineSet
EndChar

StartChar: N.sc
Encoding: 65542 -1 246
Width: 573
Flags: W
LayerCount: 2
Back
Fore
SplineSet
370 0 m 1,0,-1
 185 405 l 1,1,-1
 113 0 l 1,2,-1
 21 0 l 1,3,-1
 120 560 l 1,4,-1
 212 560 l 1,5,-1
 386 178 l 1,6,-1
 453 560 l 1,7,-1
 546 560 l 1,8,-1
 447 0 l 1,9,-1
 370 0 l 1,0,-1
EndSplineSet
EndChar

StartChar: H.sc
Encoding: 65543 -1 247
Width: 600
Flags: W
LayerCount: 2
Back
Fore
SplineSet
382 0 m 1,0,-1
 425 248 l 1,1,-1
 157 248 l 1,2,-1
 113 0 l 1,3,-1
 21 0 l 1,4,-1
 120 560 l 1,5,-1
 212 560 l 1,6,-1
 173 337 l 1,7,-1
 441 337 l 1,8,-1
 481 560 l 1,9,-1
 573 560 l 1,10,-1
 474 0 l 1,11,-1
 382 0 l 1,0,-1
EndSplineSet
EndChar

StartChar: R.sc
Encoding: 65544 -1 248
Width: 507
Flags: W
LayerCount: 2
Back
Fore
SplineSet
333 0 m 1,0,-1
 256 212 l 1,1,-1
 152 212 l 1,2,-1
 115 0 l 1,3,-1
 21 0 l 1,4,-1
 120 560 l 1,5,-1
 312 560 l 2,6,7
 347 560 347 560 377 553.5 c 128,-1,8
 407 547 407 547 428.5 532 c 128,-1,9
 450 517 450 517 462 492 c 128,-1,10
 474 467 474 467 474 431 c 0,11,12
 474 394 474 394 464.5 364 c 128,-1,13
 455 334 455 334 438 310.5 c 128,-1,14
 421 287 421 287 398 268.5 c 128,-1,15
 375 250 375 250 348 236 c 1,16,-1
 430 0 l 1,17,-1
 333 0 l 1,0,-1
200 483 m 1,18,-1
 168 300 l 1,19,-1
 251 300 l 2,20,21
 288 300 288 300 312.5 308.5 c 128,-1,22
 337 317 337 317 350.5 332 c 128,-1,23
 364 347 364 347 369.5 368 c 128,-1,24
 375 389 375 389 375 414 c 0,25,26
 375 446 375 446 354.5 464.5 c 128,-1,27
 334 483 334 483 281 483 c 2,28,-1
 200 483 l 1,18,-1
EndSplineSet
EndChar

StartChar: I.sc
Encoding: 65545 -1 249
Width: 239
Flags: W
LayerCount: 2
Back
Fore
SplineSet
21 0 m 1,0,-1
 120 560 l 1,1,-1
 212 560 l 1,2,-1
 113 0 l 1,3,-1
 21 0 l 1,0,-1
EndSplineSet
EndChar

StartChar: OE.sc
Encoding: 65546 -1 250
Width: 849
Flags: W
LayerCount: 2
Back
Fore
SplineSet
521 0 m 1,0,-1
 427 0 l 1,1,-1
 436 52 l 1,2,3
 391 20 391 20 346.5 4.5 c 128,-1,4
 302 -11 302 -11 254 -11 c 0,5,6
 204 -11 204 -11 163.5 6 c 128,-1,7
 123 23 123 23 94 53.5 c 128,-1,8
 65 84 65 84 49.5 128 c 128,-1,9
 34 172 34 172 34 226 c 0,10,11
 34 302 34 302 59.5 365.5 c 128,-1,12
 85 429 85 429 129.5 475 c 128,-1,13
 174 521 174 521 232.5 546 c 128,-1,14
 291 571 291 571 357 571 c 0,15,16
 451 571 451 571 517 508 c 1,17,-1
 526 560 l 1,18,-1
 851 560 l 1,19,-1
 836 472 l 1,20,-1
 604 472 l 1,21,-1
 580 336 l 1,22,-1
 759 336 l 1,23,-1
 743 248 l 1,24,-1
 565 248 l 1,25,-1
 537 88 l 1,26,-1
 775 88 l 1,27,-1
 760 0 l 1,28,-1
 521 0 l 1,0,-1
341 483 m 0,29,30
 291 483 291 483 253 463 c 128,-1,31
 215 443 215 443 188.5 409 c 128,-1,32
 162 375 162 375 148.5 329.5 c 128,-1,33
 135 284 135 284 135 234 c 0,34,35
 135 200 135 200 143 171 c 128,-1,36
 151 142 151 142 168 121 c 128,-1,37
 185 100 185 100 210 88.5 c 128,-1,38
 235 77 235 77 270 77 c 0,39,40
 319 77 319 77 357.5 97 c 128,-1,41
 396 117 396 117 422.5 151 c 128,-1,42
 449 185 449 185 462.5 230.5 c 128,-1,43
 476 276 476 276 476 326 c 0,44,45
 476 360 476 360 467.5 389 c 128,-1,46
 459 418 459 418 442.5 439 c 128,-1,47
 426 460 426 460 400.5 471.5 c 128,-1,48
 375 483 375 483 341 483 c 0,29,30
EndSplineSet
EndChar

StartChar: Q.sc
Encoding: 65547 -1 251
Width: 620
Flags: W
LayerCount: 2
Back
Fore
SplineSet
468 -4 m 1,0,-1
 423 40 l 1,1,2
 385 14 385 14 343 1.5 c 128,-1,3
 301 -11 301 -11 256 -11 c 0,4,5
 205 -11 205 -11 164 6 c 128,-1,6
 123 23 123 23 94 53.5 c 128,-1,7
 65 84 65 84 49.5 128 c 128,-1,8
 34 172 34 172 34 226 c 0,9,10
 34 302 34 302 59.5 365.5 c 128,-1,11
 85 429 85 429 129.5 475 c 128,-1,12
 174 521 174 521 233 546 c 128,-1,13
 292 571 292 571 358 571 c 0,14,15
 409 571 409 571 450 554 c 128,-1,16
 491 537 491 537 520 506.5 c 128,-1,17
 549 476 549 476 564.5 432 c 128,-1,18
 580 388 580 388 580 334 c 0,19,20
 580 267 580 267 557 210 c 128,-1,21
 534 153 534 153 491 99 c 1,22,-1
 532 58 l 1,23,-1
 468 -4 l 1,0,-1
343 483 m 0,24,25
 293 483 293 483 254.5 463 c 128,-1,26
 216 443 216 443 190 409 c 128,-1,27
 164 375 164 375 150 329.5 c 128,-1,28
 136 284 136 284 136 234 c 0,29,30
 136 200 136 200 144.5 171 c 128,-1,31
 153 142 153 142 169.5 121 c 128,-1,32
 186 100 186 100 211.5 88.5 c 128,-1,33
 237 77 237 77 271 77 c 0,34,35
 294 77 294 77 317.5 82 c 128,-1,36
 341 87 341 87 362 100 c 1,37,-1
 304 160 l 1,38,-1
 368 224 l 1,39,-1
 428 159 l 1,40,41
 438 174 438 174 447 189.5 c 128,-1,42
 456 205 456 205 463 224 c 128,-1,43
 470 243 470 243 474.5 267.5 c 128,-1,44
 479 292 479 292 479 325 c 0,45,46
 479 394 479 394 445.5 438.5 c 128,-1,47
 412 483 412 483 343 483 c 0,24,25
EndSplineSet
EndChar

StartChar: K.sc
Encoding: 65548 -1 252
Width: 500
Flags: W
LayerCount: 2
Back
Fore
SplineSet
328 0 m 1,0,-1
 188 296 l 1,1,-1
 426 560 l 1,2,-1
 529 560 l 1,3,-1
 291 296 l 1,4,-1
 430 0 l 1,5,-1
 328 0 l 1,0,-1
21 0 m 1,6,-1
 120 560 l 1,7,-1
 212 560 l 1,8,-1
 113 0 l 1,9,-1
 21 0 l 1,6,-1
EndSplineSet
EndChar

StartChar: F.sc
Encoding: 65549 -1 253
Width: 432
Flags: W
LayerCount: 2
Back
Fore
SplineSet
197 472 m 1,0,-1
 173 336 l 1,1,-1
 358 336 l 1,2,-1
 343 248 l 1,3,-1
 157 248 l 1,4,-1
 113 0 l 1,5,-1
 21 0 l 1,6,-1
 120 560 l 1,7,-1
 452 560 l 1,8,-1
 437 472 l 1,9,-1
 197 472 l 1,0,-1
EndSplineSet
EndChar

StartChar: G.sc
Encoding: 65550 -1 254
Width: 544
Flags: W
LayerCount: 2
Back
Fore
SplineSet
254 -11 m 0,0,1
 205 -11 205 -11 164.5 6 c 128,-1,2
 124 23 124 23 95.5 54 c 128,-1,3
 67 85 67 85 51 129 c 128,-1,4
 35 173 35 173 35 227 c 0,5,6
 35 303 35 303 60.5 366.5 c 128,-1,7
 86 430 86 430 130.5 475.5 c 128,-1,8
 175 521 175 521 235 546 c 128,-1,9
 295 571 295 571 363 571 c 0,10,11
 382 571 382 571 404 568.5 c 128,-1,12
 426 566 426 566 447 562 c 128,-1,13
 468 558 468 558 486.5 552 c 128,-1,14
 505 546 505 546 519 539 c 1,15,-1
 494 452 l 1,16,17
 464 465 464 465 425 474 c 128,-1,18
 386 483 386 483 349 483 c 0,19,20
 296 483 296 483 256 462.5 c 128,-1,21
 216 442 216 442 189.5 408 c 128,-1,22
 163 374 163 374 150 329.5 c 128,-1,23
 137 285 137 285 137 237 c 0,24,25
 137 166 137 166 173 121.5 c 128,-1,26
 209 77 209 77 284 77 c 0,27,28
 301 77 301 77 322 79.5 c 128,-1,29
 343 82 343 82 364 88 c 1,30,-1
 385 202 l 1,31,-1
 319 202 l 1,32,-1
 333 281 l 1,33,-1
 491 281 l 1,34,-1
 477 201 l 1,35,-1
 447 31 l 1,36,37
 430 22 430 22 406.5 14.5 c 128,-1,38
 383 7 383 7 357 1.5 c 128,-1,39
 331 -4 331 -4 304 -7.5 c 128,-1,40
 277 -11 277 -11 254 -11 c 0,0,1
EndSplineSet
EndChar

StartChar: E.sc
Encoding: 65551 -1 255
Width: 461
Flags: W
LayerCount: 2
Back
Fore
SplineSet
113 0 m 1,0,-1
 21 0 l 1,1,-1
 120 560 l 1,2,-1
 462 560 l 1,3,-1
 447 472 l 1,4,-1
 199 472 l 1,5,-1
 175 336 l 1,6,-1
 369 336 l 1,7,-1
 353 248 l 1,8,-1
 159 248 l 1,9,-1
 131 88 l 1,10,-1
 387 88 l 1,11,-1
 371 0 l 1,12,-1
 113 0 l 1,0,-1
EndSplineSet
EndChar

StartChar: D.sc
Encoding: 65552 -1 256
Width: 586
Flags: W
LayerCount: 2
Back
Fore
SplineSet
113 0 m 1,0,-1
 21 0 l 1,1,-1
 120 560 l 1,2,-1
 322 560 l 2,3,4
 373 560 373 560 414 544.5 c 128,-1,5
 455 529 455 529 484.5 499.5 c 128,-1,6
 514 470 514 470 530 428 c 128,-1,7
 546 386 546 386 546 333 c 0,8,9
 546 256 546 256 520.5 194.5 c 128,-1,10
 495 133 495 133 451.5 90 c 128,-1,11
 408 47 408 47 349 23.5 c 128,-1,12
 290 0 290 0 223 0 c 2,13,-1
 113 0 l 1,0,-1
197 472 m 1,14,-1
 129 88 l 1,15,-1
 239 88 l 2,16,17
 289 88 289 88 327 106 c 128,-1,18
 365 124 365 124 391 155.5 c 128,-1,19
 417 187 417 187 430.5 230 c 128,-1,20
 444 273 444 273 444 324 c 0,21,22
 444 392 444 392 410 432 c 128,-1,23
 376 472 376 472 306 472 c 2,24,-1
 197 472 l 1,14,-1
EndSplineSet
EndChar

StartChar: C.sc
Encoding: 65553 -1 257
Width: 498
Flags: W
LayerCount: 2
Back
Fore
SplineSet
257 -11 m 0,0,1
 206 -11 206 -11 165 6 c 128,-1,2
 124 23 124 23 95 53.5 c 128,-1,3
 66 84 66 84 50 128 c 128,-1,4
 34 172 34 172 34 226 c 0,5,6
 34 302 34 302 60 365.5 c 128,-1,7
 86 429 86 429 130 475 c 128,-1,8
 174 521 174 521 233.5 546 c 128,-1,9
 293 571 293 571 359 571 c 0,10,11
 402 571 402 571 441 562 c 128,-1,12
 480 553 480 553 506 538 c 1,13,-1
 481 451 l 1,14,15
 449 464 449 464 417.5 473.5 c 128,-1,16
 386 483 386 483 344 483 c 0,17,18
 294 483 294 483 255.5 463 c 128,-1,19
 217 443 217 443 190.5 409 c 128,-1,20
 164 375 164 375 150 330 c 128,-1,21
 136 285 136 285 136 235 c 0,22,23
 136 201 136 201 144.5 172 c 128,-1,24
 153 143 153 143 170 122 c 128,-1,25
 187 101 187 101 212.5 89 c 128,-1,26
 238 77 238 77 273 77 c 0,27,28
 315 77 315 77 350 86.5 c 128,-1,29
 385 96 385 96 420 109 c 1,30,-1
 415 21 l 1,31,32
 383 7 383 7 341 -2 c 128,-1,33
 299 -11 299 -11 257 -11 c 0,0,1
EndSplineSet
EndChar

StartChar: V.sc
Encoding: 65554 -1 258
Width: 523
Flags: W
LayerCount: 2
Back
Fore
SplineSet
261 0 m 1,0,-1
 152 0 l 1,1,-1
 52 560 l 1,2,-1
 149 560 l 1,3,-1
 227 118 l 1,4,-1
 458 560 l 1,5,-1
 555 560 l 1,6,-1
 261 0 l 1,0,-1
EndSplineSet
EndChar

StartChar: W.sc
Encoding: 65555 -1 259
Width: 772
Flags: W
LayerCount: 2
Back
Fore
SplineSet
544 0 m 1,0,-1
 458 0 l 1,1,-1
 408 404 l 1,2,-1
 213 0 l 1,3,-1
 123 0 l 1,4,-1
 69 560 l 1,5,-1
 166 560 l 1,6,-1
 202 135 l 1,7,-1
 400 556 l 1,8,-1
 468 556 l 1,9,-1
 524 142 l 1,10,-1
 705 560 l 1,11,-1
 802 560 l 1,12,-1
 544 0 l 1,0,-1
EndSplineSet
EndChar

StartChar: B.sc
Encoding: 65556 -1 260
Width: 507
Flags: W
LayerCount: 2
Back
Fore
SplineSet
112 0 m 1,0,-1
 21 0 l 1,1,-1
 120 560 l 1,2,-1
 260 560 l 2,3,4
 302 560 302 560 336 556 c 128,-1,5
 370 552 370 552 394 540 c 128,-1,6
 418 528 418 528 431.5 506 c 128,-1,7
 445 484 445 484 445 448 c 0,8,9
 445 418 445 418 439.5 396 c 128,-1,10
 434 374 434 374 425 356.5 c 128,-1,11
 416 339 416 339 403 325 c 128,-1,12
 390 311 390 311 375 299 c 1,13,14
 448 268 448 268 448 192 c 0,15,16
 448 134 448 134 427.5 97 c 128,-1,17
 407 60 407 60 374.5 38.5 c 128,-1,18
 342 17 342 17 302 8.5 c 128,-1,19
 262 0 262 0 224 0 c 2,20,-1
 112 0 l 1,0,-1
198 480 m 1,21,-1
 172 332 l 1,22,-1
 267 332 l 2,23,24
 281 332 281 332 296.5 335.5 c 128,-1,25
 312 339 312 339 324.5 348.5 c 128,-1,26
 337 358 337 358 345.5 376 c 128,-1,27
 354 394 354 394 354 424 c 0,28,29
 354 459 354 459 333.5 469.5 c 128,-1,30
 313 480 313 480 281 480 c 2,31,-1
 198 480 l 1,21,-1
158 256 m 1,32,-1
 128 81 l 1,33,-1
 220 81 l 2,34,35
 251 81 251 81 275 85.5 c 128,-1,36
 299 90 299 90 316 102 c 128,-1,37
 333 114 333 114 342 134 c 128,-1,38
 351 154 351 154 351 186 c 0,39,40
 351 227 351 227 326.5 241.5 c 128,-1,41
 302 256 302 256 264 256 c 2,42,-1
 158 256 l 1,32,-1
EndSplineSet
EndChar

StartChar: AE.sc
Encoding: 65557 -1 261
Width: 688
Flags: W
LayerCount: 2
Back
Fore
SplineSet
358 0 m 1,0,-1
 261 0 l 1,1,-1
 286 138 l 1,2,-1
 131 138 l 1,3,-1
 42 0 l 1,4,-1
 -53 0 l 1,5,-1
 310 560 l 1,6,-1
 690 560 l 1,7,-1
 674 471 l 1,8,-1
 442 471 l 1,9,-1
 418 336 l 1,10,-1
 597 336 l 1,11,-1
 582 248 l 1,12,-1
 403 248 l 1,13,-1
 375 88 l 1,14,-1
 614 88 l 1,15,-1
 598 0 l 1,16,-1
 358 0 l 1,0,-1
344 469 m 1,17,-1
 190 228 l 1,18,-1
 301 228 l 1,19,-1
 344 469 l 1,17,-1
EndSplineSet
EndChar

StartChar: X.sc
Encoding: 65558 -1 262
Width: 511
Flags: W
LayerCount: 2
Back
Fore
SplineSet
338 0 m 1,0,-1
 239 214 l 1,1,-1
 70 0 l 1,2,-1
 -35 0 l 1,3,-1
 203 279 l 1,4,-1
 70 560 l 1,5,-1
 177 560 l 1,6,-1
 270 355 l 1,7,-1
 430 560 l 1,8,-1
 534 560 l 1,9,-1
 305 290 l 1,10,-1
 444 0 l 1,11,-1
 338 0 l 1,0,-1
EndSplineSet
EndChar

StartChar: A.sc
Encoding: 65559 -1 263
Width: 496
Flags: W
LayerCount: 2
Back
Fore
SplineSet
341 0 m 1,0,-1
 318 141 l 1,1,-1
 131 141 l 1,2,-1
 59 0 l 1,3,-1
 -38 0 l 1,4,-1
 254 560 l 1,5,-1
 344 560 l 1,6,-1
 437 0 l 1,7,-1
 341 0 l 1,0,-1
273 418 m 1,8,-1
 178 229 l 1,9,-1
 302 229 l 1,10,-1
 273 418 l 1,8,-1
EndSplineSet
EndChar

StartChar: Y.sc
Encoding: 65560 -1 264
Width: 484
Flags: W
LayerCount: 2
Back
Fore
SplineSet
278 252 m 1,0,-1
 234 0 l 1,1,-1
 140 0 l 1,2,-1
 185 252 l 1,3,-1
 53 560 l 1,4,-1
 151 560 l 1,5,-1
 246 335 l 1,6,-1
 421 560 l 1,7,-1
 519 560 l 1,8,-1
 278 252 l 1,0,-1
EndSplineSet
EndChar

StartChar: Z.sc
Encoding: 65561 -1 265
Width: 451
Flags: W
LayerCount: 2
Back
Fore
SplineSet
135 88 m 1,0,-1
 360 88 l 1,1,-1
 345 0 l 1,2,-1
 -33 0 l 1,3,-1
 310 472 l 1,4,-1
 85 472 l 1,5,-1
 101 560 l 1,6,-1
 478 560 l 1,7,-1
 135 88 l 1,0,-1
EndSplineSet
EndChar

StartChar: U.sc
Encoding: 65562 -1 266
Width: 583
Flags: W
LayerCount: 2
Back
Fore
SplineSet
238 -11 m 0,0,1
 142 -11 142 -11 96.5 37 c 128,-1,2
 51 85 51 85 51 169 c 0,3,4
 51 204 51 204 58 239 c 2,5,-1
 115 560 l 1,6,-1
 206 560 l 1,7,-1
 156 274 l 2,8,9
 152 253 152 253 150 233 c 128,-1,10
 148 213 148 213 148 194 c 0,11,12
 148 168 148 168 153 147 c 128,-1,13
 158 126 158 126 170 110 c 128,-1,14
 182 94 182 94 202.5 85.5 c 128,-1,15
 223 77 223 77 254 77 c 0,16,17
 295 77 295 77 323.5 93 c 128,-1,18
 352 109 352 109 371 136 c 128,-1,19
 390 163 390 163 401.5 198.5 c 128,-1,20
 413 234 413 234 420 274 c 2,21,-1
 470 560 l 1,22,-1
 563 560 l 1,23,-1
 506 239 l 2,24,25
 496 182 496 182 474.5 136 c 128,-1,26
 453 90 453 90 419.5 57 c 128,-1,27
 386 24 386 24 340.5 6.5 c 128,-1,28
 295 -11 295 -11 238 -11 c 0,0,1
EndSplineSet
EndChar

StartChar: P.sc
Encoding: 65563 -1 267
Width: 483
Flags: W
LayerCount: 2
Back
Fore
SplineSet
148 188 m 1,0,-1
 115 0 l 1,1,-1
 21 0 l 1,2,-1
 120 560 l 1,3,-1
 278 560 l 2,4,5
 323 560 323 560 359 555 c 128,-1,6
 395 550 395 550 420.5 536 c 128,-1,7
 446 522 446 522 459.5 496 c 128,-1,8
 473 470 473 470 473 428 c 0,9,10
 473 356 473 356 450 309.5 c 128,-1,11
 427 263 427 263 393.5 236 c 128,-1,12
 360 209 360 209 321 198.5 c 128,-1,13
 282 188 282 188 250 188 c 2,14,-1
 148 188 l 1,0,-1
200 481 m 1,15,-1
 163 274 l 1,16,-1
 252 274 l 2,17,18
 289 274 289 274 313 283.5 c 128,-1,19
 337 293 337 293 351 310.5 c 128,-1,20
 365 328 365 328 371 353 c 128,-1,21
 377 378 377 378 377 410 c 0,22,23
 377 447 377 447 355.5 464 c 128,-1,24
 334 481 334 481 281 481 c 2,25,-1
 200 481 l 1,15,-1
EndSplineSet
EndChar

StartChar: T.sc
Encoding: 65564 -1 268
Width: 458
Flags: W
LayerCount: 2
Back
Fore
SplineSet
307 472 m 1,0,-1
 224 0 l 1,1,-1
 131 0 l 1,2,-1
 214 472 l 1,3,-1
 60 472 l 1,4,-1
 76 560 l 1,5,-1
 477 560 l 1,6,-1
 462 472 l 1,7,-1
 307 472 l 1,0,-1
EndSplineSet
EndChar
